<svg width="1392" height="1392" viewBox="0 0 1392 1392" fill="none" xmlns="http://www.w3.org/2000/svg">
<circle cx="696" cy="696" r="696" fill="#F9C9B6"/>
<mask id="mask0" mask-type="alpha" maskUnits="userSpaceOnUse" x="0" y="0" width="1392" height="1392">
<circle cx="696" cy="696" r="696" fill="#FFEDEF"/>
</mask>
<g mask="url(#mask0)">
<path d="M893.695 1364.4C840.945 1291.14 799.674 1112.87 794.79 1042.05L543.863 933.981L439.463 1364.4H893.695Z" fill="#FC909F" stroke="black" stroke-width="14.6526"/>
<mask id="mask1" mask-type="alpha" maskUnits="userSpaceOnUse" x="439" y="933" width="455" height="432">
<path d="M893.695 1364.4C840.945 1291.14 799.674 1112.87 794.79 1042.05L543.863 933.981L439.463 1364.4H893.695Z" fill="#FFEDEF"/>
</mask>
<g mask="url(#mask1)">
<ellipse cx="783.916" cy="926.781" rx="216.126" ry="197.811" fill="black"/>
</g>
<g clip-path="url(#clip0)">
<path d="M893.811 1364.53C841.061 1291.27 799.79 1112.99 794.906 1042.17L543.979 934.106L439.579 1364.53H893.811Z" fill="#77311D" stroke="black" stroke-width="14.6526"/>
<mask id="mask2" mask-type="alpha" maskUnits="userSpaceOnUse" x="439" y="934" width="455" height="431">
<path d="M893.811 1364.53C841.061 1291.27 799.79 1112.99 794.906 1042.17L543.979 934.106L439.579 1364.53H893.811Z" fill="#AC6651"/>
</mask>
<g mask="url(#mask2)">
<ellipse cx="783.916" cy="926.78" rx="216.126" ry="197.811" fill="black"/>
</g>
<mask id="path-9-inside-1" fill="white">
<path fill-rule="evenodd" clip-rule="evenodd" d="M1003.29 710.356C1003.19 709.931 1003.09 709.505 1002.99 709.079C1002.89 708.653 1002.78 708.228 1002.68 707.803L942.621 457.13C942.561 456.876 942.5 456.622 942.44 456.368C942.379 456.113 942.317 455.859 942.256 455.605L941.994 454.511L941.989 454.512C904.558 302.694 751.524 209.343 599.231 245.831C446.938 282.319 352.823 434.884 388.256 587.182L388.249 587.183L455.03 865.914L456.073 865.664C502.24 1004.33 647.681 1086.97 792.453 1052.29C937.224 1017.6 1029.42 878.021 1007.74 733.49L1008.78 733.242L1003.29 710.356Z"/>
</mask>
<path fill-rule="evenodd" clip-rule="evenodd" d="M1003.29 710.356C1003.19 709.931 1003.09 709.505 1002.99 709.079C1002.89 708.653 1002.78 708.228 1002.68 707.803L942.621 457.13C942.561 456.876 942.5 456.622 942.44 456.368C942.379 456.113 942.317 455.859 942.256 455.605L941.994 454.511L941.989 454.512C904.558 302.694 751.524 209.343 599.231 245.831C446.938 282.319 352.823 434.884 388.256 587.182L388.249 587.183L455.03 865.914L456.073 865.664C502.24 1004.33 647.681 1086.97 792.453 1052.29C937.224 1017.6 1029.42 878.021 1007.74 733.49L1008.78 733.242L1003.29 710.356Z" fill="#77311D"/>
<path d="M1003.29 710.356L989.027 713.706L989.035 713.738L989.043 713.77L1003.29 710.356ZM1002.99 709.079L1017.24 705.666L1017.24 705.664L1002.99 709.079ZM1002.68 707.803L988.431 711.217L988.438 711.249L988.446 711.281L1002.68 707.803ZM942.621 457.13L928.363 460.505L928.367 460.525L928.372 460.544L942.621 457.13ZM942.44 456.368L928.19 459.781L928.19 459.781L942.44 456.368ZM942.256 455.605L928.006 459.019L928.011 459.038L928.016 459.058L942.256 455.605ZM941.994 454.511L956.243 451.097L952.825 436.829L938.561 440.266L941.994 454.511ZM941.989 454.512L927.762 458.02L931.251 472.171L945.421 468.757L941.989 454.512ZM599.231 245.831L602.645 260.081V260.081L599.231 245.831ZM388.256 587.182L391.687 601.427L405.822 598.022L402.527 583.861L388.256 587.182ZM388.249 587.183L384.817 572.938L370.589 576.366L373.999 590.597L388.249 587.183ZM455.03 865.914L440.781 869.328L444.195 883.578L458.444 880.163L455.03 865.914ZM456.073 865.664L469.975 861.036L465.729 848.283L452.658 851.415L456.073 865.664ZM792.453 1052.29L795.867 1066.54L792.453 1052.29ZM1007.74 733.49L1004.32 719.241L991.254 722.372L993.248 735.664L1007.74 733.49ZM1008.78 733.242L1012.19 747.491L1026.44 744.077L1023.02 729.828L1008.78 733.242ZM1017.56 707.007C1017.45 706.559 1017.35 706.112 1017.24 705.666L988.739 712.492C988.836 712.897 988.932 713.302 989.027 713.706L1017.56 707.007ZM1017.24 705.664C1017.13 705.218 1017.02 704.772 1016.91 704.325L988.446 711.281C988.545 711.684 988.643 712.088 988.74 712.494L1017.24 705.664ZM928.372 460.544L988.431 711.217L1016.93 704.389L956.871 453.716L928.372 460.544ZM956.88 453.756C956.816 453.486 956.753 453.219 956.689 452.954L928.19 459.781C928.248 460.025 928.306 460.266 928.363 460.505L956.88 453.756ZM956.689 452.954C956.625 452.686 956.56 452.418 956.496 452.152L928.016 459.058C928.074 459.3 928.133 459.541 928.19 459.781L956.689 452.954ZM927.744 457.925L928.006 459.019L956.505 452.191L956.243 451.097L927.744 457.925ZM945.421 468.757L945.426 468.756L938.561 440.266L938.556 440.267L945.421 468.757ZM956.215 451.005C916.858 291.37 755.948 193.216 595.817 231.582L602.645 260.081C747.099 225.47 892.258 314.017 927.762 458.02L956.215 451.005ZM595.817 231.582C435.685 269.948 336.727 430.365 373.984 590.502L402.527 583.861C368.918 439.404 458.19 294.691 602.645 260.081L595.817 231.582ZM391.68 601.428L391.687 601.427L384.824 572.937L384.817 572.938L391.68 601.428ZM469.279 862.5L402.498 583.769L373.999 590.597L440.781 869.328L469.279 862.5ZM452.658 851.415L451.616 851.665L458.444 880.163L459.487 879.914L452.658 851.415ZM442.17 870.293C490.718 1016.11 643.637 1103.01 795.867 1066.54L789.039 1038.04C651.725 1070.94 513.761 992.55 469.975 861.036L442.17 870.293ZM795.867 1066.54C948.096 1030.06 1045.03 883.301 1022.23 731.316L993.248 735.664C1013.81 872.741 926.352 1005.14 789.039 1038.04L795.867 1066.54ZM1005.36 718.992L1004.32 719.241L1011.15 747.739L1012.19 747.491L1005.36 718.992ZM989.043 713.77L994.526 736.656L1023.02 729.828L1017.54 706.942L989.043 713.77Z" fill="black" mask="url(#path-9-inside-1)"/>
</g>
<path d="M696.001 832.143C714.098 855.758 741.523 881.921 783.829 875.955C826.134 869.989 844.958 840.806 839.408 817.172" stroke="black" stroke-width="14.6526"/>
<path d="M802.232 484.323C822.99 474.554 871.832 465.641 901.137 508.133" stroke="black" stroke-width="14.6526" stroke-linecap="round"/>
<path d="M525.953 577.025C533.538 555.374 561.42 514.293 612.267 523.182" stroke="black" stroke-width="14.6526" stroke-linecap="round"/>
<path d="M1032.01 482.772C1032.01 240.676 898.455 76.926 735.779 76.9258C527.37 76.9258 315.032 155.103 315.032 524.763C315.032 616.225 354.078 684.375 408.679 734.609C403.206 727.761 398.796 721.628 395.867 716.582C385.277 617.747 502.706 541.887 617.614 467.655C678.615 428.248 738.905 389.3 778.957 347.617C814.103 367.533 917.402 450.968 937.084 484.708C947.64 502.803 964.591 564.817 976.174 637.204C1014.04 591.719 1032.01 546.202 1032.01 482.772Z" fill="white" stroke="black" stroke-width="14.6526"/>
<path d="M781.219 345.236C829.477 301.482 901.672 201.619 897.039 136.759" stroke="black" stroke-width="14.6526"/>
<ellipse cx="616.007" cy="615.229" rx="32.9684" ry="36.6316" transform="rotate(-6.77646 616.007 615.229)" fill="black"/>
<ellipse cx="850.561" cy="578.584" rx="32.9684" ry="36.6316" transform="rotate(-6.27568 850.561 578.584)" fill="black"/>
<circle cx="859.01" cy="582.442" r="95.2421" stroke="#F4D150" stroke-width="14.6526"/>
<circle cx="613.578" cy="615.41" r="95.2421" stroke="#F4D150" stroke-width="14.6526"/>
<path d="M767.431 608.084C767.431 600.312 764.343 592.858 758.848 587.362C753.352 581.866 745.898 578.779 738.126 578.779C730.353 578.779 722.899 581.866 717.404 587.362C711.908 592.858 708.82 600.312 708.82 608.084" stroke="#F4D150" stroke-width="14.6526"/>
<path d="M520.168 622.737L410.273 642.884" stroke="#F4D150" stroke-width="14.6526"/>
<path d="M746.485 633.615C747.23 647.691 752.705 677.871 768.643 685.989C788.564 696.136 772.947 729.774 735.652 727.617" stroke="black" stroke-width="14.6526"/>
<path d="M456.064 660.012C447.528 657.201 438.315 655.706 428.883 655.706C390.444 655.706 359.283 679.516 362.946 723.474C366.762 769.263 394.107 785.748 432.546 785.748C436.823 785.748 441.01 785.372 445.074 784.653C449.509 783.868 453.796 782.674 457.895 781.113" stroke="black" stroke-width="29.3053"/>
<path d="M459.727 780.385C451.376 783.838 442.19 785.748 432.546 785.748C394.107 785.748 366.762 769.263 362.946 723.474C359.283 679.516 390.444 655.706 428.883 655.706C440.376 655.706 451.546 657.927 461.558 662.041L459.727 780.385Z" fill="#77311D"/>
<path d="M445.074 686.844C430.422 680.128 398.186 676.587 386.464 716.149" stroke="black" stroke-width="14.6526"/>
<path d="M406.611 688.674C414.548 695.39 429.689 716.148 426.758 745.453" stroke="black" stroke-width="14.6526"/>
<path d="M840.886 1210.49L841.399 1210.61L841.924 1210.65C1010.89 1224.59 1112.21 1299.64 1185.74 1402.99H184.529C244.238 1295.51 329.163 1227.09 466.849 1195.7C525.508 1182.33 593.844 1175.66 674.02 1175.66C708.658 1175.66 735.612 1180.94 761.19 1187.91C770.665 1190.49 780.189 1193.39 789.932 1196.35C806.059 1201.25 822.786 1206.33 840.886 1210.49Z" fill="#9287FF" stroke="black" stroke-width="14.6526"/>
<path d="M424.669 1203.65L458.198 1131.86C458.999 1130.15 460.989 1129.33 462.773 1129.96C601.704 1179.14 728.092 1175.68 845.22 1143.07C846.694 1142.66 848.269 1143.2 849.172 1144.44L900.208 1214.23C901.611 1216.15 900.896 1218.86 898.684 1219.72C775.576 1268.06 544.573 1259.85 426.444 1208.49C424.57 1207.68 423.804 1205.5 424.669 1203.65Z" fill="#E0DDFF" stroke="black" stroke-width="14.6526"/>
</g>
<defs>
<clipPath id="clip0">
<rect width="732.632" height="1208.84" fill="white" transform="translate(329.685 157.517)"/>
</clipPath>
</defs>
</svg>
