<svg width="1392" height="1392" viewBox="0 0 1392 1392" fill="none" xmlns="http://www.w3.org/2000/svg">
<circle cx="696" cy="696" r="696" fill="#D2EFF3"/>
<mask id="mask0" mask-type="alpha" maskUnits="userSpaceOnUse" x="0" y="0" width="1392" height="1392">
<circle cx="696" cy="696" r="696" fill="#FFEDEF"/>
</mask>
<g mask="url(#mask0)">
<g clip-path="url(#clip0)">
<path d="M893.811 1327.9C841.061 1254.63 799.79 1112.99 794.906 1042.17L543.979 934.106L439.579 1327.9H893.811Z" fill="#F9C9B6" stroke="black" stroke-width="14.6526"/>
<mask id="mask1" mask-type="alpha" maskUnits="userSpaceOnUse" x="439" y="934" width="455" height="431">
<path d="M893.811 1364.53C841.061 1291.27 799.79 1112.99 794.906 1042.17L543.979 934.106L439.579 1364.53H893.811Z" fill="#AC6651"/>
</mask>
<g mask="url(#mask1)">
<g style="mix-blend-mode:multiply">
<ellipse cx="783.916" cy="926.78" rx="216.126" ry="197.811" fill="black"/>
</g>
</g>
<mask id="path-6-inside-1" fill="white">
<path fill-rule="evenodd" clip-rule="evenodd" d="M1003.29 710.354C1003.19 709.929 1003.09 709.504 1002.99 709.079C1002.89 708.654 1002.78 708.229 1002.68 707.805L942.621 457.13C942.561 456.876 942.501 456.622 942.44 456.368C942.379 456.113 942.317 455.859 942.256 455.605L941.994 454.511L941.989 454.512C904.558 302.694 751.524 209.343 599.231 245.831C446.938 282.319 352.823 434.884 388.256 587.182L388.249 587.183L450.49 846.967L450.541 846.955C489.381 996.795 641.282 1088.51 792.453 1052.29C943.623 1016.07 1037.47 865.477 1004.19 714.305L1004.24 714.294L1003.29 710.354Z"/>
</mask>
<path fill-rule="evenodd" clip-rule="evenodd" d="M1003.29 710.354C1003.19 709.929 1003.09 709.504 1002.99 709.079C1002.89 708.654 1002.78 708.229 1002.68 707.805L942.621 457.13C942.561 456.876 942.501 456.622 942.44 456.368C942.379 456.113 942.317 455.859 942.256 455.605L941.994 454.511L941.989 454.512C904.558 302.694 751.524 209.343 599.231 245.831C446.938 282.319 352.823 434.884 388.256 587.182L388.249 587.183L450.49 846.967L450.541 846.955C489.381 996.795 641.282 1088.51 792.453 1052.29C943.623 1016.07 1037.47 865.477 1004.19 714.305L1004.24 714.294L1003.29 710.354Z" fill="#F9C9B6"/>
<path d="M1003.29 710.354L989.027 713.704L989.034 713.736L989.042 713.768L1003.29 710.354ZM1002.99 709.079L988.74 712.492L988.74 712.493L1002.99 709.079ZM1002.68 707.805L988.432 711.219L988.439 711.251L988.447 711.284L1002.68 707.805ZM942.621 457.13L928.363 460.505L928.367 460.525L928.372 460.544L942.621 457.13ZM942.44 456.368L928.19 459.781L928.19 459.781L942.44 456.368ZM942.256 455.605L928.006 459.019L928.011 459.038L928.016 459.058L942.256 455.605ZM941.994 454.511L956.243 451.097L952.825 436.829L938.561 440.266L941.994 454.511ZM941.989 454.512L927.762 458.02L931.251 472.171L945.421 468.757L941.989 454.512ZM599.231 245.831L602.645 260.081V260.081L599.231 245.831ZM388.256 587.182L391.688 601.427L405.822 598.022L402.527 583.861L388.256 587.182ZM388.249 587.183L384.817 572.938L370.59 576.366L373.999 590.597L388.249 587.183ZM450.49 846.967L436.241 850.381L439.654 864.627L453.901 861.217L450.49 846.967ZM450.541 846.955L464.725 843.278L461.117 829.357L447.131 832.704L450.541 846.955ZM1004.19 714.305L1000.78 700.056L986.788 703.407L989.88 717.455L1004.19 714.305ZM1004.24 714.294L1007.65 728.544L1021.9 725.13L1018.48 710.88L1004.24 714.294ZM1017.56 707.004C1017.45 706.557 1017.35 706.111 1017.24 705.665L988.74 712.493C988.836 712.897 988.932 713.3 989.027 713.704L1017.56 707.004ZM1017.24 705.665C1017.13 705.219 1017.02 704.773 1016.91 704.327L988.447 711.284C988.545 711.686 988.643 712.089 988.74 712.492L1017.24 705.665ZM928.372 460.544L988.432 711.219L1016.93 704.391L956.871 453.716L928.372 460.544ZM956.88 453.755C956.817 453.488 956.753 453.221 956.689 452.954L928.19 459.781C928.248 460.023 928.305 460.264 928.363 460.505L956.88 453.755ZM956.689 452.954C956.625 452.686 956.56 452.418 956.496 452.152L928.016 459.058C928.075 459.3 928.133 459.541 928.19 459.781L956.689 452.954ZM927.744 457.925L928.006 459.019L956.505 452.191L956.243 451.097L927.744 457.925ZM945.421 468.757L945.426 468.756L938.561 440.266L938.556 440.267L945.421 468.757ZM956.215 451.005C916.858 291.37 755.948 193.216 595.817 231.582L602.645 260.081C747.1 225.47 892.258 314.017 927.762 458.02L956.215 451.005ZM595.817 231.582C435.685 269.948 336.727 430.365 373.984 590.502L402.527 583.861C368.918 439.404 458.19 294.691 602.645 260.081L595.817 231.582ZM391.68 601.428L391.688 601.427L384.824 572.937L384.817 572.938L391.68 601.428ZM464.74 843.553L402.498 583.769L373.999 590.597L436.241 850.381L464.74 843.553ZM447.131 832.704L447.08 832.717L453.901 861.217L453.952 861.205L447.131 832.704ZM436.358 850.631C477.198 1008.19 636.915 1104.62 795.867 1066.54L789.039 1038.04C645.65 1072.39 501.565 985.401 464.725 843.278L436.358 850.631ZM795.867 1066.54C954.819 1028.45 1053.49 870.113 1018.5 711.155L989.88 717.455C1021.45 860.842 932.428 1003.68 789.039 1038.04L795.867 1066.54ZM1000.82 700.045L1000.78 700.056L1007.6 728.555L1007.65 728.544L1000.82 700.045ZM989.042 713.768L989.986 717.708L1018.48 710.88L1017.54 706.94L989.042 713.768Z" fill="black" mask="url(#path-6-inside-1)"/>
<path d="M567.79 931.542C567.79 933.565 566.15 935.205 564.127 935.205C562.104 935.205 560.464 933.565 560.464 931.542C560.464 929.518 562.104 927.878 564.127 927.878C566.15 927.878 567.79 929.518 567.79 931.542Z" fill="black"/>
<path d="M758.274 957.184C758.274 959.207 756.634 960.847 754.611 960.847C752.588 960.847 750.948 959.207 750.948 957.184C750.948 955.161 752.588 953.52 754.611 953.52C756.634 953.52 758.274 955.161 758.274 957.184Z" fill="black"/>
<path d="M743.621 982.826C743.621 984.849 741.981 986.489 739.958 986.489C737.935 986.489 736.295 984.849 736.295 982.826C736.295 980.803 737.935 979.163 739.958 979.163C741.981 979.163 743.621 980.803 743.621 982.826Z" fill="black"/>
<path d="M816.885 975.499C816.885 977.523 815.245 979.163 813.221 979.163C811.198 979.163 809.558 977.523 809.558 975.499C809.558 973.476 811.198 971.836 813.221 971.836C815.245 971.836 816.885 973.476 816.885 975.499Z" fill="black"/>
<path d="M820.548 938.868C820.548 940.891 818.908 942.531 816.885 942.531C814.862 942.531 813.221 940.891 813.221 938.868C813.221 936.845 814.862 935.205 816.885 935.205C818.908 935.205 820.548 936.845 820.548 938.868Z" fill="black"/>
<path d="M893.811 957.184C893.811 959.207 892.171 960.847 890.148 960.847C888.125 960.847 886.485 959.207 886.485 957.184C886.485 955.161 888.125 953.52 890.148 953.52C892.171 953.52 893.811 955.161 893.811 957.184Z" fill="black"/>
<path d="M930.443 905.899C930.443 907.923 928.802 909.563 926.779 909.563C924.756 909.563 923.116 907.923 923.116 905.899C923.116 903.876 924.756 902.236 926.779 902.236C928.802 902.236 930.443 903.876 930.443 905.899Z" fill="black"/>
<path d="M531.158 854.615C531.158 856.638 529.518 858.278 527.495 858.278C525.472 858.278 523.832 856.638 523.832 854.615C523.832 852.592 525.472 850.952 527.495 850.952C529.518 850.952 531.158 852.592 531.158 854.615Z" fill="black"/>
<path d="M652.043 913.226C652.043 915.249 650.402 916.889 648.379 916.889C646.356 916.889 644.716 915.249 644.716 913.226C644.716 911.203 646.356 909.563 648.379 909.563C650.402 909.563 652.043 911.203 652.043 913.226Z" fill="black"/>
<path d="M641.053 986.489C641.053 988.512 639.413 990.152 637.39 990.152C635.367 990.152 633.727 988.512 633.727 986.489C633.727 984.466 635.367 982.826 637.39 982.826C639.413 982.826 641.053 984.466 641.053 986.489Z" fill="black"/>
<path d="M706.99 1001.14C706.99 1003.16 705.35 1004.8 703.327 1004.8C701.304 1004.8 699.664 1003.16 699.664 1001.14C699.664 999.118 701.304 997.478 703.327 997.478C705.35 997.478 706.99 999.118 706.99 1001.14Z" fill="black"/>
<path d="M831.537 905.899C831.537 907.923 829.897 909.563 827.874 909.563C825.851 909.563 824.211 907.923 824.211 905.899C824.211 903.876 825.851 902.236 827.874 902.236C829.897 902.236 831.537 903.876 831.537 905.899Z" fill="black"/>
<path d="M882.821 920.552C882.821 922.575 881.181 924.215 879.158 924.215C877.135 924.215 875.495 922.575 875.495 920.552C875.495 918.529 877.135 916.889 879.158 916.889C881.181 916.889 882.821 918.529 882.821 920.552Z" fill="black"/>
<path d="M853.516 982.826C853.516 984.849 851.876 986.489 849.853 986.489C847.83 986.489 846.19 984.849 846.19 982.826C846.19 980.803 847.83 979.163 849.853 979.163C851.876 979.163 853.516 980.803 853.516 982.826Z" fill="black"/>
<path d="M904.8 869.268C904.8 871.291 903.16 872.931 901.137 872.931C899.114 872.931 897.474 871.291 897.474 869.268C897.474 867.245 899.114 865.605 901.137 865.605C903.16 865.605 904.8 867.245 904.8 869.268Z" fill="black"/>
<path d="M564.127 876.594C564.127 878.617 562.487 880.257 560.464 880.257C558.44 880.257 556.8 878.617 556.8 876.594C556.8 874.571 558.44 872.931 560.464 872.931C562.487 872.931 564.127 874.571 564.127 876.594Z" fill="black"/>
<path d="M652.043 876.594C652.043 878.617 650.402 880.257 648.379 880.257C646.356 880.257 644.716 878.617 644.716 876.594C644.716 874.571 646.356 872.931 648.379 872.931C650.402 872.931 652.043 874.571 652.043 876.594Z" fill="black"/>
<path d="M652.043 810.657C652.043 812.68 650.402 814.32 648.379 814.32C646.356 814.32 644.716 812.68 644.716 810.657C644.716 808.634 646.356 806.994 648.379 806.994C650.402 806.994 652.043 808.634 652.043 810.657Z" fill="black"/>
<path d="M666.695 1008.47C666.695 1010.49 665.055 1012.13 663.032 1012.13C661.009 1012.13 659.369 1010.49 659.369 1008.47C659.369 1006.44 661.009 1004.8 663.032 1004.8C665.055 1004.8 666.695 1006.44 666.695 1008.47Z" fill="black"/>
<path d="M765.6 1008.47C765.6 1010.49 763.96 1012.13 761.937 1012.13C759.914 1012.13 758.274 1010.49 758.274 1008.47C758.274 1006.44 759.914 1004.8 761.937 1004.8C763.96 1004.8 765.6 1006.44 765.6 1008.47Z" fill="black"/>
<path d="M805.895 1008.47C805.895 1010.49 804.255 1012.13 802.232 1012.13C800.209 1012.13 798.569 1010.49 798.569 1008.47C798.569 1006.44 800.209 1004.8 802.232 1004.8C804.255 1004.8 805.895 1006.44 805.895 1008.47Z" fill="black"/>
<path d="M868.169 876.594C868.169 878.617 866.529 880.257 864.506 880.257C862.483 880.257 860.843 878.617 860.843 876.594C860.843 874.571 862.483 872.931 864.506 872.931C866.529 872.931 868.169 874.571 868.169 876.594Z" fill="black"/>
<path d="M868.169 810.657C868.169 812.68 866.529 814.32 864.506 814.32C862.483 814.32 860.843 812.68 860.843 810.657C860.843 808.634 862.483 806.994 864.506 806.994C866.529 806.994 868.169 808.634 868.169 810.657Z" fill="black"/>
<path d="M941.432 858.278C941.432 860.301 939.792 861.942 937.769 861.942C935.746 861.942 934.106 860.301 934.106 858.278C934.106 856.255 935.746 854.615 937.769 854.615C939.792 854.615 941.432 856.255 941.432 858.278Z" fill="black"/>
<path d="M575.116 828.973C575.116 830.996 573.476 832.636 571.453 832.636C569.43 832.636 567.79 830.996 567.79 828.973C567.79 826.95 569.43 825.31 571.453 825.31C573.476 825.31 575.116 826.95 575.116 828.973Z" fill="black"/>
<path d="M611.748 957.184C611.748 959.207 610.108 960.847 608.085 960.847C606.062 960.847 604.421 959.207 604.421 957.184C604.421 955.161 606.062 953.52 608.085 953.52C610.108 953.52 611.748 955.161 611.748 957.184Z" fill="black"/>
<path d="M597.095 982.826C597.095 984.849 595.455 986.489 593.432 986.489C591.409 986.489 589.769 984.849 589.769 982.826C589.769 980.803 591.409 979.163 593.432 979.163C595.455 979.163 597.095 980.803 597.095 982.826Z" fill="black"/>
<path d="M743.621 909.563C743.621 911.586 741.981 913.226 739.958 913.226C737.935 913.226 736.295 911.586 736.295 909.563C736.295 907.539 737.935 905.899 739.958 905.899C741.981 905.899 743.621 907.539 743.621 909.563Z" fill="black"/>
<path d="M787.579 916.889C787.579 918.912 785.939 920.552 783.916 920.552C781.893 920.552 780.253 918.912 780.253 916.889C780.253 914.866 781.893 913.226 783.916 913.226C785.939 913.226 787.579 914.866 787.579 916.889Z" fill="black"/>
<path d="M736.295 1026.78C736.295 1028.81 734.655 1030.45 732.632 1030.45C730.609 1030.45 728.969 1028.81 728.969 1026.78C728.969 1024.76 730.609 1023.12 732.632 1023.12C734.655 1023.12 736.295 1024.76 736.295 1026.78Z" fill="black"/>
<path d="M820.548 839.963C820.548 841.986 818.908 843.626 816.885 843.626C814.862 843.626 813.221 841.986 813.221 839.963C813.221 837.939 814.862 836.299 816.885 836.299C818.908 836.299 820.548 837.939 820.548 839.963Z" fill="black"/>
<path d="M820.548 774.026C820.548 776.049 818.908 777.689 816.885 777.689C814.862 777.689 813.221 776.049 813.221 774.026C813.221 772.003 814.862 770.363 816.885 770.363C818.908 770.363 820.548 772.003 820.548 774.026Z" fill="black"/>
<path d="M908.464 828.973C908.464 830.996 906.824 832.636 904.8 832.636C902.777 832.636 901.137 830.996 901.137 828.973C901.137 826.95 902.777 825.31 904.8 825.31C906.824 825.31 908.464 826.95 908.464 828.973Z" fill="black"/>
<path d="M934.106 792.342C934.106 794.365 932.466 796.005 930.443 796.005C928.419 796.005 926.779 794.365 926.779 792.342C926.779 790.318 928.419 788.678 930.443 788.678C932.466 788.678 934.106 790.318 934.106 792.342Z" fill="black"/>
<path d="M608.085 861.942C608.085 863.965 606.445 865.605 604.421 865.605C602.398 865.605 600.758 863.965 600.758 861.942C600.758 859.918 602.398 858.278 604.421 858.278C606.445 858.278 608.085 859.918 608.085 861.942Z" fill="black"/>
<path d="M608.085 902.236C608.085 904.259 606.445 905.899 604.421 905.899C602.398 905.899 600.758 904.259 600.758 902.236C600.758 900.213 602.398 898.573 604.421 898.573C606.445 898.573 608.085 900.213 608.085 902.236Z" fill="black"/>
<path d="M685.011 847.289C685.011 849.312 683.371 850.952 681.348 850.952C679.325 850.952 677.685 849.312 677.685 847.289C677.685 845.266 679.325 843.626 681.348 843.626C683.371 843.626 685.011 845.266 685.011 847.289Z" fill="black"/>
<path d="M685.011 781.352C685.011 783.375 683.371 785.015 681.348 785.015C679.325 785.015 677.685 783.375 677.685 781.352C677.685 779.329 679.325 777.689 681.348 777.689C683.371 777.689 685.011 779.329 685.011 781.352Z" fill="black"/>
<path d="M728.969 832.636C728.969 834.659 727.329 836.299 725.306 836.299C723.283 836.299 721.643 834.659 721.643 832.636C721.643 830.613 723.283 828.973 725.306 828.973C727.329 828.973 728.969 830.613 728.969 832.636Z" fill="black"/>
<path d="M772.927 810.657C772.927 812.68 771.287 814.32 769.264 814.32C767.24 814.32 765.6 812.68 765.6 810.657C765.6 808.634 767.24 806.994 769.264 806.994C771.287 806.994 772.927 808.634 772.927 810.657Z" fill="black"/>
<path d="M820.548 810.657C820.548 812.68 818.908 814.32 816.885 814.32C814.862 814.32 813.221 812.68 813.221 810.657C813.221 808.634 814.862 806.994 816.885 806.994C818.908 806.994 820.548 808.634 820.548 810.657Z" fill="black"/>
<path d="M868.169 810.657C868.169 812.68 866.529 814.32 864.506 814.32C862.483 814.32 860.843 812.68 860.843 810.657C860.843 808.634 862.483 806.994 864.506 806.994C866.529 806.994 868.169 808.634 868.169 810.657Z" fill="black"/>
<path d="M963.411 810.657C963.411 812.68 961.771 814.32 959.748 814.32C957.725 814.32 956.085 812.68 956.085 810.657C956.085 808.634 957.725 806.994 959.748 806.994C961.771 806.994 963.411 808.634 963.411 810.657Z" fill="black"/>
<path d="M677.685 957.184C677.685 959.207 676.045 960.847 674.021 960.847C671.998 960.847 670.358 959.207 670.358 957.184C670.358 955.161 671.998 953.52 674.021 953.52C676.045 953.52 677.685 955.161 677.685 957.184Z" fill="black"/>
<path d="M717.979 935.205C717.979 937.228 716.339 938.868 714.316 938.868C712.293 938.868 710.653 937.228 710.653 935.205C710.653 933.182 712.293 931.542 714.316 931.542C716.339 931.542 717.979 933.182 717.979 935.205Z" fill="black"/>
<path d="M703.327 905.899C703.327 907.923 701.687 909.563 699.664 909.563C697.64 909.563 696 907.923 696 905.899C696 903.876 697.64 902.236 699.664 902.236C701.687 902.236 703.327 903.876 703.327 905.899Z" fill="black"/>
<path d="M791.243 872.931C791.243 874.954 789.602 876.594 787.579 876.594C785.556 876.594 783.916 874.954 783.916 872.931C783.916 870.908 785.556 869.268 787.579 869.268C789.602 869.268 791.243 870.908 791.243 872.931Z" fill="black"/>
<path d="M611.748 806.994C611.748 809.017 610.108 810.657 608.085 810.657C606.062 810.657 604.421 809.017 604.421 806.994C604.421 804.971 606.062 803.331 608.085 803.331C610.108 803.331 611.748 804.971 611.748 806.994Z" fill="black"/>
<path d="M747.285 865.605C747.285 867.628 745.645 869.268 743.621 869.268C741.598 869.268 739.958 867.628 739.958 865.605C739.958 863.582 741.598 861.942 743.621 861.942C745.645 861.942 747.285 863.582 747.285 865.605Z" fill="black"/>
<path d="M747.285 799.668C747.285 801.691 745.645 803.331 743.621 803.331C741.598 803.331 739.958 801.691 739.958 799.668C739.958 797.645 741.598 796.005 743.621 796.005C745.645 796.005 747.285 797.645 747.285 799.668Z" fill="black"/>
<path d="M875.495 850.952C875.495 852.975 873.855 854.615 871.832 854.615C869.809 854.615 868.169 852.975 868.169 850.952C868.169 848.929 869.809 847.289 871.832 847.289C873.855 847.289 875.495 848.929 875.495 850.952Z" fill="black"/>
<path d="M875.495 785.015C875.495 787.038 873.855 788.678 871.832 788.678C869.809 788.678 868.169 787.038 868.169 785.015C868.169 782.992 869.809 781.352 871.832 781.352C873.855 781.352 875.495 782.992 875.495 785.015Z" fill="black"/>
<path d="M901.137 792.342C901.137 794.365 899.497 796.005 897.474 796.005C895.451 796.005 893.811 794.365 893.811 792.342C893.811 790.318 895.451 788.678 897.474 788.678C899.497 788.678 901.137 790.318 901.137 792.342Z" fill="black"/>
<path d="M956.085 759.373C956.085 761.396 954.445 763.036 952.421 763.036C950.398 763.036 948.758 761.396 948.758 759.373C948.758 757.35 950.398 755.71 952.421 755.71C954.445 755.71 956.085 757.35 956.085 759.373Z" fill="black"/>
<path d="M567.79 931.542C567.79 933.565 566.15 935.205 564.127 935.205C562.104 935.205 560.464 933.565 560.464 931.542C560.464 929.518 562.104 927.878 564.127 927.878C566.15 927.878 567.79 929.518 567.79 931.542Z" stroke="black" stroke-width="3.66316"/>
<path d="M758.274 957.184C758.274 959.207 756.634 960.847 754.611 960.847C752.588 960.847 750.948 959.207 750.948 957.184C750.948 955.161 752.588 953.52 754.611 953.52C756.634 953.52 758.274 955.161 758.274 957.184Z" stroke="black" stroke-width="3.66316"/>
<path d="M743.621 982.826C743.621 984.849 741.981 986.489 739.958 986.489C737.935 986.489 736.295 984.849 736.295 982.826C736.295 980.803 737.935 979.163 739.958 979.163C741.981 979.163 743.621 980.803 743.621 982.826Z" stroke="black" stroke-width="3.66316"/>
<path d="M816.885 975.499C816.885 977.523 815.245 979.163 813.221 979.163C811.198 979.163 809.558 977.523 809.558 975.499C809.558 973.476 811.198 971.836 813.221 971.836C815.245 971.836 816.885 973.476 816.885 975.499Z" stroke="black" stroke-width="3.66316"/>
<path d="M820.548 938.868C820.548 940.891 818.908 942.531 816.885 942.531C814.862 942.531 813.221 940.891 813.221 938.868C813.221 936.845 814.862 935.205 816.885 935.205C818.908 935.205 820.548 936.845 820.548 938.868Z" stroke="black" stroke-width="3.66316"/>
<path d="M893.811 957.184C893.811 959.207 892.171 960.847 890.148 960.847C888.125 960.847 886.485 959.207 886.485 957.184C886.485 955.161 888.125 953.52 890.148 953.52C892.171 953.52 893.811 955.161 893.811 957.184Z" stroke="black" stroke-width="3.66316"/>
<path d="M930.443 905.899C930.443 907.923 928.802 909.563 926.779 909.563C924.756 909.563 923.116 907.923 923.116 905.899C923.116 903.876 924.756 902.236 926.779 902.236C928.802 902.236 930.443 903.876 930.443 905.899Z" stroke="black" stroke-width="3.66316"/>
<path d="M531.158 854.615C531.158 856.638 529.518 858.278 527.495 858.278C525.472 858.278 523.832 856.638 523.832 854.615C523.832 852.592 525.472 850.952 527.495 850.952C529.518 850.952 531.158 852.592 531.158 854.615Z" stroke="black" stroke-width="3.66316"/>
<path d="M652.043 913.226C652.043 915.249 650.402 916.889 648.379 916.889C646.356 916.889 644.716 915.249 644.716 913.226C644.716 911.203 646.356 909.563 648.379 909.563C650.402 909.563 652.043 911.203 652.043 913.226Z" stroke="black" stroke-width="3.66316"/>
<path d="M641.053 986.489C641.053 988.512 639.413 990.152 637.39 990.152C635.367 990.152 633.727 988.512 633.727 986.489C633.727 984.466 635.367 982.826 637.39 982.826C639.413 982.826 641.053 984.466 641.053 986.489Z" stroke="black" stroke-width="3.66316"/>
<path d="M706.99 1001.14C706.99 1003.16 705.35 1004.8 703.327 1004.8C701.304 1004.8 699.664 1003.16 699.664 1001.14C699.664 999.118 701.304 997.478 703.327 997.478C705.35 997.478 706.99 999.118 706.99 1001.14Z" stroke="black" stroke-width="3.66316"/>
<path d="M831.537 905.899C831.537 907.923 829.897 909.563 827.874 909.563C825.851 909.563 824.211 907.923 824.211 905.899C824.211 903.876 825.851 902.236 827.874 902.236C829.897 902.236 831.537 903.876 831.537 905.899Z" stroke="black" stroke-width="3.66316"/>
<path d="M882.821 920.552C882.821 922.575 881.181 924.215 879.158 924.215C877.135 924.215 875.495 922.575 875.495 920.552C875.495 918.529 877.135 916.889 879.158 916.889C881.181 916.889 882.821 918.529 882.821 920.552Z" stroke="black" stroke-width="3.66316"/>
<path d="M853.516 982.826C853.516 984.849 851.876 986.489 849.853 986.489C847.83 986.489 846.19 984.849 846.19 982.826C846.19 980.803 847.83 979.163 849.853 979.163C851.876 979.163 853.516 980.803 853.516 982.826Z" stroke="black" stroke-width="3.66316"/>
<path d="M904.8 869.268C904.8 871.291 903.16 872.931 901.137 872.931C899.114 872.931 897.474 871.291 897.474 869.268C897.474 867.245 899.114 865.605 901.137 865.605C903.16 865.605 904.8 867.245 904.8 869.268Z" stroke="black" stroke-width="3.66316"/>
<path d="M564.127 876.594C564.127 878.617 562.487 880.257 560.464 880.257C558.44 880.257 556.8 878.617 556.8 876.594C556.8 874.571 558.44 872.931 560.464 872.931C562.487 872.931 564.127 874.571 564.127 876.594Z" stroke="black" stroke-width="3.66316"/>
<path d="M652.043 876.594C652.043 878.617 650.402 880.257 648.379 880.257C646.356 880.257 644.716 878.617 644.716 876.594C644.716 874.571 646.356 872.931 648.379 872.931C650.402 872.931 652.043 874.571 652.043 876.594Z" stroke="black" stroke-width="3.66316"/>
<path d="M652.043 810.657C652.043 812.68 650.402 814.32 648.379 814.32C646.356 814.32 644.716 812.68 644.716 810.657C644.716 808.634 646.356 806.994 648.379 806.994C650.402 806.994 652.043 808.634 652.043 810.657Z" stroke="black" stroke-width="3.66316"/>
<path d="M666.695 1008.47C666.695 1010.49 665.055 1012.13 663.032 1012.13C661.009 1012.13 659.369 1010.49 659.369 1008.47C659.369 1006.44 661.009 1004.8 663.032 1004.8C665.055 1004.8 666.695 1006.44 666.695 1008.47Z" stroke="black" stroke-width="3.66316"/>
<path d="M765.6 1008.47C765.6 1010.49 763.96 1012.13 761.937 1012.13C759.914 1012.13 758.274 1010.49 758.274 1008.47C758.274 1006.44 759.914 1004.8 761.937 1004.8C763.96 1004.8 765.6 1006.44 765.6 1008.47Z" stroke="black" stroke-width="3.66316"/>
<path d="M805.895 1008.47C805.895 1010.49 804.255 1012.13 802.232 1012.13C800.209 1012.13 798.569 1010.49 798.569 1008.47C798.569 1006.44 800.209 1004.8 802.232 1004.8C804.255 1004.8 805.895 1006.44 805.895 1008.47Z" stroke="black" stroke-width="3.66316"/>
<path d="M868.169 876.594C868.169 878.617 866.529 880.257 864.506 880.257C862.483 880.257 860.843 878.617 860.843 876.594C860.843 874.571 862.483 872.931 864.506 872.931C866.529 872.931 868.169 874.571 868.169 876.594Z" stroke="black" stroke-width="3.66316"/>
<path d="M868.169 810.657C868.169 812.68 866.529 814.32 864.506 814.32C862.483 814.32 860.843 812.68 860.843 810.657C860.843 808.634 862.483 806.994 864.506 806.994C866.529 806.994 868.169 808.634 868.169 810.657Z" stroke="black" stroke-width="3.66316"/>
<path d="M941.432 858.278C941.432 860.301 939.792 861.942 937.769 861.942C935.746 861.942 934.106 860.301 934.106 858.278C934.106 856.255 935.746 854.615 937.769 854.615C939.792 854.615 941.432 856.255 941.432 858.278Z" stroke="black" stroke-width="3.66316"/>
<path d="M575.116 828.973C575.116 830.996 573.476 832.636 571.453 832.636C569.43 832.636 567.79 830.996 567.79 828.973C567.79 826.95 569.43 825.31 571.453 825.31C573.476 825.31 575.116 826.95 575.116 828.973Z" stroke="black" stroke-width="3.66316"/>
<path d="M611.748 957.184C611.748 959.207 610.108 960.847 608.085 960.847C606.062 960.847 604.421 959.207 604.421 957.184C604.421 955.161 606.062 953.52 608.085 953.52C610.108 953.52 611.748 955.161 611.748 957.184Z" stroke="black" stroke-width="3.66316"/>
<path d="M597.095 982.826C597.095 984.849 595.455 986.489 593.432 986.489C591.409 986.489 589.769 984.849 589.769 982.826C589.769 980.803 591.409 979.163 593.432 979.163C595.455 979.163 597.095 980.803 597.095 982.826Z" stroke="black" stroke-width="3.66316"/>
<path d="M743.621 909.563C743.621 911.586 741.981 913.226 739.958 913.226C737.935 913.226 736.295 911.586 736.295 909.563C736.295 907.539 737.935 905.899 739.958 905.899C741.981 905.899 743.621 907.539 743.621 909.563Z" stroke="black" stroke-width="3.66316"/>
<path d="M787.579 916.889C787.579 918.912 785.939 920.552 783.916 920.552C781.893 920.552 780.253 918.912 780.253 916.889C780.253 914.866 781.893 913.226 783.916 913.226C785.939 913.226 787.579 914.866 787.579 916.889Z" stroke="black" stroke-width="3.66316"/>
<path d="M736.295 1026.78C736.295 1028.81 734.655 1030.45 732.632 1030.45C730.609 1030.45 728.969 1028.81 728.969 1026.78C728.969 1024.76 730.609 1023.12 732.632 1023.12C734.655 1023.12 736.295 1024.76 736.295 1026.78Z" stroke="black" stroke-width="3.66316"/>
<path d="M820.548 839.963C820.548 841.986 818.908 843.626 816.885 843.626C814.862 843.626 813.221 841.986 813.221 839.963C813.221 837.939 814.862 836.299 816.885 836.299C818.908 836.299 820.548 837.939 820.548 839.963Z" stroke="black" stroke-width="3.66316"/>
<path d="M820.548 774.026C820.548 776.049 818.908 777.689 816.885 777.689C814.862 777.689 813.221 776.049 813.221 774.026C813.221 772.003 814.862 770.363 816.885 770.363C818.908 770.363 820.548 772.003 820.548 774.026Z" stroke="black" stroke-width="3.66316"/>
<path d="M908.464 828.973C908.464 830.996 906.824 832.636 904.8 832.636C902.777 832.636 901.137 830.996 901.137 828.973C901.137 826.95 902.777 825.31 904.8 825.31C906.824 825.31 908.464 826.95 908.464 828.973Z" stroke="black" stroke-width="3.66316"/>
<path d="M934.106 792.342C934.106 794.365 932.466 796.005 930.443 796.005C928.419 796.005 926.779 794.365 926.779 792.342C926.779 790.318 928.419 788.678 930.443 788.678C932.466 788.678 934.106 790.318 934.106 792.342Z" stroke="black" stroke-width="3.66316"/>
<path d="M608.085 861.942C608.085 863.965 606.445 865.605 604.421 865.605C602.398 865.605 600.758 863.965 600.758 861.942C600.758 859.918 602.398 858.278 604.421 858.278C606.445 858.278 608.085 859.918 608.085 861.942Z" stroke="black" stroke-width="3.66316"/>
<path d="M608.085 902.236C608.085 904.259 606.445 905.899 604.421 905.899C602.398 905.899 600.758 904.259 600.758 902.236C600.758 900.213 602.398 898.573 604.421 898.573C606.445 898.573 608.085 900.213 608.085 902.236Z" stroke="black" stroke-width="3.66316"/>
<path d="M685.011 847.289C685.011 849.312 683.371 850.952 681.348 850.952C679.325 850.952 677.685 849.312 677.685 847.289C677.685 845.266 679.325 843.626 681.348 843.626C683.371 843.626 685.011 845.266 685.011 847.289Z" stroke="black" stroke-width="3.66316"/>
<path d="M685.011 781.352C685.011 783.375 683.371 785.015 681.348 785.015C679.325 785.015 677.685 783.375 677.685 781.352C677.685 779.329 679.325 777.689 681.348 777.689C683.371 777.689 685.011 779.329 685.011 781.352Z" stroke="black" stroke-width="3.66316"/>
<path d="M728.969 832.636C728.969 834.659 727.329 836.299 725.306 836.299C723.283 836.299 721.643 834.659 721.643 832.636C721.643 830.613 723.283 828.973 725.306 828.973C727.329 828.973 728.969 830.613 728.969 832.636Z" stroke="black" stroke-width="3.66316"/>
<path d="M772.927 810.657C772.927 812.68 771.287 814.32 769.264 814.32C767.24 814.32 765.6 812.68 765.6 810.657C765.6 808.634 767.24 806.994 769.264 806.994C771.287 806.994 772.927 808.634 772.927 810.657Z" stroke="black" stroke-width="3.66316"/>
<path d="M820.548 810.657C820.548 812.68 818.908 814.32 816.885 814.32C814.862 814.32 813.221 812.68 813.221 810.657C813.221 808.634 814.862 806.994 816.885 806.994C818.908 806.994 820.548 808.634 820.548 810.657Z" stroke="black" stroke-width="3.66316"/>
<path d="M868.169 810.657C868.169 812.68 866.529 814.32 864.506 814.32C862.483 814.32 860.843 812.68 860.843 810.657C860.843 808.634 862.483 806.994 864.506 806.994C866.529 806.994 868.169 808.634 868.169 810.657Z" stroke="black" stroke-width="3.66316"/>
<path d="M963.411 810.657C963.411 812.68 961.771 814.32 959.748 814.32C957.725 814.32 956.085 812.68 956.085 810.657C956.085 808.634 957.725 806.994 959.748 806.994C961.771 806.994 963.411 808.634 963.411 810.657Z" stroke="black" stroke-width="3.66316"/>
<path d="M677.685 957.184C677.685 959.207 676.045 960.847 674.021 960.847C671.998 960.847 670.358 959.207 670.358 957.184C670.358 955.161 671.998 953.52 674.021 953.52C676.045 953.52 677.685 955.161 677.685 957.184Z" stroke="black" stroke-width="3.66316"/>
<path d="M717.979 935.205C717.979 937.228 716.339 938.868 714.316 938.868C712.293 938.868 710.653 937.228 710.653 935.205C710.653 933.182 712.293 931.542 714.316 931.542C716.339 931.542 717.979 933.182 717.979 935.205Z" stroke="black" stroke-width="3.66316"/>
<path d="M703.327 905.899C703.327 907.923 701.687 909.563 699.664 909.563C697.64 909.563 696 907.923 696 905.899C696 903.876 697.64 902.236 699.664 902.236C701.687 902.236 703.327 903.876 703.327 905.899Z" stroke="black" stroke-width="3.66316"/>
<path d="M791.243 872.931C791.243 874.954 789.602 876.594 787.579 876.594C785.556 876.594 783.916 874.954 783.916 872.931C783.916 870.908 785.556 869.268 787.579 869.268C789.602 869.268 791.243 870.908 791.243 872.931Z" stroke="black" stroke-width="3.66316"/>
<path d="M611.748 806.994C611.748 809.017 610.108 810.657 608.085 810.657C606.062 810.657 604.421 809.017 604.421 806.994C604.421 804.971 606.062 803.331 608.085 803.331C610.108 803.331 611.748 804.971 611.748 806.994Z" stroke="black" stroke-width="3.66316"/>
<path d="M747.285 865.605C747.285 867.628 745.645 869.268 743.621 869.268C741.598 869.268 739.958 867.628 739.958 865.605C739.958 863.582 741.598 861.942 743.621 861.942C745.645 861.942 747.285 863.582 747.285 865.605Z" stroke="black" stroke-width="3.66316"/>
<path d="M747.285 799.668C747.285 801.691 745.645 803.331 743.621 803.331C741.598 803.331 739.958 801.691 739.958 799.668C739.958 797.645 741.598 796.005 743.621 796.005C745.645 796.005 747.285 797.645 747.285 799.668Z" stroke="black" stroke-width="3.66316"/>
<path d="M875.495 850.952C875.495 852.975 873.855 854.615 871.832 854.615C869.809 854.615 868.169 852.975 868.169 850.952C868.169 848.929 869.809 847.289 871.832 847.289C873.855 847.289 875.495 848.929 875.495 850.952Z" stroke="black" stroke-width="3.66316"/>
<path d="M875.495 785.015C875.495 787.038 873.855 788.678 871.832 788.678C869.809 788.678 868.169 787.038 868.169 785.015C868.169 782.992 869.809 781.352 871.832 781.352C873.855 781.352 875.495 782.992 875.495 785.015Z" stroke="black" stroke-width="3.66316"/>
<path d="M901.137 792.342C901.137 794.365 899.497 796.005 897.474 796.005C895.451 796.005 893.811 794.365 893.811 792.342C893.811 790.318 895.451 788.678 897.474 788.678C899.497 788.678 901.137 790.318 901.137 792.342Z" stroke="black" stroke-width="3.66316"/>
<path d="M956.085 759.373C956.085 761.396 954.445 763.036 952.421 763.036C950.398 763.036 948.758 761.396 948.758 759.373C948.758 757.35 950.398 755.71 952.421 755.71C954.445 755.71 956.085 757.35 956.085 759.373Z" stroke="black" stroke-width="3.66316"/>
</g>
<rect x="634.636" y="807.619" width="256.421" height="87.9158" rx="14.6526" transform="rotate(-4 634.636 807.619)" fill="black"/>
<path fill-rule="evenodd" clip-rule="evenodd" d="M867.515 791.335L657.554 806.017L664.294 831.675C666.971 841.866 676.503 848.72 687.01 848.021C676.508 848.791 668.023 856.905 666.79 867.37L663.686 893.718L873.648 879.036L866.908 853.376C864.23 843.184 854.697 836.33 844.189 837.03C854.692 836.261 863.179 828.147 864.412 817.681L867.515 791.335Z" fill="white"/>
<path d="M652.289 801.666C638.895 800.702 627.584 811.794 628.528 825.296L632.26 878.667C633.204 892.169 645.949 901.578 659.079 898.76C684.515 893.299 733.153 883.615 768.302 881.157C803.451 878.699 852.963 881.52 878.912 883.387C892.306 884.351 903.618 873.26 902.673 859.758L898.941 806.387C897.997 792.885 885.252 783.475 872.123 786.294C846.686 791.754 798.048 801.438 762.899 803.896C727.75 806.354 678.238 803.533 652.289 801.666Z" stroke="black" stroke-width="14.6526"/>
<path d="M538.484 543.98C561.074 553.138 615.777 554.97 653.874 489.033" stroke="black" stroke-width="14.6526" stroke-linecap="round"/>
<path d="M783.916 461.559C802.842 481.096 850.219 508.448 888.316 461.559" stroke="black" stroke-width="14.6526" stroke-linecap="round"/>
<path d="M728.969 318.694C782.696 316.252 876.961 286.458 824.211 186.82" stroke="black" stroke-width="14.6526"/>
<path d="M633.727 311.368C687.453 308.926 781.719 279.132 728.969 179.494" stroke="black" stroke-width="14.6526"/>
<path d="M501.853 351.662C555.58 349.22 649.845 319.426 597.096 219.789" stroke="black" stroke-width="14.6526"/>
<ellipse cx="617.352" cy="616.888" rx="32.9684" ry="49.4526" transform="rotate(-6.77646 617.352 616.888)" fill="black"/>
<ellipse cx="851.794" cy="580.255" rx="32.9684" ry="49.4526" transform="rotate(-6.27568 851.794 580.255)" fill="black"/>
<path d="M527.563 618.025L406.61 639.561" stroke="black" stroke-width="14.6526" stroke-linecap="round"/>
<path d="M514.802 567.75C511.356 555.042 519.758 542.408 532.783 540.71L665.543 523.411C677.58 521.842 688.812 530.3 690.631 542.301L709.172 664.617C710.991 676.618 702.708 687.619 690.671 689.187L572.045 704.645C560.973 706.088 550.406 699.025 547.477 688.223L514.802 567.75Z" stroke="black" stroke-width="14.6526"/>
<path d="M941.941 512.762C941.476 499.666 929.644 489.668 916.619 491.365L783.859 508.665C771.822 510.233 763.539 521.234 765.358 533.236L783.898 655.551C785.717 667.552 796.95 676.01 808.987 674.441L927.612 658.984C938.684 657.541 946.742 648.051 946.347 636.919L941.941 512.762Z" stroke="black" stroke-width="14.6526"/>
<path d="M699.352 600.553L776.482 589.176" stroke="black" stroke-width="14.6526"/>
<path d="M744.446 619.106C751.583 669.891 782.584 706.225 782.584 706.225C782.584 706.225 772.947 729.774 735.652 727.617" stroke="black" stroke-width="14.6526"/>
<path d="M456.064 660.012C447.528 657.201 438.315 655.706 428.883 655.706C390.444 655.706 359.283 679.516 362.946 723.474C366.762 769.263 394.107 785.748 432.546 785.748C436.823 785.748 441.01 785.372 445.074 784.653C449.509 783.868 453.796 782.674 457.895 781.113" stroke="black" stroke-width="29.3053"/>
<path d="M459.727 780.385C451.376 783.838 442.19 785.748 432.546 785.748C394.107 785.748 366.762 769.263 362.946 723.474C359.283 679.516 390.444 655.706 428.883 655.706C440.376 655.706 451.546 657.927 461.558 662.041L459.727 780.385Z" fill="#F9C9B6"/>
<path d="M445.074 686.844C430.421 680.128 398.186 676.587 386.464 716.149" stroke="black" stroke-width="14.6526"/>
<path d="M406.611 688.674C414.548 695.39 429.689 716.148 426.758 745.453" stroke="black" stroke-width="14.6526"/>
<path d="M840.886 1210.49L841.399 1210.61L841.924 1210.65C1010.89 1224.59 1112.21 1299.64 1185.74 1402.99H184.529C244.238 1295.51 329.163 1227.09 466.849 1195.7C525.508 1182.33 593.844 1175.66 674.02 1175.66C708.658 1175.66 735.612 1180.94 761.19 1187.91C770.665 1190.49 780.189 1193.39 789.932 1196.35C806.059 1201.25 822.786 1206.33 840.886 1210.49Z" fill="#F4D150" stroke="black" stroke-width="14.6526"/>
<path d="M424.668 1203.65L458.198 1131.86C458.998 1130.15 460.989 1129.33 462.773 1129.96C601.703 1179.14 728.092 1175.68 845.219 1143.07C846.693 1142.66 848.268 1143.2 849.172 1144.44L900.208 1214.23C901.611 1216.15 900.896 1218.86 898.684 1219.72C775.575 1268.06 544.572 1259.85 426.444 1208.49C424.57 1207.68 423.803 1205.5 424.668 1203.65Z" fill="white" stroke="black" stroke-width="14.6526"/>
</g>
<defs>
<clipPath id="clip0">
<rect width="732.632" height="1172.21" fill="white" transform="translate(329.685 157.517)"/>
</clipPath>
</defs>
</svg>
