<svg width="663" height="721" fill="none" xmlns="http://www.w3.org/2000/svg">
<path fill-rule="evenodd" clip-rule="evenodd" d="M663 -1L596.7 23.0667C530.4 47.1333 397.8 95.2667 375.7 143.4C353.6 191.533 442 239.667 497.25 287.8C552.5 335.933 574.6 384.067 530.4 432.2C486.2 480.333 375.7 528.467 276.25 576.6C176.8 624.733 88.4 672.867 44.2 696.933L0 721L0 696.933C0 672.867 0 624.733 0 576.6C0 528.467 0 480.333 0 432.2C0 384.067 0 335.933 0 287.8C0 239.667 0 191.533 0 143.4C0 95.2667 0 47.1333 0 23.0667L0 -1L663 -1Z" fill="#F7F7F7"/>
</svg>
