<svg width="727" height="448" viewBox="0 0 727 448" fill="none" xmlns="http://www.w3.org/2000/svg">
<g id="groupSvg">
<g id="laptopBottom">
<path id="path26" d="M350.593 447.431C202.409 447.431 82.2822 431.883 82.2822 412.702C82.2822 411.082 83.1396 409.487 84.799 407.926C85.8465 409.46 86.9093 411.037 87.9883 412.67C88.1654 412.94 122.202 413.639 173.053 414.301L166.701 418.027C165.703 418.106 164.93 418.695 164.929 419.408L164.925 427.194C164.924 429.923 168.11 432.136 172.041 432.137L534.337 432.316C534.339 432.316 534.341 432.316 534.343 432.316C538.443 432.316 541.767 430.011 541.768 427.164L541.773 419.595C541.773 419.094 541.391 418.654 540.819 418.408H541.774L541.148 418.034H541.425L535.163 414.293C574.494 413.346 604.499 411.857 617.865 409.623C618.553 410.638 618.904 411.664 618.904 412.702C618.904 431.883 498.779 447.431 350.593 447.431Z" fill="#7380C8"/>
<path id="path28" d="M173.053 414.301C122.202 413.639 88.1654 412.94 87.9883 412.67C86.9093 411.037 85.8465 409.46 84.799 407.926C88.2198 404.706 95.0516 401.627 104.803 398.751C113.959 398.969 149.944 399.19 198.475 399.387L173.053 414.301ZM535.163 414.293L511.297 400.036C558.602 400.033 590.4 399.942 590.551 399.728C591.058 399.005 591.558 398.275 592.048 397.538C605.972 401.246 614.947 405.322 617.865 409.623C604.499 411.857 574.494 413.346 535.163 414.293Z" fill="#727EC7"/>
<path id="path30" d="M511.297 400.036L502.724 394.915L502.73 384.09C540.76 387.485 571.693 392.118 592.048 397.538C591.558 398.275 591.058 399.004 590.551 399.728C590.4 399.942 558.602 400.033 511.297 400.036V400.036ZM198.475 399.387C149.943 399.19 113.959 398.969 104.803 398.751C125.89 392.535 160.64 387.272 204.132 383.597L204.127 395.982H204.279L198.475 399.387" fill="#6F7DC7"/>
</g>
<g id="extras">
<path id="path18" d="M668.829 341.23C667.686 341.23 666.561 341.073 665.467 340.735C655.074 337.526 659.546 321.081 657.337 310.437C654.985 299.098 662.991 294.732 671.537 294.732C674.18 294.732 676.874 295.15 679.328 295.908C689.72 299.119 695.541 310.139 692.33 320.526C689.457 329.818 678.539 341.23 668.829 341.23" fill="#F9FBFD"/>
<path id="path20" d="M649.685 77.3242C646.445 74.4843 642.199 72.7619 637.55 72.7619H627.841C627.761 72.1494 627.236 71.6759 626.599 71.6759H618.589C617.955 71.6759 617.43 72.1494 617.349 72.7619H611.362C601.602 64.7603 594.07 52.9001 597.158 42.9121C601.702 28.2131 624.99 34.538 640.063 31.4147C641.995 31.0139 643.788 30.826 645.441 30.826C661.768 30.826 664.764 49.1697 660.637 62.5166C658.695 68.797 654.733 73.8968 649.685 77.3242" fill="#F9FBFD"/>
<path id="path32" d="M693.001 258.468C690.3 258.468 688.111 256.279 688.111 253.581C688.111 250.882 690.3 248.694 693.001 248.694C695.701 248.694 697.891 250.882 697.891 253.581C697.891 256.279 695.701 258.468 693.001 258.468Z" fill="#8F8ECB"/>
<path id="path34" d="M324.621 9.77393C321.92 9.77393 319.731 7.58672 319.731 4.88692C319.731 2.18713 321.92 -7.60555e-05 324.621 -7.60555e-05C327.321 -7.60555e-05 329.511 2.18713 329.511 4.88692C329.511 7.58672 327.321 9.77393 324.621 9.77393Z" fill="#8F8ECB"/>
<path id="path36" d="M658.228 393.131C656.127 393.131 654.424 391.43 654.424 389.33C654.424 387.231 656.127 385.529 658.228 385.529C660.328 385.529 662.031 387.231 662.031 389.33C662.031 391.43 660.328 393.131 658.228 393.131Z" fill="#F7B4C7"/>
<path id="path38" d="M68.1675 89.0518C65.4671 89.0518 63.2775 86.8635 63.2775 84.1648C63.2775 81.466 65.4671 79.2778 68.1675 79.2778C70.8678 79.2778 73.0575 81.466 73.0575 84.1648C73.0575 86.8635 70.8678 89.0518 68.1675 89.0518Z" fill="#F7B4C7"/>
<path id="path40" d="M31.2208 271.5C29.1201 271.5 27.4175 269.798 27.4175 267.698C27.4175 265.599 29.1201 263.897 31.2208 263.897C33.3216 263.897 35.0241 265.599 35.0241 267.698C35.0241 269.798 33.3216 271.5 31.2208 271.5Z" fill="#8F8ECB"/>
<path id="path42" d="M36.6542 109.686C35.7539 109.686 35.0242 108.957 35.0242 108.057C35.0242 107.157 35.7539 106.428 36.6542 106.428C37.5545 106.428 38.2842 107.157 38.2842 108.057C38.2842 108.957 37.5545 109.686 36.6542 109.686Z" fill="#8F8ECB"/>
<path id="path44" d="M450.326 21.1694C449.92 21.1694 449.507 21.1271 449.094 21.0391C445.922 20.3625 443.901 17.2435 444.578 14.0735C445.166 11.3172 447.603 9.42976 450.314 9.42976C450.721 9.42976 451.133 9.47209 451.547 9.56005C454.719 10.2377 456.74 13.3556 456.063 16.5257C455.474 19.2819 453.037 21.1694 450.326 21.1694Z" fill="#F7B4C7"/>
<path id="path46" d="M5.87902 303.529C5.47282 303.529 5.06021 303.486 4.64673 303.398C1.47552 302.721 -0.54677 299.603 0.130766 296.433C0.719848 293.678 3.15594 291.789 5.86717 291.789C6.2738 291.789 6.6864 291.831 7.09977 291.921C10.2711 292.597 12.2933 295.715 11.6163 298.885C11.0271 301.641 8.59057 303.529 5.87902 303.529" fill="#F7B4C7"/>
<path id="path48" d="M402.971 53.7058C402.836 53.7058 402.698 53.6906 402.561 53.6613C401.504 53.4354 400.83 52.3972 401.055 51.3405C401.251 50.4218 402.063 49.793 402.966 49.793C403.102 49.793 403.24 49.806 403.378 49.8364C404.435 50.0612 405.109 51.1005 404.883 52.1572C404.686 53.076 403.875 53.7058 402.971 53.7058Z" fill="#8F8ECB"/>
</g>
<g id="chat2">
<path id="path50" d="M90.1975 60.0762C89.189 60.0762 88.2099 59.6776 87.4504 58.9185L78.631 50.1045C78.3006 49.7755 77.8616 49.593 77.3954 49.593H66.5451C63.5448 49.593 61.1041 47.1539 61.1041 44.1565V23.8993C61.1041 20.9009 63.5448 18.4618 66.5451 18.4618H101.303C104.303 18.4618 106.744 20.9009 106.744 23.8993V44.1565C106.744 47.1539 104.303 49.593 101.303 49.593H95.8938C94.9299 49.593 94.1453 50.3782 94.1453 51.3415V56.147C94.1453 57.7619 93.2173 59.1498 91.7242 59.7678C91.2233 59.9752 90.7071 60.0762 90.1975 60.0762V60.0762ZM66.5451 20.6338C64.7434 20.6338 63.2775 22.0987 63.2775 23.8993V44.1565C63.2775 45.9571 64.7434 47.421 66.5451 47.421H77.3954C78.4419 47.421 79.4275 47.8294 80.1686 48.5689L88.9869 57.3829C89.3292 57.725 89.7574 57.9031 90.2029 57.9031C90.4311 57.9031 90.6636 57.8564 90.8929 57.7608C91.5688 57.4817 91.972 56.8779 91.972 56.147V51.3415C91.972 49.1803 93.7313 47.421 95.8938 47.421H101.303C103.105 47.421 104.571 45.9571 104.571 44.1565V23.8993C104.571 22.0987 103.105 20.6338 101.303 20.6338H66.5451" fill="#F9FBFD"/>
<path id="path52" d="M73.6008 37.4668C71.8035 37.4668 70.3408 36.005 70.3408 34.2088C70.3408 32.4126 71.8035 30.9508 73.6008 30.9508C75.3982 30.9508 76.8608 32.4126 76.8608 34.2088C76.8608 36.005 75.3982 37.4668 73.6008 37.4668ZM73.6008 32.0368C72.4022 32.0368 71.4275 33.0109 71.4275 34.2088C71.4275 35.4067 72.4022 36.3808 73.6008 36.3808C74.7994 36.3808 75.7742 35.4067 75.7742 34.2088C75.7742 33.0109 74.7994 32.0368 73.6008 32.0368Z" fill="#F9FBFD"/>
<path id="path54" d="M83.9242 38.0098C82.1268 38.0098 80.6642 36.548 80.6642 34.7518C80.6642 32.9555 82.1268 31.4938 83.9242 31.4938C85.7215 31.4938 87.1842 32.9555 87.1842 34.7518C87.1842 36.548 85.7215 38.0098 83.9242 38.0098ZM83.9242 32.5798C82.7256 32.5798 81.7509 33.5539 81.7509 34.7518C81.7509 35.9496 82.7256 36.9238 83.9242 36.9238C85.1228 36.9238 86.0975 35.9496 86.0975 34.7518C86.0975 33.5539 85.1228 32.5798 83.9242 32.5798Z" fill="#F9FBFD"/>
<path id="path56" d="M93.7042 38.0098C91.9069 38.0098 90.4442 36.548 90.4442 34.7518C90.4442 32.9555 91.9069 31.4938 93.7042 31.4938C95.5016 31.4938 96.9642 32.9555 96.9642 34.7518C96.9642 36.548 95.5016 38.0098 93.7042 38.0098ZM93.7042 32.5798C92.5056 32.5798 91.5309 33.5539 91.5309 34.7518C91.5309 35.9496 92.5056 36.9238 93.7042 36.9238C94.9028 36.9238 95.8775 35.9496 95.8775 34.7518C95.8775 33.5539 94.9028 32.5798 93.7042 32.5798Z" fill="#F9FBFD"/>
</g>
<g id="chat1">
<path id="path58" d="M572.594 337.177C571.264 337.177 570.183 338.258 570.183 339.587V354.538C570.183 355.868 571.264 356.949 572.594 356.949H576.586C578.183 356.949 579.481 358.247 579.481 359.842V363.388C579.481 363.928 579.779 364.374 580.278 364.58C580.776 364.787 581.302 364.683 581.685 364.3L588.193 357.796C588.741 357.25 589.468 356.949 590.24 356.949H598.248C599.578 356.949 600.659 355.868 600.659 354.538V339.587C600.659 338.258 599.578 337.177 598.248 337.177H572.594ZM579.664 366.061C578.562 365.604 577.877 364.581 577.877 363.388V359.842C577.877 359.13 577.297 358.551 576.586 358.551H572.594C570.379 358.551 568.578 356.751 568.578 354.538V339.587C568.578 337.374 570.379 335.573 572.594 335.573H598.248C600.463 335.573 602.264 337.374 602.264 339.587V354.538C602.264 356.751 600.463 358.551 598.248 358.551H590.24C589.895 358.551 589.571 358.685 589.327 358.93L582.818 365.434C582.258 365.995 581.535 366.289 580.789 366.289C580.415 366.289 580.033 366.215 579.664 366.061" fill="white"/>
<path id="path60" d="M591.437 347.196C591.437 348.081 592.156 348.8 593.041 348.8C593.925 348.8 594.644 348.081 594.644 347.196C594.644 346.313 593.925 345.594 593.041 345.594C592.156 345.594 591.437 346.313 591.437 347.196ZM590.635 347.196C590.635 345.87 591.714 344.791 593.041 344.791C594.367 344.791 595.448 345.87 595.448 347.196C595.448 348.523 594.367 349.601 593.041 349.601C591.714 349.601 590.635 348.523 590.635 347.196Z" fill="white"/>
<path id="path62" d="M583.816 347.596C583.816 348.482 584.536 349.2 585.421 349.2C586.305 349.2 587.026 348.482 587.026 347.596C587.026 346.712 586.305 345.995 585.421 345.995C584.536 345.995 583.816 346.712 583.816 347.596ZM583.015 347.596C583.015 346.272 584.094 345.192 585.421 345.192C586.748 345.192 587.827 346.272 587.827 347.596C587.827 348.922 586.748 350.002 585.421 350.002C584.094 350.002 583.015 348.922 583.015 347.596Z" fill="white"/>
<path id="path64" d="M576.598 347.596C576.598 348.482 577.318 349.2 578.202 349.2C579.087 349.2 579.806 348.482 579.806 347.596C579.806 346.712 579.087 345.995 578.202 345.995C577.318 345.995 576.598 346.712 576.598 347.596ZM575.796 347.596C575.796 346.272 576.875 345.192 578.202 345.192C579.529 345.192 580.608 346.272 580.608 347.596C580.608 348.922 579.529 350.002 578.202 350.002C576.875 350.002 575.796 348.922 575.796 347.596Z" fill="white"/>
</g>
<g id="camera2">
<path id="path66" d="M111.386 279.522C109.726 279.522 108.374 280.873 108.374 282.532V304.932C108.374 306.591 109.726 307.942 111.386 307.942H141.92C143.58 307.942 144.932 306.591 144.932 304.932V282.532C144.932 280.873 143.58 279.522 141.92 279.522H111.386ZM141.92 309.028H111.386C109.126 309.028 107.287 307.191 107.287 304.932V282.532C107.287 280.273 109.126 278.436 111.386 278.436H141.92C144.18 278.436 146.018 280.273 146.018 282.532V304.932C146.018 307.191 144.18 309.028 141.92 309.028" fill="white"/>
<path id="path68" d="M145.935 299.563H145.936H145.935ZM146.019 299.585L156.046 302.256L156.004 285.218L146.019 287.879V299.585ZM156.142 302.283H156.153H156.142ZM156.116 303.366L155.86 303.332L145.658 300.613C145.231 300.5 144.932 300.112 144.932 299.668V287.795C144.932 287.354 145.23 286.965 145.657 286.851L155.86 284.132C156.158 284.054 156.466 284.116 156.708 284.301C156.951 284.488 157.091 284.77 157.091 285.076V302.387C157.091 302.695 156.95 302.977 156.707 303.163C156.534 303.295 156.327 303.366 156.116 303.366" fill="white"/>
<path id="path70" d="M120.01 279.272C119.709 279.272 119.467 279.03 119.467 278.729V276.386H113.172V278.729C113.172 279.03 112.928 279.272 112.629 279.272C112.329 279.272 112.085 279.03 112.085 278.729V276.277C112.085 275.738 112.523 275.3 113.062 275.3H119.576C120.115 275.3 120.554 275.738 120.554 276.277V278.729C120.554 279.03 120.31 279.272 120.01 279.272Z" fill="white"/>
<path id="path72" d="M128.498 279.272C128.198 279.272 127.955 279.03 127.955 278.729V276.819H122.768V278.729C122.768 279.03 122.525 279.272 122.225 279.272C121.924 279.272 121.682 279.03 121.682 278.729V276.645C121.682 276.142 122.09 275.733 122.593 275.733H128.129C128.632 275.733 129.042 276.142 129.042 276.645V278.729C129.042 279.03 128.798 279.272 128.498 279.272" fill="white"/>
<path id="path74" d="M125.915 284.87C121.126 284.87 117.232 288.763 117.232 293.548C117.232 298.332 121.126 302.226 125.915 302.226C130.703 302.226 134.598 298.332 134.598 293.548C134.598 288.763 130.703 284.87 125.915 284.87ZM125.915 303.312C120.527 303.312 116.145 298.932 116.145 293.548C116.145 288.164 120.527 283.784 125.915 283.784C131.302 283.784 135.684 288.164 135.684 293.548C135.684 298.932 131.302 303.312 125.915 303.312Z" fill="white"/>
<path id="path76" d="M124.612 289.851V297.243L129.449 293.547L124.612 289.851ZM124.127 297.614L124.125 297.616L124.127 297.614ZM124.311 298.64C124.194 298.64 124.074 298.614 123.964 298.558C123.694 298.426 123.526 298.156 123.526 297.856V289.239C123.526 288.939 123.693 288.671 123.962 288.537C124.232 288.405 124.547 288.434 124.786 288.617L130.424 292.925C130.619 293.074 130.731 293.301 130.731 293.547C130.731 293.794 130.619 294.021 130.424 294.171L124.787 298.478C124.647 298.584 124.48 298.64 124.311 298.64" fill="white"/>
<path id="path78" d="M139.201 283.025C138.28 283.025 137.531 283.776 137.531 284.696C137.531 285.616 138.28 286.365 139.201 286.365C140.122 286.365 140.872 285.616 140.872 284.696C140.872 283.776 140.122 283.025 139.201 283.025ZM139.201 287.451C137.68 287.451 136.444 286.216 136.444 284.696C136.444 283.176 137.68 281.939 139.201 281.939C140.722 281.939 141.959 283.176 141.959 284.696C141.959 286.216 140.722 287.451 139.201 287.451Z" fill="white"/>
<path id="path80" d="M152.487 297.779C152.186 297.779 151.944 297.536 151.944 297.236V286.908C151.944 286.608 152.186 286.365 152.487 286.365C152.787 286.365 153.031 286.608 153.031 286.908V297.236C153.031 297.536 152.787 297.779 152.487 297.779Z" fill="white"/>
</g>
<g id="camera1">
<path id="path82" d="M710.359 115.387H676.453C674.193 115.387 672.354 113.55 672.354 111.291V86.2466C672.354 83.9877 674.193 82.1502 676.453 82.1502H677.582V82.4217C677.582 82.7214 677.824 82.9647 678.125 82.9647C678.425 82.9647 678.669 82.7214 678.669 82.4217L678.661 82.1502H685.625V82.4217C685.625 82.7214 685.867 82.9647 686.168 82.9647C686.468 82.9647 686.711 82.7214 686.711 82.4217V82.1502H688.038V82.4217C688.038 82.7214 688.28 82.9647 688.581 82.9647C688.881 82.9647 689.125 82.7214 689.125 82.4217V82.1502H694.874V82.4217C694.874 82.7214 695.117 82.9647 695.418 82.9647C695.717 82.9647 695.961 82.7214 695.961 82.4217V82.1502H710.359C712.62 82.1502 714.458 83.9877 714.458 86.2466V91.2302L714.127 91.3182C713.682 91.4366 713.371 91.8405 713.371 92.2999V105.237C713.371 105.698 713.682 106.101 714.126 106.219L714.458 106.307V111.291C714.458 113.55 712.62 115.387 710.359 115.387V115.387ZM676.453 83.2373C674.793 83.2373 673.441 84.5872 673.441 86.2466V111.291C673.441 112.95 674.793 114.301 676.453 114.301H710.359C712.02 114.301 713.371 112.95 713.371 111.291V86.2466C713.371 84.5872 712.02 83.2373 710.359 83.2373H676.453ZM714.458 105.237L714.406 92.3684L714.458 92.3542V105.237Z" fill="#F8FBFD"/>
<path id="path84" d="M725.507 109.217L725.243 109.182L714.458 106.307L714.125 106.219C713.682 106.101 713.371 105.698 713.371 105.237V92.2999C713.371 91.8405 713.682 91.4366 714.127 91.3182L714.458 91.2302L725.243 88.3556C725.331 88.3328 725.42 88.3208 725.509 88.3208C725.73 88.3208 725.944 88.3925 726.124 88.5315C726.378 88.7259 726.522 89.0191 726.522 89.3373V108.2C726.522 108.518 726.378 108.813 726.124 109.006C725.943 109.145 725.728 109.217 725.507 109.217V109.217ZM725.524 108.133H725.533H725.524ZM714.458 105.237L725.463 108.118L725.435 89.4285L714.458 92.3542L714.406 92.3684L714.458 105.237Z" fill="#F8FBFD"/>
<path id="path86" d="M686.168 82.9646C685.867 82.9646 685.624 82.7213 685.624 82.4216V82.1501V79.7511L678.598 79.8206L678.661 82.1501L678.669 82.4216C678.669 82.7213 678.425 82.9646 678.125 82.9646C677.824 82.9646 677.582 82.7213 677.582 82.4216V82.1501V79.7511C677.582 79.1908 678.037 78.7346 678.598 78.7346H685.694C686.255 78.7346 686.711 79.1908 686.711 79.7511V82.1501V82.4216C686.711 82.7213 686.468 82.9646 686.168 82.9646" fill="#F8FBFD"/>
<path id="path88" d="M695.418 82.9646C695.117 82.9646 694.874 82.7213 694.874 82.4216V82.1501V80.292H689.125V82.1501V82.4216C689.125 82.7213 688.881 82.9646 688.581 82.9646C688.28 82.9646 688.038 82.7213 688.038 82.4216V82.1501V80.1508C688.038 79.6295 688.462 79.206 688.983 79.206H695.014C695.536 79.206 695.961 79.6295 695.961 80.1508V82.1501V82.4216C695.961 82.7213 695.717 82.9646 695.418 82.9646Z" fill="#F8FBFD"/>
<path id="path90" d="M692.602 109.158C686.759 109.158 682.006 104.408 682.006 98.5681C682.006 92.7287 686.759 87.9775 692.602 87.9775C698.445 87.9775 703.198 92.7287 703.198 98.5681C703.198 104.408 698.445 109.158 692.602 109.158ZM692.602 89.0635C687.359 89.0635 683.093 93.3271 683.093 98.5681C683.093 103.808 687.359 108.072 692.602 108.072C697.845 108.072 702.111 103.808 702.111 98.5681C702.111 93.3271 697.845 89.0635 692.602 89.0635Z" fill="#F8FBFD"/>
<path id="path92" d="M690.854 104.068C690.733 104.068 690.61 104.04 690.495 103.983C690.219 103.846 690.047 103.57 690.047 103.262V93.8736C690.047 93.5662 690.219 93.2893 690.496 93.1525C690.61 93.096 690.732 93.0689 690.854 93.0689C691.026 93.0689 691.199 93.1253 691.344 93.235L697.484 97.9287C697.685 98.0818 697.802 98.3142 697.802 98.5684C697.802 98.8214 697.685 99.0549 697.483 99.2091L691.344 103.902C691.199 104.011 691.027 104.068 690.854 104.068V104.068ZM691.134 94.4415V102.694L696.533 98.5684L691.134 94.4415ZM696.824 98.791L696.826 98.7921L696.824 98.791Z" fill="#F8FBFD"/>
<path id="path94" d="M707.079 91.8774C705.449 91.8774 704.122 90.5514 704.122 88.9224C704.122 87.2934 705.449 85.9685 707.079 85.9685C708.709 85.9685 710.034 87.2934 710.034 88.9224C710.034 90.5514 708.709 91.8774 707.079 91.8774ZM707.079 87.0545C706.047 87.0545 705.208 87.8929 705.208 88.9224C705.208 89.9531 706.047 90.7914 707.079 90.7914C708.109 90.7914 708.948 89.9531 708.948 88.9224C708.948 87.8929 708.109 87.0545 707.079 87.0545Z" fill="#F8FBFD"/>
<path id="path96" d="M721.554 103.129C721.254 103.129 721.011 102.887 721.011 102.586V91.3344C721.011 91.0336 721.254 90.7914 721.554 90.7914C721.855 90.7914 722.097 91.0336 722.097 91.3344V102.586C722.097 102.887 721.855 103.129 721.554 103.129Z" fill="#F8FBFD"/>
</g>
<g id="userIcon4">
<path id="path98" d="M558.517 267.41C558.517 278.666 549.388 287.79 538.126 287.79C526.863 287.79 517.733 278.666 517.733 267.41C517.733 256.154 526.863 247.031 538.126 247.031C549.388 247.031 558.517 256.154 558.517 267.41Z" fill="#F0F5FA"/>
<path id="path100" d="M545.569 263.365C545.569 267.475 542.237 270.806 538.126 270.806C534.013 270.806 530.68 267.475 530.68 263.365C530.68 259.257 534.013 255.925 538.126 255.925C542.237 255.925 545.569 259.257 545.569 263.365Z" fill="#0B1726"/>
<path id="path102" d="M548.167 278.764C548.167 278.942 528.083 278.934 528.083 278.764C528.083 273.222 532.58 268.729 538.126 268.729C543.671 268.729 548.167 273.222 548.167 278.764Z" fill="#0B1726"/>
</g>
<g id="3lines2">
<path id="path104" d="M625.282 258.805H569.958V250.009H625.282V258.805Z" fill="#E0EEFF"/>
<path id="path106" d="M638.049 271.275H569.958V265.604H638.049V271.275" fill="#E0EEFF"/>
<path id="path108" d="M638.049 284.034H569.958V278.363H638.049V284.034" fill="#E0EEFF"/>
</g>
<g id="userIcon3">
<path id="path110" d="M150.644 352.118C150.644 363.374 159.775 372.498 171.037 372.498C182.299 372.498 191.429 363.374 191.429 352.118C191.429 340.862 182.299 331.739 171.037 331.739C159.775 331.739 150.644 340.862 150.644 352.118Z" fill="white"/>
<path id="path112" d="M163.592 348.074C163.592 352.183 166.925 355.514 171.037 355.514C175.149 355.514 178.482 352.183 178.482 348.074C178.482 343.965 175.149 340.633 171.037 340.633C166.925 340.633 163.592 343.965 163.592 348.074Z" fill="#0B1726"/>
<path id="path114" d="M160.995 363.472C160.995 363.65 181.079 363.642 181.079 363.472C181.079 357.93 176.583 353.437 171.037 353.437C165.491 353.437 160.995 357.93 160.995 363.472Z" fill="#0B1726"/>
</g>
<g id="3Lines">
<path id="path116" d="M88.2263 343.513H143.552V334.717H88.2263V343.513" fill="white"/>
<path id="path118" d="M75.459 355.982H143.552V350.311H75.459V355.982Z" fill="white"/>
<path id="path120" d="M75.459 368.742H143.552V363.071H75.459V368.742Z" fill="white"/>
</g>
<g id="guyAndGirlPhone">
<path id="path122" d="M372.191 210.076V91.1588C372.191 80.9982 380.432 72.762 390.6 72.762H637.55C647.716 72.762 655.959 80.9982 655.959 91.1588V210.076C655.959 220.236 647.716 228.473 637.55 228.473H390.6C380.432 228.473 372.191 220.236 372.191 210.076Z" fill="#3C419F"/>
<path id="path124" d="M372.191 210.076V91.1588C372.191 80.9982 380.432 72.762 390.6 72.762H637.55C647.716 72.762 655.959 80.9982 655.959 91.1588V210.076C655.959 220.236 647.716 228.473 637.55 228.473H390.6C380.432 228.473 372.191 220.236 372.191 210.076Z" fill="#3C419F"/>
<path id="path126" d="M633.978 223.557H502.809L502.81 220.191H635.562C642.433 220.191 648.003 214.624 648.003 207.757V93.4784C648.003 86.6106 642.433 81.0437 635.562 81.0437H557.613L557.355 76.1459C557.354 76.122 557.352 76.0992 557.351 76.0764H633.978C643.848 76.0764 651.848 83.8771 651.848 93.5012V206.133C651.848 215.756 643.848 223.557 633.978 223.557ZM378.822 190.063L376.381 190.061V93.5012C376.381 83.8771 384.382 76.0764 394.251 76.0764H501.534C501.439 77.0625 501.415 78.067 501.468 79.0857L501.571 81.0437H391.262C384.392 81.0437 378.822 86.6106 378.822 93.4784V190.063" fill="#4045A2"/>
<path id="path128" d="M378.822 207.757V93.4784C378.822 86.6105 384.392 81.0437 391.262 81.0437H635.562C642.433 81.0437 648.003 86.6105 648.003 93.4784V207.757C648.003 214.624 642.433 220.191 635.562 220.191H391.262C384.392 220.191 378.822 214.624 378.822 207.757Z" fill="white"/>
<path id="path130" d="M640.046 218.866C641.652 218.866 643.361 218.202 644.481 216.415C646.658 214.175 648.003 211.125 648.003 207.757V93.4784C648.003 88.6945 645.296 84.5493 641.333 82.4685C640.911 82.4098 640.484 82.3697 640.046 82.3697V218.866Z" fill="#6C92D3"/>
<path id="path132" d="M628.344 212.856H502.815L502.822 196.182C502.824 194.005 501.677 192.096 499.952 191.027C500.488 185.627 499.571 180.001 497.375 175.385C495.377 171.186 492.462 166.52 494.346 161.944C494.936 160.511 495.942 159.32 496.755 158.013C500.873 151.395 499.563 144.085 497.83 137.019C497.076 133.947 495.611 131.128 494.499 128.148H509.639C512.31 130.544 515.535 132.51 518.659 133.918L518.7 134.301L519.959 155.055C520.412 162.512 526.595 168.33 534.071 168.33C542.189 168.33 548.638 161.515 548.188 153.417L546.948 131.098C548.262 130.211 549.61 129.222 550.909 128.148H628.344V212.856ZM397.343 190.072L389.32 190.067V89.052H447.107H389.32V128.148H407.376C407.303 128.692 407.243 129.238 407.197 129.785C406.803 134.416 407.372 139.054 407.053 143.685C406.411 153.05 400.156 158.852 395.498 166.378C392.709 170.883 390.726 176.294 391.88 181.44C392.659 184.916 394.703 187.734 397.343 190.072" fill="#F4F7FC"/>
<path id="path134" d="M628.344 128.148H550.909C555.575 124.293 559.631 119.343 559.358 114.154L559.127 109.758L560.297 109.696C565.279 109.434 569.071 104.519 568.765 98.7173C568.519 94.0486 565.694 90.2292 562.004 89.0519H628.344V128.148V128.148ZM509.639 128.148H494.499C494.425 127.948 494.352 127.747 494.281 127.545C493.023 123.973 491.983 120.324 490.818 116.72C488.765 110.355 486.235 103.97 481.795 99.0431C477.657 94.4526 472.044 91.3858 466.119 89.7372C465.17 89.4733 464.212 89.2453 463.247 89.0519H501.993L502.133 91.717C497.383 92.2524 493.834 97.0264 494.13 102.644C494.427 108.262 498.458 112.638 503.237 112.671L503.471 117.095C503.693 121.296 506.21 125.075 509.639 128.148V128.148ZM407.376 128.148H389.32V89.0519H447.107C445.898 89.2909 444.701 89.583 443.516 89.9284C436.049 92.109 429.521 97.034 423.53 101.937C417.363 106.987 411.915 113.378 409.135 120.988C408.291 123.303 407.702 125.708 407.376 128.148Z" fill="#E5EEF9"/>
<path id="path136" d="M627.841 72.762H617.349C617.43 72.1495 617.954 71.676 618.589 71.676H626.599C627.236 71.676 627.76 72.1495 627.841 72.762Z" fill="#606DBE"/>
<path id="path138" d="M626.599 74.1782H618.589C617.899 74.1782 617.338 73.6178 617.338 72.9272C617.338 72.8707 617.342 72.8164 617.349 72.7621H627.841C627.849 72.8164 627.852 72.8707 627.852 72.9272C627.852 73.6178 627.291 74.1782 626.599 74.1782" fill="#4C5AB2"/>
<path id="path140" d="M603.069 230.232H584.546C583.855 230.232 583.294 229.672 583.294 228.981C583.294 228.801 583.332 228.628 583.402 228.473H604.214C604.283 228.628 604.321 228.801 604.321 228.981C604.321 229.672 603.762 230.232 603.069 230.232" fill="#5F6CBD"/>
<path id="path142" d="M604.214 228.473H583.402C583.596 228.035 584.035 227.73 584.546 227.73H603.069C603.58 227.73 604.019 228.035 604.214 228.473" fill="#4C5AB2"/>
<path id="path144" d="M604.311 72.762H583.305C583.385 72.1495 583.91 71.676 584.546 71.676H603.069C603.705 71.676 604.23 72.1495 604.311 72.762Z" fill="#616EBE"/>
<path id="path146" d="M603.069 74.1782H584.546C583.855 74.1782 583.294 73.6178 583.294 72.9272C583.294 72.8707 583.297 72.8164 583.305 72.7621H604.311C604.318 72.8164 604.321 72.8707 604.321 72.9272C604.321 73.6178 603.762 74.1782 603.069 74.1782Z" fill="#4C5AB2"/>
<path id="path148" d="M579.278 72.762H572.288C571.033 72.3862 569.777 72.0246 568.511 71.676H578.038C578.673 71.676 579.198 72.1495 579.278 72.762Z" fill="#616EBE"/>
<path id="path150" d="M572.288 72.762H564.537C564.012 72.396 563.481 72.0322 562.948 71.676H568.511C569.777 72.0246 571.033 72.3862 572.288 72.762Z" fill="#606DBE"/>
<path id="path152" d="M564.537 72.762H558.274C558.354 72.1495 558.879 71.676 559.514 71.676H562.949C563.481 72.0322 564.012 72.396 564.537 72.762" fill="#5F6CBD"/>
<path id="path154" d="M578.038 74.1782H559.514C558.822 74.1782 558.263 73.6178 558.263 72.9272C558.263 72.8707 558.266 72.8164 558.274 72.7621H579.278C579.286 72.8164 579.289 72.8707 579.289 72.9272C579.289 73.6178 578.729 74.1782 578.038 74.1782Z" fill="#4C5AB2"/>
</g>
<g id="guyAndGirl">
<g id="g158">
<path id="path166" d="M610.597 147.432C604.159 144.373 596.465 136.31 596.499 136.316L591.124 130.575C590.195 129.583 590.009 128.027 590.841 126.953C591.897 125.595 593.861 125.546 594.988 126.748C594.988 126.748 598.07 130.049 600.095 132.222C600.937 133.127 602.488 132.515 602.438 131.28C602.366 129.478 601.533 127.724 600.691 126.394L588.65 110.695C587.739 109.503 587.966 107.797 589.158 106.885C591.041 106.885 593.516 108.108 594.661 109.603L601.701 118.804C602.075 119.292 602.74 119.452 603.293 119.187L603.674 119.006C604.318 118.698 604.612 117.946 604.351 117.283L598.007 101.279C597.506 100.016 597.903 98.4999 599.073 97.806C600.554 96.9285 602.398 97.6018 603.006 99.1341L609.126 114.578C609.463 115.425 610.48 116.005 611.354 115.745C612.361 115.444 612.978 114.411 612.745 113.371L609.469 98.7725C609.17 97.4454 609.8 96.0097 611.064 95.5069C612.663 94.8716 614.379 95.824 614.74 97.4313L618.145 112.602C618.371 113.609 618.918 114.518 619.704 115.191C620.625 115.979 622.053 115.318 622.049 114.105L622.02 107.107C622.013 105.685 623.031 104.386 624.446 104.238C626.073 104.069 627.45 105.335 627.457 106.928L627.853 122.19C628.73 131.482 628.2 142.922 628.2 142.922V220.419C601.417 220.419 629.138 220.419 615.917 220.419C601.417 220.419 611.417 219.919 601.417 220.419L610.597 147.432Z" fill="#AF6D80"/>
<path id="path164" d="M569.09 150.508C567.585 150.132 566.133 149.796 564.745 149.495C560.173 148.178 554.88 147.312 549.191 147.026L549.183 147.017C548.974 147.009 548.932 147.008 549.044 147.018C547.63 146.95 546.197 146.913 544.74 146.92L540.533 146.937L534.757 146.961L528.981 146.937L524.773 146.92C523.317 146.913 521.883 146.95 520.47 147.018C520.581 147.008 520.54 147.009 520.331 147.017L520.324 147.026C514.634 147.312 509.341 148.178 504.768 149.495C503.38 149.796 501.927 150.132 500.423 150.508C477.236 156.287 460.437 176.519 458.087 200.505C457.864 200.924 457.639 201.336 457.417 201.762L457.945 202.059C457.829 203.665 457.778 205.287 457.795 206.92L457.938 220.51H525.311H526.219H543.417H544.202H611.575L611.719 206.92C612 180.191 594.32 156.797 569.09 150.508Z" fill="#F17B99"/>
<path id="path168" d="M615.073 135.226L615.149 135.185C615.466 134.99 615.565 134.574 615.369 134.257C613.692 131.546 611.59 129.958 609.124 129.537C605.004 128.832 601.425 131.67 601.273 131.79C600.983 132.023 600.937 132.446 601.171 132.737C601.404 133.026 601.829 133.074 602.12 132.84C602.151 132.815 605.389 130.263 608.906 130.868C610.969 131.223 612.757 132.603 614.221 134.967C614.401 135.258 614.768 135.365 615.073 135.226" fill="#322E44"/>
<path id="path170" d="M488.449 59.8362C488.165 54.4605 490.412 49.5431 494.143 46.2188C493.544 44.7842 493.164 43.2334 493.077 41.5925C492.672 33.9004 498.583 27.3366 506.279 26.9315C508.413 26.8196 510.453 27.2073 512.307 27.9686C514.359 22.6743 519.357 18.7952 525.399 18.477C531.438 18.1588 536.816 21.4928 539.415 26.5416C541.178 25.5902 543.166 24.9908 545.3 24.8789C552.996 24.4738 559.564 30.3806 559.969 38.0716C560.018 38.9882 559.969 39.8853 559.846 40.7606C565.646 43.2334 569.852 48.8187 570.205 55.5345C570.671 64.3681 564.319 71.982 555.745 73.2798C556.139 82.4825 505.657 85.1497 505.073 75.9654C496.241 75.7613 488.92 68.7978 488.449 59.8362" fill="#322E44"/>
<path id="path172" d="M568.765 98.7172C568.459 92.9158 564.172 88.4252 559.19 88.6869L558.018 88.7488L557.355 76.1458C557.211 73.4124 556.529 70.8385 555.431 68.5047C554.37 68.7632 553.273 68.9381 552.143 68.9978C545.323 69.3562 539.207 65.8256 535.929 60.3511C533.289 61.9996 530.211 63.0259 526.883 63.2018C523.555 63.3767 520.385 62.6783 517.588 61.3165C514.918 67.0734 509.25 71.2089 502.481 71.6053C501.708 73.9521 501.33 76.4705 501.468 79.0856L502.133 91.7169C497.383 92.2523 493.834 97.0263 494.13 102.644C494.427 108.262 498.458 112.638 503.237 112.671L503.471 117.095C503.865 124.577 511.541 130.715 518.678 133.926L519.959 155.055C520.412 162.512 526.595 168.33 534.071 168.33C542.189 168.33 548.638 161.515 548.188 153.417L546.948 131.097C552.981 127.031 559.707 120.788 559.358 114.154L559.127 109.758L560.297 109.696C565.279 109.434 569.071 104.519 568.765 98.7172" fill="#AF6D80"/>
<path id="path174" d="M518.701 134.301L518.659 133.918C518.666 133.921 518.671 133.923 518.678 133.927L518.701 134.301" fill="#C1C2C4"/>
<path id="path176" d="M519.677 143.352L518.701 134.301L518.678 133.926C518.671 133.923 518.666 133.921 518.659 133.918L518.657 133.894C520.225 134.302 521.867 134.523 523.556 134.523C523.896 134.523 524.239 134.513 524.584 134.495L538.64 133.755C539.479 133.711 540.296 133.597 541.101 133.452L519.677 143.352Z" fill="#8D5C6A"/>
<path id="path178" d="M528.316 123.403C528.445 123.406 528.571 123.475 528.639 123.597C529.269 124.736 530.467 125.458 531.766 125.482C533.066 125.507 534.291 124.832 534.965 123.719C535.074 123.539 535.308 123.484 535.482 123.591C535.66 123.699 535.719 123.931 535.61 124.109C534.799 125.452 533.32 126.267 531.752 126.237C530.184 126.207 528.738 125.336 527.978 123.964C527.877 123.781 527.944 123.551 528.126 123.451L528.316 123.403" fill="#322E44"/>
<path id="path180" d="M497.094 101.143C496.678 101.165 496.323 100.845 496.301 100.43C496.057 95.7841 499.548 94.369 501.428 94.2713C501.845 94.2485 502.2 94.5688 502.222 94.9848C502.243 95.3996 501.926 95.7537 501.511 95.7775C501.107 95.8014 497.587 96.1403 497.808 100.35C497.831 100.767 497.512 101.121 497.094 101.143" fill="#322E44"/>
<path id="path182" d="M565.173 97.5607C564.756 97.5824 564.401 97.2632 564.38 96.8472C564.153 92.5314 560.381 92.6791 560.221 92.6878C559.804 92.7095 559.45 92.3903 559.427 91.9743C559.406 91.5584 559.726 91.2022 560.141 91.1805C562.022 91.0827 565.642 92.122 565.887 96.7668C565.91 97.1839 565.59 97.5379 565.173 97.5607" fill="#322E44"/>
<path id="path184" d="M517.801 100.619C516.958 100.662 516.238 100.016 516.195 99.1733L516.033 96.1217C515.988 95.2789 516.636 94.56 517.48 94.5155C518.322 94.472 519.042 95.1182 519.086 95.9609L519.247 99.0126C519.293 99.8553 518.644 100.574 517.801 100.619" fill="#322E44"/>
<path id="path186" d="M540.697 99.4144C539.853 99.4579 539.133 98.8106 539.09 97.9679L538.929 94.9173C538.884 94.0746 539.532 93.3557 540.375 93.3111C541.217 93.2666 541.937 93.9139 541.981 94.7566L542.143 97.8082C542.187 98.6499 541.539 99.3688 540.697 99.4144" fill="#322E44"/>
<path id="path188" d="M520.943 89.5165C520.253 89.9216 519.287 89.9433 518.356 90.0193C517.416 90.0747 516.474 90.1551 515.659 90.2518C514.842 90.3495 513.907 90.4939 512.985 90.6601C512.062 90.8067 511.118 91.0119 510.346 90.7828C509.602 90.571 509.193 89.7598 509.87 88.6217C510.502 87.5161 512.379 86.1727 515.082 85.8426C517.783 85.5266 519.95 86.3878 520.848 87.3098C521.797 88.2546 521.61 89.1364 520.943 89.5165" fill="#322E44"/>
<path id="path190" d="M545.433 88.3026C544.658 88.5762 543.715 88.4242 542.792 88.3308C541.866 88.2168 540.932 88.1266 540.116 88.0767C539.297 88.0256 538.355 87.9996 537.414 87.9974C536.483 87.9746 535.512 88.0072 534.823 87.6434C534.157 87.3013 533.973 86.4303 534.928 85.4333C535.829 84.4603 538.001 83.4775 540.709 83.6393C543.411 83.8141 545.287 85.0489 545.916 86.1164C546.591 87.2155 546.179 88.0485 545.433 88.3026Z" fill="#322E44"/>
<path id="path194" d="M533.614 109.863L530.276 110.039C527.015 110.21 524.223 107.698 524.05 104.439C523.971 102.94 525.128 101.655 526.628 101.577C528.53 101.477 529.993 99.85 529.893 97.9506L529.653 93.3818C529.635 93.0408 529.897 92.7508 530.238 92.7323C530.578 92.715 530.869 92.9756 530.887 93.3166L531.128 97.8854C531.264 100.465 529.274 102.674 526.694 102.809C525.873 102.853 525.241 103.554 525.284 104.374C525.42 106.954 527.63 108.941 530.211 108.805L533.55 108.63C533.89 108.612 534.181 108.872 534.198 109.213C534.216 109.554 533.955 109.844 533.614 109.863" fill="#322E44"/>
<path id="path196" d="M499.07 195.81C500.924 189.105 500.232 181.391 497.375 175.384C495.377 171.186 492.462 166.519 494.346 161.944C494.936 160.511 495.942 159.32 496.755 158.013C500.873 151.395 499.563 144.085 497.83 137.019C497.025 133.741 495.411 130.751 494.281 127.545C493.023 123.973 491.983 120.324 490.818 116.72C488.765 110.355 486.235 103.97 481.795 99.043C477.657 94.4524 472.044 91.3856 466.119 89.737C458.783 87.6954 450.871 87.7812 443.516 89.9282C436.049 92.1089 429.521 97.0339 423.53 101.937C417.363 106.987 411.915 113.378 409.135 120.988C408.102 123.819 407.453 126.785 407.197 129.784C406.803 134.416 407.372 139.053 407.053 143.685C406.411 153.05 400.156 158.852 395.498 166.378C392.709 170.883 390.726 176.293 391.88 181.44C393.462 188.497 400.258 192.84 406.664 195.972C421.143 203.052 436.666 207.883 452.533 210.665C465.117 212.873 481.131 215.657 492.146 206.843C495.594 204.083 497.868 200.159 499.07 195.81" fill="#322E44"/>
<path id="path198" d="M494.705 219.742C486.64 205.244 477.014 196.33 469.502 191.061C466.04 187.946 461.835 185.593 457.125 184.301L457.121 184.283C456.946 184.239 456.912 184.231 457.003 184.266C455.833 183.95 454.635 183.691 453.405 183.511L449.853 182.99L440.38 181.601L436.828 181.081C435.601 180.9 434.383 180.804 433.173 180.771L433.294 180.563C433.294 180.563 402.186 178.689 373.054 218.326C373.054 218.326 497.743 225.206 494.705 219.742" fill="#4E5DB3"/>
<path id="path200" d="M439.817 113.2C438.896 119.667 436.536 126.392 430.948 129.202L429.172 126.368L428.71 126.296C424.346 125.614 420.231 128.755 419.519 133.311C418.807 137.867 421.767 142.112 426.131 142.793L427.196 142.959L427.046 143.916C425.525 153.634 429.82 162.917 437.341 168.242L434.069 189.172C433.21 194.666 436.97 199.816 442.467 200.675C447.964 201.533 453.117 197.776 453.975 192.282L457.104 172.279C466.947 170.155 474.944 162.19 476.592 151.652L476.753 150.616C480.705 150.683 484.23 147.702 484.885 143.518C485.539 139.335 483.092 135.42 479.308 134.281L480.13 129.022C460.202 127.554 446.5 118.679 439.817 113.2" fill="#F9D8D0"/>
<path id="path202" d="M436.035 175.541L437.169 168.119C437.227 168.161 437.283 168.202 437.341 168.242L436.206 175.499L436.035 175.541Z" fill="#AB5F7B"/>
<path id="path204" d="M436.206 175.499L437.341 168.242C437.283 168.202 437.227 168.16 437.169 168.119L437.234 167.691C438.723 168.428 440.328 169.003 442.033 169.38L446.889 170.455C448.416 170.793 449.939 170.954 451.433 170.954C452.136 170.954 452.832 170.918 453.52 170.848L453.872 171.166L436.206 175.499Z" fill="#F49DAC"/>
<path id="path206" d="M469.153 154.258C469.013 154.258 468.87 154.247 468.727 154.226L463.722 153.485C462.143 153.252 461.052 151.783 461.285 150.204C461.497 148.769 462.732 147.737 464.141 147.737C464.282 147.737 464.425 147.748 464.568 147.769L469.573 148.509C471.153 148.743 472.245 150.211 472.01 151.79C471.797 153.226 470.563 154.258 469.153 154.258Z" fill="#F7C9C7"/>
<path id="path208" d="M442.269 150.308C442.129 150.308 441.985 150.298 441.842 150.276L436.838 149.535C435.257 149.302 434.167 147.834 434.4 146.255C434.613 144.819 435.848 143.788 437.257 143.788C437.397 143.788 437.54 143.798 437.683 143.82L442.688 144.559C444.267 144.793 445.358 146.262 445.126 147.84C444.913 149.276 443.679 150.308 442.269 150.308" fill="#F7C9C7"/>
<path id="path210" d="M453.969 149.864C453.774 149.854 453.577 149.835 453.38 149.806L451.486 149.526C451.153 149.477 450.923 149.166 450.972 148.833C451.022 148.502 451.321 148.27 451.665 148.321L453.559 148.601C454.513 148.74 455.451 148.593 456.192 148.18C456.881 147.796 457.313 147.229 457.408 146.583L457.542 145.677C457.569 145.5 457.447 145.345 457.375 145.269C457.207 145.096 456.949 144.972 456.667 144.931C455.095 144.699 453.972 143.465 454.162 142.181L454.818 137.758C454.867 137.424 455.171 137.195 455.509 137.244C455.842 137.293 456.072 137.604 456.023 137.935L455.368 142.359C455.277 142.969 455.954 143.594 456.845 143.727C457.396 143.808 457.895 144.055 458.25 144.422C458.642 144.827 458.822 145.349 458.748 145.854L458.614 146.761C458.461 147.789 457.811 148.671 456.786 149.243C455.968 149.698 454.986 149.913 453.969 149.864" fill="#F17B99"/>
<path id="path212" d="M466.023 145.347C466.849 145.48 467.625 144.919 467.759 144.096L468.239 141.109C468.373 140.285 467.812 139.508 466.986 139.376C466.161 139.243 465.384 139.804 465.252 140.628L464.772 143.614C464.638 144.438 465.199 145.214 466.023 145.347" fill="#322E44"/>
<path id="path214" d="M442.805 141.612C443.63 141.746 444.405 141.184 444.539 140.36L445.02 137.375C445.153 136.55 444.592 135.774 443.767 135.641C442.943 135.509 442.166 136.069 442.033 136.894L441.551 139.879C441.418 140.704 441.98 141.48 442.805 141.612" fill="#322E44"/>
<path id="path216" d="M463.758 144.56L464.025 144.658C466.36 146.404 468.497 145.509 468.518 145.5C468.775 145.39 469.071 145.507 469.181 145.762C469.292 146.016 469.175 146.313 468.92 146.424C468.811 146.471 466.221 147.557 463.421 145.465C463.198 145.298 463.152 144.983 463.32 144.759C463.426 144.618 463.592 144.549 463.758 144.56" fill="#F17B99"/>
<path id="path218" d="M439.99 140.281L440.257 140.38C442.593 142.125 444.729 141.231 444.751 141.221C445.003 141.113 445.304 141.227 445.414 141.483C445.525 141.738 445.407 142.035 445.152 142.145C445.043 142.193 442.456 143.279 439.654 141.188C439.43 141.02 439.386 140.705 439.552 140.482C439.657 140.34 439.826 140.27 439.99 140.281" fill="#F17B99"/>
<path id="path220" d="M446.463 155.42C446.169 155.42 445.928 155.652 445.919 155.947C445.888 157.011 446.249 157.879 446.993 158.524C449.166 160.408 453.935 159.616 454.138 159.582C454.433 159.532 454.631 159.25 454.581 158.955C454.531 158.66 454.253 158.461 453.954 158.512C453.91 158.518 449.489 159.251 447.705 157.703C447.213 157.275 446.984 156.711 447.006 155.979C447.015 155.68 446.779 155.429 446.478 155.42H446.463" fill="#F17B99"/>
<path id="path222" d="M449.775 132.339C449.195 132.456 448.523 132.243 447.859 132.076C447.195 131.894 446.524 131.727 445.935 131.602C445.346 131.478 444.664 131.358 443.984 131.255C443.31 131.139 442.603 131.058 442.129 130.718C441.669 130.397 441.593 129.741 442.351 129.116C443.07 128.501 444.709 128.015 446.662 128.425C448.609 128.843 449.886 129.946 450.271 130.795C450.686 131.669 450.333 132.233 449.775 132.339" fill="#322E44"/>
<path id="path224" d="M470.982 134.409C470.428 134.612 469.729 134.504 469.049 134.439C468.364 134.359 467.676 134.296 467.076 134.262C466.474 134.227 465.781 134.211 465.093 134.213C464.41 134.2 463.7 134.227 463.18 133.962C462.675 133.715 462.501 133.078 463.156 132.344C463.773 131.63 465.321 130.902 467.312 131.011C469.301 131.129 470.731 132.027 471.239 132.807C471.783 133.608 471.519 134.22 470.982 134.409" fill="#322E44"/>
</g>
</g>
<g id="girl1phone">
<path id="path228" d="M110.276 241.092H109.634C109.065 241.092 108.586 240.714 108.433 240.196H110.437C110.386 240.494 110.331 240.794 110.276 241.092Z" fill="#606DBE"/>
<path id="path230" d="M117.645 241.092H110.276C110.331 240.794 110.386 240.494 110.437 240.196H118.845C118.692 240.714 118.213 241.092 117.645 241.092" fill="#5F6CBD"/>
<path id="path232" d="M144.559 102.353H131.917C131.914 102.319 131.912 102.284 131.912 102.249C131.912 101.558 132.473 100.998 133.164 100.998H144.5C144.522 101.459 144.542 101.911 144.559 102.353Z" fill="#5F6CBD"/>
<path id="path234" d="M151.688 241.092H133.164C132.596 241.092 132.117 240.714 131.964 240.196H152.888C152.735 240.714 152.256 241.092 151.688 241.092Z" fill="#5F6CBD"/>
<path id="path236" d="M176.72 241.092H158.197C157.628 241.092 157.149 240.714 156.996 240.196H177.921C177.768 240.714 177.288 241.092 176.72 241.092Z" fill="#5F6CBD"/>
<path id="path238" d="M353.948 119.615V222.934C353.948 232.468 346.215 240.196 336.675 240.196H88.6065C79.0678 240.196 71.334 232.468 71.334 222.934V119.615C71.334 110.081 79.0678 102.353 88.6065 102.353H336.675C346.215 102.353 353.948 110.081 353.948 119.615" fill="#3C419F"/>
<path id="path240" d="M204.206 236.149H91.0614C81.7464 236.149 74.1952 228.874 74.1952 219.901V122.648C74.1952 113.674 81.7464 106.4 91.0614 106.4H144.662C144.675 107.842 144.66 109.161 144.614 110.379H105.879V231.961H204.208L204.206 236.149V236.149ZM90.3594 158.765C89.8062 158.765 89.3585 159.214 89.3585 159.767V182.782C89.3585 183.335 89.8062 183.783 90.3594 183.783C90.9125 183.783 91.3602 183.335 91.3602 182.782V159.767C91.3602 159.214 90.9125 158.765 90.3594 158.765ZM82.8494 169.773C82.0203 169.773 81.3476 170.445 81.3476 171.274C81.3476 172.104 82.0203 172.776 82.8494 172.776C83.6785 172.776 84.3512 172.104 84.3512 171.274C84.3512 170.445 83.6785 169.773 82.8494 169.773ZM332.771 171.867C328.313 171.839 324.351 171.554 321.155 171.214V110.379H225.954C225.754 109.07 225.539 107.743 225.308 106.4H333.291C342.606 106.4 350.157 113.674 350.157 122.648V171.071L346.834 171.054C345.012 171.284 343.217 171.457 341.464 171.585V158.882C341.464 156.729 339.719 154.984 337.565 154.984H336.67C334.516 154.984 332.771 156.729 332.771 158.882V171.867Z" fill="#4651AC"/>
<path id="path242" d="M105.879 231.961H321.155V110.379H105.879V231.961Z" fill="white"/>
<path id="path244" d="M82.8494 172.776C82.0203 172.776 81.3477 172.104 81.3477 171.274C81.3477 170.445 82.0203 169.773 82.8494 169.773C83.6785 169.773 84.3512 170.445 84.3512 171.274C84.3512 172.104 83.6785 172.776 82.8494 172.776Z" fill="#3D43A0"/>
<path id="path246" d="M90.3595 183.783C89.8063 183.783 89.3586 183.335 89.3586 182.783V159.767C89.3586 159.214 89.8063 158.766 90.3595 158.766C90.9126 158.766 91.3603 159.214 91.3603 159.767V182.783C91.3603 183.335 90.9126 183.783 90.3595 183.783Z" fill="#3D43A0"/>
<path id="path248" d="M204.212 224.433H111.731V115.707H144.147C142.774 124.676 138.715 126.495 132.471 137.451C132.263 137.813 132.069 138.177 131.886 138.54C125.421 151.416 135.402 166.127 149.769 166.129C149.848 166.129 149.924 166.129 150.003 166.127C158.061 166.038 163.399 163.823 163.817 163.823C167.613 163.823 171.745 163.735 176.026 163.499C176.046 168.942 180.468 173.349 185.92 173.349C186.721 173.349 187.499 173.254 188.244 173.075V203.765H204.221L204.212 224.433V224.433ZM312.996 136.373H269.175C269.143 135.963 269.108 135.555 269.07 135.154L268.769 123.537C268.764 122.398 267.839 121.477 266.7 121.477C266.628 121.477 266.553 121.481 266.478 121.489C265.401 121.6 264.626 122.59 264.63 123.671L264.652 128.998C264.655 129.647 264.125 130.086 263.564 130.086C263.324 130.086 263.077 130.005 262.867 129.824C262.269 129.312 261.854 128.621 261.681 127.855L259.089 116.307C259.04 116.09 258.96 115.888 258.852 115.707H312.996V136.373V136.373ZM287.957 122.282C286.9 122.282 286.044 123.137 286.044 124.193V131.56C286.044 132.616 286.9 133.47 287.957 133.47H298.407C299.463 133.47 300.319 132.616 300.319 131.56V130.128L300.441 130.286L304.31 131.318C304.325 131.321 304.339 131.323 304.353 131.323C304.441 131.323 304.517 131.253 304.517 131.158V124.593C304.517 124.501 304.441 124.429 304.353 124.429C304.339 124.429 304.325 124.432 304.31 124.435L300.441 125.467L300.319 125.625V124.193C300.319 123.137 299.463 122.282 298.407 122.282H287.957V122.282ZM246.876 136.373H228.541C228.546 136.28 228.552 136.189 228.556 136.094C228.556 136.094 228.214 127.263 226.708 115.707H255.318C255.046 116.181 254.95 116.766 255.076 117.328L257.57 128.44C257.756 129.268 257.236 130.09 256.406 130.274C256.307 130.296 256.208 130.307 256.11 130.307C255.566 130.307 255.062 129.978 254.855 129.453L250.157 117.603C249.835 116.79 249.056 116.295 248.232 116.295C247.912 116.295 247.586 116.37 247.276 116.53C246.314 117.027 245.954 118.231 246.353 119.236L251.181 131.419C251.381 131.923 251.156 132.495 250.666 132.73L250.376 132.868C250.241 132.933 250.095 132.964 249.952 132.964C249.651 132.964 249.357 132.827 249.165 132.577L242.811 124.273C242.324 123.637 241.49 123.274 240.675 123.274C240.307 123.274 239.943 123.348 239.617 123.504C238.709 124.197 238.536 125.496 239.231 126.404L246.876 136.373" fill="#F4F7FC"/>
<path id="path250" d="M204.221 203.765H188.244V173.075C192.588 172.03 195.815 168.121 195.815 163.46V161.197C212.821 157.936 227.653 150.91 228.541 136.373H246.876L248.394 138.353C249.005 139.316 249.609 140.572 249.714 141.873C249.193 142.179 248.876 142.43 248.839 142.46C248.64 142.621 248.592 142.9 248.716 143.115C248.706 143.115 248.698 143.115 248.689 143.115C248.422 143.115 248.151 143.014 247.938 142.786C246.396 141.132 244.054 138.623 244.054 138.623C243.647 138.188 243.095 137.967 242.543 137.967C241.97 137.967 241.397 138.203 240.98 138.68C240.267 139.494 240.373 140.746 241.113 141.536L245.205 145.905C245.181 145.905 251.037 152.039 255.936 154.366L252.559 190L210.289 189.979C210.288 189.979 210.287 189.979 210.286 189.979C206.94 189.979 204.227 192.689 204.226 196.033L204.221 203.765V203.765ZM308.39 190.027L269.346 190.009L269.334 150.933C269.334 150.933 269.694 143.188 269.175 136.373H312.996V170.134L312.734 170.154C312.671 170.286 312.557 170.457 312.378 170.581L312.37 189.424H311.617C311.616 189.424 311.613 189.424 311.612 189.424C310.476 189.424 309.389 189.638 308.39 190.027" fill="#E5EEF9"/>
<path id="path252" d="M298.407 133.47H287.957C286.9 133.47 286.044 132.616 286.044 131.56V124.193C286.044 123.137 286.9 122.282 287.957 122.282H298.407C299.463 122.282 300.319 123.137 300.319 124.193V125.625L300.441 125.467L304.31 124.435C304.325 124.432 304.339 124.43 304.353 124.43C304.441 124.43 304.518 124.501 304.518 124.593V131.158C304.518 131.253 304.441 131.323 304.353 131.323C304.339 131.323 304.325 131.321 304.31 131.318L300.441 130.286L300.319 130.128V131.56C300.319 132.616 299.463 133.47 298.407 133.47" fill="#BAC1E7"/>
</g>
<g id="girl1">
<path id="path256" d="M269.07 135.154L268.769 123.537C268.764 122.324 267.715 121.359 266.478 121.488C265.401 121.6 264.626 122.59 264.63 123.671L264.652 128.998C264.656 129.924 263.57 130.427 262.867 129.823C262.269 129.312 261.854 128.621 261.681 127.855L259.089 116.307C258.824 115.123 257.593 114.407 256.412 114.799C255.384 115.14 254.839 116.271 255.076 117.328L257.57 128.44C257.756 129.267 257.235 130.09 256.406 130.274C255.758 130.42 255.099 130.072 254.855 129.453L250.157 117.603C249.71 116.475 248.382 115.959 247.276 116.53C246.314 117.027 245.954 118.23 246.352 119.236L251.181 131.419C251.38 131.923 251.156 132.495 250.665 132.73L250.376 132.868C249.955 133.068 249.449 132.947 249.165 132.577L242.811 124.273C242.105 123.35 240.667 123.003 239.617 123.504C238.709 124.197 238.536 125.496 239.23 126.404L248.394 138.353C249.035 139.364 249.669 140.698 249.725 142.067C249.764 143.009 248.581 143.476 247.938 142.786C246.396 141.132 244.054 138.623 244.054 138.623C243.225 137.737 241.799 137.743 240.98 138.68C240.267 139.494 240.373 140.746 241.113 141.536L245.205 145.905C245.178 145.902 251.036 152.039 255.936 154.366L250.931 207.177C252.35 209.551 253.749 212.047 255.12 214.687L251.821 216.551L226.773 230.714L250.601 241.68C259.786 244.856 269.362 238.037 269.358 228.325L269.334 150.933C269.334 150.933 269.739 142.226 269.07 135.154" fill="#F9D8D0"/>
<path id="path258" d="M248.716 143.115C248.592 142.9 248.64 142.621 248.839 142.46C248.876 142.43 249.193 142.179 249.714 141.873C249.719 141.937 249.722 142.002 249.726 142.067C249.751 142.687 249.246 143.101 248.716 143.115" fill="#EBABC4"/>
<path id="path260" d="M259.132 145.122C258.959 145.122 258.792 145.035 258.694 144.879C257.58 143.079 256.22 142.029 254.649 141.759C254.366 141.71 254.084 141.688 253.808 141.688C251.477 141.688 249.504 143.243 249.483 143.261C249.389 143.337 249.275 143.374 249.163 143.374C249.012 143.374 248.863 143.307 248.761 143.181C248.744 143.161 248.729 143.138 248.716 143.115C249.246 143.101 249.751 142.687 249.726 142.067C249.722 142.002 249.719 141.937 249.714 141.873C250.607 141.347 252.098 140.66 253.795 140.66C254.129 140.66 254.469 140.687 254.816 140.745C256.692 141.066 258.291 142.275 259.569 144.338C259.717 144.579 259.643 144.896 259.401 145.045L259.344 145.076C259.275 145.107 259.203 145.122 259.132 145.122Z" fill="#F4A2B0"/>
<path id="path262" d="M113.264 231.318H141.361L113.264 215.433V231.318Z" fill="#F9D8D0"/>
<path id="path264" d="M255.12 214.687C253.75 212.047 252.35 209.551 250.931 207.177C226.797 166.81 196.664 163.937 196.664 163.937L178.439 163.767L174.53 163.731C173.176 163.718 171.844 163.795 170.531 163.938C170.635 163.916 170.597 163.919 170.402 163.937L170.396 163.954C165.108 164.554 160.191 166.379 155.942 169.149C143.593 175.216 125.775 188.042 111.945 214.687L113.264 215.433L141.361 231.318L141.591 231.448L225.597 231.379L226.421 230.913L226.773 230.714L251.821 216.552L255.12 214.687Z" fill="#6C92D3"/>
<path id="path266" d="M163.817 163.823C188.48 163.823 227.393 160.108 228.556 136.094C228.556 136.094 226.053 71.4141 204.738 63.0866C198.282 60.5649 191.488 59.5148 185.462 59.7656C179.437 59.5148 172.643 60.5649 166.187 63.0866C144.872 71.4141 144.485 100.656 144.485 100.656C145.647 124.669 141.19 122.152 132.471 137.45C132.263 137.813 132.069 138.177 131.886 138.54C125.386 151.487 135.509 166.288 150.003 166.127C158.061 166.038 163.399 163.823 163.817 163.823" fill="#8B8B9A"/>
<path id="path268" d="M210.555 103.957H210.546V95.2733C210.546 82.7952 200.752 72.6802 188.669 72.6802H183.172C171.089 72.6802 161.294 82.7952 161.294 95.2733V103.957H161.285C156.947 103.957 153.431 107.471 153.431 111.807C153.431 116.142 156.947 119.656 161.285 119.656H161.294V125.047C161.294 134.936 167.457 143.32 176.026 146.382V163.46C176.026 168.921 180.455 173.349 185.92 173.349C191.385 173.349 195.815 168.921 195.815 163.46V146.367C204.382 143.307 210.546 134.935 210.546 125.047V119.656H210.555C214.893 119.656 218.409 116.142 218.409 111.807C218.409 107.471 214.893 103.957 210.555 103.957" fill="#F9D8D0"/>
<path id="path270" d="M176.085 154.77V146.406C178.311 147.193 180.687 147.64 183.172 147.64H188.669C190.698 147.64 192.655 147.333 194.519 146.799L194.847 147.015L176.085 154.77" fill="#F7BFC0"/>
<path id="path272" d="M204.157 120.702H199.318C197.792 120.702 196.553 119.465 196.553 117.939C196.553 116.412 197.792 115.175 199.318 115.175H204.157C205.684 115.175 206.922 116.412 206.922 117.939C206.922 119.465 205.684 120.702 204.157 120.702Z" fill="#F7B9BF"/>
<path id="path274" d="M175.124 120.702H170.286C168.758 120.702 167.52 119.465 167.52 117.939C167.52 116.412 168.758 115.175 170.286 115.175H175.124C176.652 115.175 177.889 116.412 177.889 117.939C177.889 119.465 176.652 120.702 175.124 120.702Z" fill="#F7B9BF"/>
<path id="path276" d="M188.43 135.905C188.242 135.905 188.06 135.808 187.959 135.634C187.378 134.629 186.296 134.006 185.136 134.006C183.977 134.006 182.896 134.629 182.314 135.634C182.163 135.893 181.832 135.981 181.572 135.831C181.312 135.682 181.223 135.349 181.374 135.09C182.149 133.752 183.591 132.92 185.136 132.92C186.683 132.92 188.125 133.752 188.899 135.09C189.05 135.349 188.961 135.682 188.702 135.831L188.43 135.905Z" fill="#F17B99"/>
<path id="path278" d="M198.14 113.27C198.937 113.27 199.582 112.624 199.582 111.828V108.946C199.582 108.149 198.937 107.505 198.14 107.505C197.344 107.505 196.698 108.149 196.698 108.946V111.828C196.698 112.624 197.344 113.27 198.14 113.27Z" fill="#322E44"/>
<path id="path280" d="M176.51 113.27C177.307 113.27 177.952 112.624 177.952 111.828V108.946C177.952 108.149 177.307 107.505 176.51 107.505C175.714 107.505 175.068 108.149 175.068 108.946V111.828C175.068 112.624 175.714 113.27 176.51 113.27Z" fill="#322E44"/>
<path id="path282" d="M193.911 102.573C194.463 102.999 195.286 103.13 196.074 103.301C196.87 103.457 197.667 103.632 198.353 103.811C199.042 103.988 199.826 104.219 200.598 104.468C201.371 104.699 202.159 104.983 202.839 104.875C203.493 104.777 203.918 104.124 203.447 103.064C203.011 102.039 201.533 100.667 199.258 100.073C196.982 99.4915 195.052 99.9868 194.199 100.68C193.301 101.386 193.379 102.169 193.911 102.573" fill="#8B8B9A"/>
<path id="path284" d="M171.518 105.633C172.198 105.708 172.955 105.396 173.701 105.136C174.448 104.859 175.205 104.599 175.871 104.397C176.539 104.193 177.311 103.985 178.086 103.8C178.852 103.598 179.656 103.434 180.17 102.994C180.668 102.578 180.69 101.813 179.752 101.168C178.862 100.533 176.923 100.139 174.714 100.807C172.51 101.484 171.149 102.885 170.79 103.901C170.401 104.952 170.865 105.566 171.518 105.633" fill="#8B8B9A"/>
<path id="path286" d="M179.071 114.622L178.827 114.564C176.373 113.337 174.551 114.518 174.533 114.53C174.283 114.695 173.946 114.628 173.78 114.379C173.613 114.13 173.681 113.793 173.931 113.627C174.025 113.563 176.301 112.088 179.314 113.593C179.582 113.727 179.691 114.053 179.556 114.322C179.461 114.512 179.269 114.622 179.071 114.622" fill="#F17B99"/>
<path id="path288" d="M201.191 114.622L200.947 114.564C198.493 113.337 196.672 114.518 196.653 114.53C196.403 114.695 196.066 114.628 195.9 114.379C195.734 114.13 195.801 113.793 196.051 113.627C196.145 113.563 198.421 112.088 201.434 113.593C201.703 113.727 201.811 114.053 201.677 114.322C201.581 114.512 201.39 114.622 201.191 114.622" fill="#F17B99"/>
<path id="path290" d="M187.044 119.18H184.945C184.645 119.18 184.402 118.936 184.402 118.637C184.402 118.336 184.645 118.094 184.945 118.094H187.044C189.236 118.094 191.019 116.534 191.019 114.616V113.453C191.019 112.9 190.484 112.45 189.825 112.45C188.153 112.45 186.793 111.214 186.793 109.693V104.019C186.793 103.718 187.036 103.476 187.337 103.476C187.637 103.476 187.88 103.718 187.88 104.019V109.693C187.88 110.614 188.753 111.364 189.825 111.364C191.082 111.364 192.106 112.301 192.106 113.453V114.616C192.106 117.133 189.835 119.18 187.044 119.18Z" fill="#F17B99"/>
<path id="path292" d="M184.07 138.567H188.617C190.037 138.567 191.19 137.417 191.19 135.997V130.974C191.19 130.116 190.493 129.42 189.634 129.42H174.917C174.917 134.472 179.015 138.567 184.07 138.567Z" fill="white"/>
<path id="path294" d="M216.525 111.91C216.225 111.91 215.981 111.667 215.981 111.367C215.981 107.147 212.258 107.075 212.1 107.074C211.8 107.072 211.558 106.829 211.559 106.529C211.56 106.229 211.802 105.988 212.101 105.988C212.151 105.988 217.068 106.049 217.068 111.367C217.068 111.667 216.826 111.91 216.525 111.91Z" fill="#F17B99"/>
<path id="path296" d="M155.418 111.91C155.118 111.91 154.875 111.667 154.875 111.367C154.875 106.049 159.792 105.988 159.842 105.988C160.141 105.988 160.383 106.229 160.384 106.529C160.385 106.829 160.143 107.072 159.843 107.074C159.685 107.075 155.961 107.147 155.961 111.367C155.961 111.667 155.718 111.91 155.418 111.91Z" fill="#F17B99"/>
<path id="path298" d="M158.387 125.766C157.811 125.766 157.344 125.3 157.344 124.725V116.392C157.344 115.816 157.811 115.35 158.387 115.35C158.963 115.35 159.429 115.816 159.429 116.392V124.725C159.429 125.3 158.963 125.766 158.387 125.766Z" fill="#322E44"/>
<path id="path300" d="M213.628 125.766C213.052 125.766 212.584 125.3 212.584 124.725V116.392C212.584 115.816 213.052 115.35 213.628 115.35C214.204 115.35 214.67 115.816 214.67 116.392V124.725C214.67 125.3 214.204 125.766 213.628 125.766Z" fill="#322E44"/>
<path id="path302" d="M179.357 65.9646C161.116 68.9945 156.236 91.5681 156.236 91.5681C153.407 110.343 171.431 106.801 171.431 106.801C176.764 106.876 180.993 96.719 183.342 89.4222C191.524 88.9421 205.403 87.0775 207.784 79.9664C211.013 70.3205 195.017 63.3636 179.357 65.9646Z" fill="#8B8B9A"/>
<path id="path304" d="M165.615 167.158C165.91 168.675 167.38 169.667 168.898 169.371C170.417 169.077 171.408 167.608 171.114 166.09C170.818 164.572 169.348 163.581 167.83 163.876C166.312 164.17 165.32 165.64 165.615 167.158" fill="#322E44"/>
<path id="path306" d="M168.799 172.528C169.094 174.045 170.564 175.037 172.082 174.741C173.601 174.446 174.593 172.978 174.298 171.46C174.003 169.942 172.533 168.951 171.014 169.246C169.496 169.541 168.504 171.01 168.799 172.528Z" fill="#322E44"/>
<path id="path308" d="M173.912 176.81C174.207 178.328 175.677 179.319 177.196 179.024C178.713 178.729 179.706 177.26 179.411 175.742C179.115 174.225 177.646 173.234 176.127 173.528C174.609 173.824 173.617 175.293 173.912 176.81Z" fill="#322E44"/>
<path id="path310" d="M179.807 178.516C180.103 180.034 181.572 181.025 183.091 180.731C184.609 180.435 185.601 178.966 185.306 177.449C185.011 175.932 183.541 174.94 182.022 175.235C180.504 175.53 179.512 176.999 179.807 178.516Z" fill="#322E44"/>
<path id="path312" d="M186.1 177.865C186.396 179.382 187.866 180.374 189.384 180.078C190.902 179.784 191.894 178.315 191.599 176.796C191.304 175.279 189.834 174.289 188.315 174.583C186.797 174.879 185.806 176.348 186.1 177.865Z" fill="#322E44"/>
<path id="path314" d="M192.402 175.785C192.696 177.303 194.166 178.294 195.686 178C197.204 177.704 198.196 176.235 197.9 174.718C197.605 173.2 196.135 172.209 194.616 172.504C193.098 172.799 192.106 174.268 192.402 175.785Z" fill="#322E44"/>
<path id="path316" d="M197.476 171.806C197.772 173.323 199.242 174.315 200.76 174.019C202.28 173.725 203.271 172.256 202.976 170.737C202.681 169.22 201.21 168.23 199.692 168.524C198.173 168.819 197.182 170.289 197.476 171.806Z" fill="#322E44"/>
<path id="path318" d="M201.349 166.777C201.645 168.294 203.115 169.285 204.633 168.99C206.151 168.696 207.143 167.226 206.848 165.708C206.553 164.191 205.083 163.199 203.565 163.495C202.046 163.789 201.055 165.258 201.349 166.777Z" fill="#322E44"/>
</g>
<g id="guy1laptop">
<path id="path320" d="M502.723 396.13L204.127 395.982L204.226 196.032C204.227 192.687 206.942 189.977 210.289 189.979L496.765 190.12C500.112 190.122 502.824 192.835 502.822 196.181L502.723 396.13" fill="#3C419F"/>
<path id="path324" d="M534.337 432.316L172.041 432.137C168.11 432.136 164.924 429.923 164.925 427.194L164.929 419.408C164.93 418.639 165.828 418.016 166.937 418.017L539.765 418.202C540.875 418.202 541.773 418.826 541.773 419.595L541.768 427.164C541.767 430.012 538.44 432.319 534.337 432.316" fill="#3C419F"/>
<path id="path326" d="M223.966 380.524L482.899 380.652C486.564 380.654 489.536 377.686 489.538 374.024L489.617 213.101C489.619 209.439 486.649 206.47 482.986 206.467L224.052 206.339C220.389 206.338 217.417 209.305 217.415 212.966L217.335 373.89C217.333 377.552 220.302 380.522 223.966 380.524Z" fill="white"/>
<path id="path328" d="M489.615 218.133L489.617 213.101C489.619 209.439 486.649 206.47 482.986 206.468L224.052 206.34C220.389 206.339 217.417 209.304 217.415 212.966L217.412 218.016L489.615 218.133Z" fill="#F17B99"/>
<path id="path330" d="M465.593 213.091C465.593 213.938 464.906 214.624 464.059 214.623C463.212 214.623 462.526 213.936 462.526 213.09C462.526 212.244 463.214 211.558 464.061 211.559C464.908 211.559 465.593 212.245 465.593 213.091Z" fill="white"/>
<path id="path332" d="M471.727 213.095C471.726 213.942 471.039 214.627 470.193 214.626C469.346 214.626 468.66 213.94 468.661 213.094C468.661 212.247 469.347 211.561 470.195 211.561C471.042 211.562 471.727 212.249 471.727 213.095" fill="white"/>
<path id="path334" d="M477.861 213.098C477.86 213.944 477.174 214.63 476.326 214.629C475.479 214.629 474.793 213.943 474.794 213.097C474.794 212.25 475.48 211.564 476.327 211.564C477.175 211.566 477.861 212.251 477.861 213.098" fill="white"/>
<path id="path336" d="M464.168 358.147L240.507 358.037L240.567 237.213L322.219 237.253L316.695 237.25L279.502 237.233L279.464 315.988L425.254 316.061L425.293 237.304L388.101 237.286L361.016 237.273L464.228 237.324L464.168 358.147Z" fill="#F4F7FC"/>
<path id="path338" d="M425.254 316.061L279.464 315.988L279.502 237.233L316.695 237.251L316.675 275.825L388.081 275.861L388.101 237.286L425.293 237.304L425.254 316.061" fill="#E5EEF9"/>
<path id="path340" d="M388.101 237.286L361.016 237.273L388.101 237.286ZM322.219 237.254L316.695 237.252V237.251L322.219 237.254Z" fill="#E5EEF9"/>
<path id="path342" d="M388.081 275.861L316.675 275.825L316.695 237.25L322.219 237.254C323.316 237.766 324.432 238.122 325.525 238.308L323.31 263.368C323.307 270.137 328.795 275.626 335.568 275.63L343.704 275.634C343.704 275.634 343.707 275.634 343.709 275.634C351.009 275.634 356.927 269.723 356.931 262.427L354.741 238.528H354.778C354.78 238.528 354.783 238.528 354.786 238.528C356.99 238.528 359.096 238.081 361.016 237.273L388.101 237.286L388.081 275.861Z" fill="#D8E6F7"/>
<path id="path344" d="M541.774 418.408H540.818C540.512 418.278 540.151 418.202 539.766 418.202L166.937 418.017C166.936 418.017 166.935 418.017 166.933 418.017C166.854 418.017 166.777 418.02 166.701 418.027L173.052 414.301C173.311 414.304 173.561 414.307 173.821 414.31L167.555 418.017L541.148 418.034L541.774 418.408" fill="#545CB3"/>
<path id="path346" d="M173.821 414.311C173.561 414.307 173.311 414.304 173.052 414.301L198.475 399.387C198.668 399.388 198.846 399.389 199.039 399.389L173.821 414.311" fill="#545BB2"/>
<path id="path348" d="M199.039 399.389C198.846 399.389 198.669 399.388 198.475 399.387L204.279 395.982H204.797L199.039 399.389Z" fill="#535AB2"/>
<path id="path350" d="M204.797 395.982H204.279L205.279 395.396L232.009 395.417L205.627 395.492L204.797 395.982" fill="#3C419F"/>
<path id="path352" d="M540.819 418.408L166.088 418.386L166.701 418.027C166.777 418.02 166.854 418.017 166.934 418.017C166.935 418.017 166.936 418.017 166.937 418.017L539.766 418.202C540.151 418.202 540.512 418.278 540.819 418.408Z" fill="#3C419F"/>
<path id="path354" d="M541.425 418.034H541.148L534.901 414.299C534.989 414.297 535.074 414.295 535.162 414.293L541.425 418.034" fill="#5360B6"/>
<path id="path356" d="M534.901 414.299L511.043 400.036C511.134 400.036 511.206 400.036 511.297 400.036L535.162 414.293C535.074 414.295 534.989 414.297 534.901 414.299Z" fill="#525FB5"/>
<path id="path358" d="M511.043 400.036L503.689 395.64L502.724 395.639V394.915L511.297 400.036C511.206 400.036 511.134 400.036 511.043 400.036Z" fill="#525FB5"/>
<path id="path360" d="M502.724 395.639L232.009 395.417L502.286 394.653L502.724 394.915V395.639" fill="#4C5AB2"/>
<path id="path362" d="M541.148 418.034L167.555 418.017L173.821 414.31C230.213 415.04 307.083 415.721 381.395 415.722C437.245 415.722 491.67 415.337 534.901 414.299L541.148 418.034Z" fill="#4F5DB3"/>
<path id="path364" d="M381.395 415.722C307.083 415.721 230.213 415.04 173.821 414.31L199.039 399.389C289.618 399.756 423.607 400.036 508.984 400.036C509.67 400.036 510.364 400.036 511.043 400.036L534.901 414.299C491.67 415.337 437.245 415.722 381.395 415.722Z" fill="#4F5DB3"/>
<path id="path366" d="M508.984 400.036C423.607 400.036 289.618 399.756 199.039 399.389L204.797 395.982L502.723 396.13L502.724 395.639L503.689 395.64L511.043 400.036C510.364 400.036 509.67 400.036 508.984 400.036" fill="#4F5DB3"/>
<path id="path368" d="M502.723 396.13L204.797 395.982L205.626 395.492L232.009 395.417L502.724 395.639L502.723 396.13Z" fill="#4C5AB2"/>
<path id="path370" d="M225.146 399.584C224.041 399.583 222.965 399.933 222.071 400.58L205.493 412.606L503.492 412.661L488.163 401.647C486.464 400.425 484.422 399.767 482.328 399.765L225.146 399.584Z" fill="#3C419F"/>
</g>
<g id="guy1">
<path id="path372" d="M425.85 317.777L438.475 336.066C438.691 336.285 438.297 335.156 438.475 334.907L458.282 302.462L458.223 302.437L459.948 299.732L466.193 289.501C461.693 284.78 460.579 274.615 460.609 274.635L458.401 267.681C458.003 266.423 458.544 264.991 459.755 264.469C461.151 263.869 462.721 264.61 463.168 266.019C463.168 266.019 464.426 270.008 465.254 272.638C465.598 273.733 467.145 273.84 467.597 272.784C468.255 271.247 468.259 269.449 468.085 267.999L464.28 250.046C463.993 248.684 464.866 247.347 466.229 247.059C467.648 247.06 469.046 248.195 469.34 249.582L471.966 262.05C472.084 262.607 472.576 263.006 473.146 263.006H473.538C474.198 263.006 474.747 262.493 474.792 261.834L475.879 245.899C475.97 244.583 477 243.449 478.318 243.407C479.835 243.359 481.025 244.624 480.924 246.098L479.865 261.599C479.811 262.407 480.352 263.136 481.142 263.317C482.15 263.548 483.156 262.918 483.387 261.909L486.48 248.377C486.774 247.091 487.967 246.132 489.277 246.296C490.783 246.485 491.761 247.919 491.432 249.36L488.216 263.423C488.002 264.357 488.097 265.334 488.485 266.211C488.942 267.243 490.402 267.262 490.883 266.24L493.657 260.369C494.22 259.176 495.592 258.494 496.836 258.937C498.266 259.443 498.913 261.054 498.282 262.391L492.51 275.329C488.24 286.977 483.616 293.752 482.02 295.899L476.773 306.898L475.629 309.406L475.584 309.388L448.467 366.218C444.232 375.092 432.508 377.148 425.504 370.246L402.491 344.168L425.85 317.777" fill="#F9D8D0"/>
<path id="path376" d="M394.462 344.035L401.774 346.475L429.936 316.084C409.435 277.425 384.207 262.843 369.557 257.408C363.834 255.284 357.771 254.247 351.667 254.244L331.272 254.235C325.753 254.232 320.246 255.119 315.091 257.088C270.529 274.109 254.298 342.747 254.298 342.747L260.343 343.754L289.641 348.64L289.625 380.068L394.445 380.12L394.462 344.035Z" fill="#F17B99"/>
<path id="path378" d="M289.208 348.639L260.579 344.022L260.562 380.054L289.193 380.068L289.208 348.639Z" fill="#F9D8D0"/>
<path id="path384" d="M382.428 165.471C376.304 152.051 365.435 157.475 365.435 157.475C362.305 149.556 353.425 140.177 341.14 139.105C332.194 138.326 327.762 142.103 324.81 143.189C317.863 139.299 311.025 139.111 306.038 144.428C298.712 152.238 301.682 159.306 303.615 162.32C304.16 163.491 306.776 167.521 309.14 168.827C305.123 178.358 301.947 193.98 323.366 195.465L368.172 197.735C368.172 197.735 371.596 194.844 375.231 190.437C380.584 183.948 386.399 174.168 382.428 165.471" fill="#322E44"/>
<path id="path386" d="M375.231 190.438C371.596 194.845 368.172 197.735 368.172 197.735L366.644 180.628C360.004 180.15 358.321 175.467 358.218 171.112L346.834 171.054C330.559 173.108 316.595 170.706 313.465 170.097L312.734 170.154C312.671 170.286 312.557 170.457 312.378 170.581L312.37 189.424H311.617C306.721 189.422 302.752 193.385 302.75 198.277V199.239C302.746 204.13 306.713 208.098 311.607 208.1L312.36 208.101L312.353 220.916C312.348 230.694 319.297 237.247 325.525 238.308L323.31 263.368C323.307 270.137 328.795 275.627 335.568 275.63L343.704 275.634C351.005 275.638 356.927 269.724 356.931 262.427L354.741 238.529H354.778C363.665 238.533 370.939 231.271 370.943 222.39L370.951 208.13H371.18C376.074 208.132 380.045 204.168 380.047 199.277V198.315C380.05 194.88 378.09 191.908 375.231 190.438" fill="#F9D8D0"/>
<path id="path388" d="M355.609 249.506L326.274 238.327C326.86 238.441 327.458 238.515 328.072 238.516L354.528 238.529L355.609 249.506" fill="#F7BFC0"/>
<path id="path392" d="M376.642 198.851C376.848 198.851 377.014 198.685 377.015 198.478C377.017 194.453 373.297 194.404 373.259 194.404C373.052 194.404 372.887 194.57 372.886 194.775C372.885 194.981 373.051 195.149 373.258 195.15C373.381 195.151 376.27 195.206 376.268 198.477C376.268 198.684 376.435 198.851 376.642 198.851Z" fill="#F17B99"/>
<path id="path394" d="M305.883 198.816C305.677 198.816 305.511 198.649 305.511 198.442C305.513 194.417 309.233 194.372 309.271 194.372C309.476 194.372 309.642 194.538 309.643 194.743C309.643 194.95 309.477 195.117 309.272 195.118C309.148 195.118 306.259 195.171 306.257 198.443C306.257 198.649 306.09 198.816 305.883 198.816" fill="#F17B99"/>
<path id="path396" d="M326.231 198.382C325.351 198.382 324.637 197.668 324.638 196.789L324.639 193.602C324.64 192.722 325.354 192.009 326.235 192.009C327.115 192.01 327.829 192.724 327.828 193.603L327.826 196.79C327.825 197.671 327.111 198.383 326.231 198.382" fill="#100F0D"/>
<path id="path398" d="M350.682 198.395C349.802 198.394 349.089 197.68 349.089 196.801L349.09 193.614C349.092 192.735 349.805 192.021 350.686 192.021C351.566 192.022 352.28 192.736 352.28 193.615L352.278 196.802C352.278 197.681 351.563 198.395 350.682 198.395" fill="#100F0D"/>
<path id="path400" d="M332.157 186.164C331.419 186.674 330.401 186.658 329.42 186.716C328.427 186.747 327.434 186.811 326.574 186.905C325.711 186.996 324.724 187.146 323.747 187.326C322.774 187.479 321.774 187.71 320.967 187.367C320.189 187.051 319.781 185.95 320.525 184.461C321.221 183.014 323.233 181.307 326.087 180.992C328.939 180.693 331.196 181.942 332.114 183.215C333.088 184.519 332.868 185.687 332.157 186.164" fill="#322E44"/>
<path id="path402" d="M358.891 188.799C357.946 189.068 356.931 188.724 355.923 188.464C354.917 188.174 353.896 187.916 352.995 187.73C352.093 187.543 351.043 187.373 349.991 187.237C348.954 187.074 347.857 186.981 347.188 186.378C346.537 185.81 346.574 184.578 347.923 183.331C349.206 182.11 351.915 181.057 354.903 181.665C357.883 182.29 359.64 184.269 360.045 185.838C360.492 187.457 359.797 188.553 358.891 188.799" fill="#322E44"/>
<path id="path404" d="M326.072 199.055C326.942 199.055 327.965 198.868 329.078 198.312C329.365 198.169 329.482 197.821 329.338 197.535C329.195 197.248 328.847 197.132 328.56 197.274C325.863 198.623 323.873 197.361 323.791 197.307C323.522 197.132 323.163 197.207 322.988 197.472C322.812 197.739 322.882 198.096 323.148 198.273C323.218 198.32 324.348 199.054 326.072 199.055" fill="#F17B99"/>
<path id="path406" d="M350.523 199.067C351.393 199.067 352.416 198.88 353.529 198.324C353.816 198.181 353.933 197.833 353.789 197.546C353.646 197.26 353.297 197.144 353.011 197.287C350.313 198.635 348.324 197.373 348.242 197.318C347.972 197.144 347.615 197.22 347.439 197.485C347.263 197.751 347.333 198.108 347.599 198.285C347.669 198.332 348.799 199.066 350.523 199.067" fill="#F17B99"/>
<path id="path408" d="M339.992 208.697L346.234 208.701C346.494 208.701 346.705 208.49 346.705 208.229C346.705 207.97 346.494 207.759 346.235 207.759L339.992 207.756C337.645 207.755 335.736 205.845 335.736 203.5L335.737 202.322C335.737 201.65 336.284 201.105 336.956 201.105C338.925 201.106 340.148 199.635 340.149 197.263L340.332 191.215C340.338 190.955 340.134 190.738 339.874 190.73C339.631 190.737 339.397 190.927 339.39 191.187L339.207 197.249C339.207 197.944 339.044 200.165 336.956 200.164C335.766 200.164 334.796 201.131 334.796 202.32L334.795 203.499C334.794 206.364 337.125 208.695 339.992 208.697" fill="#F17B99"/>
<path id="path410" d="M337.779 231.3L335.191 231.299C333.935 231.299 332.917 230.28 332.917 229.026L332.921 222.979L347.193 219.42L347.192 221.903C347.19 227.095 342.975 231.303 337.779 231.3" fill="white"/>
<path id="path412" d="M324.405 187.275C319.01 187.272 314.619 191.656 314.617 197.046C314.615 202.437 319.001 206.824 324.395 206.828C329.789 206.83 334.179 202.447 334.181 197.056C334.185 191.665 329.799 187.277 324.405 187.275ZM324.395 207.914C318.401 207.91 313.527 203.035 313.53 197.046C313.532 191.057 318.412 186.186 324.405 186.189C330.398 186.191 335.271 191.068 335.268 197.057C335.265 203.046 330.388 207.916 324.395 207.914Z" fill="#3C419F"/>
<path id="path414" d="M354.768 186.189C352.156 186.188 349.699 187.205 347.849 189.05C346.001 190.895 344.983 193.35 344.982 195.961C344.98 198.572 345.997 201.027 347.843 202.876C349.69 204.723 352.146 205.741 354.758 205.742C357.372 205.744 359.829 204.727 361.678 202.882C363.526 201.036 364.545 198.582 364.546 195.971C364.547 193.359 363.531 190.904 361.684 189.056C359.837 187.209 357.381 186.191 354.768 186.189V186.189ZM354.758 206.828C351.855 206.827 349.126 205.695 347.075 203.642C345.022 201.59 343.893 198.862 343.895 195.96C343.896 193.059 345.028 190.331 347.082 188.282C349.136 186.231 351.866 185.102 354.769 185.103C357.672 185.105 360.4 186.236 362.452 188.289C364.505 190.341 365.634 193.069 365.633 195.971C365.63 198.873 364.499 201.6 362.445 203.65C360.391 205.7 357.661 206.83 354.758 206.828" fill="#3C419F"/>
<path id="path416" d="M334.399 195.059C334.239 195.059 334.08 194.989 333.973 194.854C333.786 194.62 333.825 194.278 334.061 194.091C334.119 194.044 340.091 189.402 344.823 194.137C345.035 194.349 345.035 194.693 344.823 194.905C344.61 195.118 344.267 195.117 344.055 194.905C339.999 190.85 334.95 194.773 334.737 194.942C334.637 195.02 334.517 195.059 334.399 195.059" fill="#3C419F"/>
</g>
<g id="userIcon">
<path id="path418" d="M225.116 246.663C225.116 258.18 215.774 267.516 204.25 267.516C192.726 267.516 183.382 258.18 183.382 246.663C183.382 235.146 192.726 225.81 204.25 225.81C215.774 225.81 225.116 235.146 225.116 246.663Z" fill="white"/>
<path id="path420" d="M204.25 227.649C193.759 227.649 185.223 236.179 185.223 246.664C185.223 257.147 193.759 265.677 204.25 265.677C214.739 265.677 223.275 257.147 223.275 246.664C223.275 236.179 214.739 227.649 204.25 227.649ZM204.25 269.356C191.729 269.356 181.542 259.177 181.542 246.664C181.542 234.15 191.729 223.969 204.25 223.969C216.771 223.969 226.957 234.15 226.957 246.664C226.957 259.177 216.771 269.356 204.25 269.356Z" fill="#F17B99"/>
<path id="path422" d="M211.508 239.356C211.508 243.363 208.257 246.61 204.25 246.61C200.241 246.61 196.991 243.363 196.991 239.356C196.991 235.35 200.241 232.103 204.25 232.103C208.257 232.103 211.508 235.35 211.508 239.356Z" fill="#F17B99"/>
<path id="path424" d="M216.497 253.863C216.497 257.87 211.013 261.117 204.25 261.117C197.485 261.117 192.002 257.87 192.002 253.863C192.002 249.857 197.485 246.61 204.25 246.61C211.013 246.61 216.497 249.857 216.497 253.863Z" fill="#F17B99"/>
</g>
<g id="plus">
<path id="path426" d="M183.197 230.968H171.944C171.043 230.968 170.314 230.238 170.314 229.339C170.314 228.439 171.043 227.71 171.944 227.71H183.197C184.097 227.71 184.827 228.439 184.827 229.339C184.827 230.238 184.097 230.968 183.197 230.968Z" fill="#F17B99"/>
<path id="path428" d="M177.571 236.59C176.67 236.59 175.941 235.862 175.941 234.961V223.716C175.941 222.816 176.67 222.087 177.571 222.087C178.471 222.087 179.201 222.816 179.201 223.716V234.961C179.201 235.862 178.471 236.59 177.571 236.59Z" fill="#F17B99"/>
</g>
<g id="userIcon2">
<path id="path430" d="M396.48 85.9057C396.48 95.2333 388.913 102.795 379.58 102.795C370.247 102.795 362.681 95.2333 362.681 85.9057C362.681 76.5791 370.247 69.0173 379.58 69.0173C388.913 69.0173 396.48 76.5791 396.48 85.9057" fill="white"/>
<path id="path432" d="M379.581 70.5062C371.085 70.5062 364.171 77.4154 364.171 85.9068C364.171 94.396 371.085 101.304 379.581 101.304C388.077 101.304 394.989 94.396 394.989 85.9068C394.989 77.4154 388.077 70.5062 379.581 70.5062V70.5062ZM379.581 104.285C369.44 104.285 361.189 96.0413 361.189 85.9068C361.189 75.7722 369.44 67.5262 379.581 67.5262C389.722 67.5262 397.971 75.7722 397.971 85.9068C397.971 96.0413 389.722 104.285 379.581 104.285Z" fill="#6C92D3"/>
<path id="path434" d="M385.458 79.9882C385.458 83.2331 382.826 85.8623 379.58 85.8623C376.334 85.8623 373.702 83.2331 373.702 79.9882C373.702 76.7443 376.334 74.114 379.58 74.114C382.826 74.114 385.458 76.7443 385.458 79.9882Z" fill="#6C92D3"/>
<path id="path436" d="M389.499 91.7376C389.499 94.9815 385.058 97.6118 379.58 97.6118C374.102 97.6118 369.661 94.9815 369.661 91.7376C369.661 88.4927 374.102 85.8624 379.58 85.8624C385.058 85.8624 389.499 88.4927 389.499 91.7376Z" fill="#6C92D3"/>
</g>
<g id="plus2">
<path id="path438" d="M362.531 73.5049H353.417C352.517 73.5049 351.787 72.7751 351.787 71.8759C351.787 70.9756 352.517 70.2469 353.417 70.2469H362.531C363.431 70.2469 364.161 70.9756 364.161 71.8759C364.161 72.7751 363.431 73.5049 362.531 73.5049Z" fill="#6C92D3"/>
<path id="path440" d="M357.974 78.0583C357.074 78.0583 356.344 77.3296 356.344 76.4293V67.3211C356.344 66.4218 357.074 65.6921 357.974 65.6921C358.874 65.6921 359.604 66.4218 359.604 67.3211V76.4293C359.604 77.3296 358.874 78.0583 357.974 78.0583Z" fill="#6C92D3"/>
</g>
<g id="dottedLines">
<path id="path442" d="M518.198 348.605H516.024C515.723 348.605 515.481 348.362 515.481 348.062C515.481 347.763 515.723 347.519 516.024 347.519H518.198C518.497 347.519 518.741 347.763 518.741 348.062C518.741 348.362 518.497 348.605 518.198 348.605ZM529.053 348.381C528.779 348.381 528.544 348.174 528.514 347.896C528.482 347.598 528.698 347.331 528.996 347.298C529.707 347.221 530.415 347.122 531.116 347.005C531.146 347 531.176 346.997 531.206 346.997C531.462 346.997 531.696 347.185 531.741 347.452C531.791 347.746 531.591 348.027 531.294 348.077C530.574 348.197 529.846 348.298 529.113 348.377L529.053 348.381V348.381ZM541.51 344.768C541.309 344.768 541.115 344.656 541.021 344.463C540.889 344.194 541.001 343.868 541.271 343.737C541.912 343.423 542.542 343.091 543.16 342.741C543.245 342.693 543.336 342.67 543.428 342.67C543.616 342.67 543.8 342.768 543.902 342.946C544.049 343.207 543.957 343.538 543.696 343.687C543.058 344.048 542.408 344.389 541.748 344.712L541.51 344.768V344.768ZM551.995 337.136C551.859 337.136 551.722 337.086 551.618 336.984C551.402 336.776 551.395 336.431 551.605 336.216C552.1 335.704 552.583 335.177 553.049 334.637C553.158 334.512 553.31 334.449 553.463 334.449C553.588 334.449 553.714 334.492 553.815 334.58C554.043 334.776 554.067 335.118 553.873 335.345C553.391 335.903 552.896 336.444 552.386 336.971C552.28 337.082 552.137 337.136 551.995 337.136V337.136ZM559.285 326.413L559.063 326.365C558.789 326.243 558.667 325.92 558.79 325.647C559.083 324.999 559.358 324.339 559.615 323.67C559.697 323.454 559.905 323.321 560.123 323.321C560.187 323.321 560.253 323.332 560.316 323.357C560.596 323.465 560.736 323.778 560.629 324.058C560.366 324.746 560.083 325.425 559.781 326.093C559.69 326.295 559.493 326.413 559.285 326.413ZM562.492 313.848L562.451 313.847C562.152 313.825 561.928 313.564 561.949 313.265C562.002 312.559 562.036 311.844 562.05 311.127C562.055 310.831 562.299 310.594 562.593 310.594H562.604C562.903 310.6 563.142 310.847 563.137 311.148C563.123 311.885 563.087 312.618 563.033 313.345C563.013 313.631 562.774 313.848 562.492 313.848V313.848ZM562.601 300.821C562.301 300.821 562.058 300.578 562.058 300.278V298.106C562.058 297.807 562.301 297.563 562.601 297.563C562.901 297.563 563.144 297.807 563.144 298.106V300.278C563.144 300.578 562.901 300.821 562.601 300.821ZM562.601 287.789C562.301 287.789 562.058 287.546 562.058 287.246V285.074C562.058 284.775 562.301 284.531 562.601 284.531C562.901 284.531 563.144 284.775 563.144 285.074V287.246C563.144 287.546 562.901 287.789 562.601 287.789ZM562.601 274.757C562.301 274.757 562.058 274.514 562.058 274.214V272.042C562.058 271.743 562.301 271.499 562.601 271.499C562.901 271.499 563.144 271.743 563.144 272.042V274.214C563.144 274.514 562.901 274.757 562.601 274.757ZM562.601 261.725C562.301 261.725 562.058 261.482 562.058 261.182V259.01C562.058 258.711 562.301 258.467 562.601 258.467C562.901 258.467 563.144 258.711 563.144 259.01V261.182C563.144 261.482 562.901 261.725 562.601 261.725ZM562.601 248.693C562.301 248.693 562.058 248.45 562.058 248.15V245.978C562.058 245.679 562.301 245.435 562.601 245.435C562.901 245.435 563.144 245.679 563.144 245.978V248.15C563.144 248.45 562.901 248.693 562.601 248.693ZM562.601 235.662C562.301 235.662 562.058 235.418 562.058 235.119V232.947C562.058 232.647 562.301 232.404 562.601 232.404C562.901 232.404 563.144 232.647 563.144 232.947V235.119C563.144 235.418 562.901 235.662 562.601 235.662Z" fill="#F0C5D6"/>
<path id="path444" d="M318.274 31.4939H316.1C315.8 31.4939 315.557 31.2517 315.557 30.9509C315.557 30.65 315.8 30.4079 316.1 30.4079H318.274C318.575 30.4079 318.817 30.65 318.817 30.9509C318.817 31.2517 318.575 31.4939 318.274 31.4939ZM331.314 31.4939H329.14C328.84 31.4939 328.597 31.2517 328.597 30.9509C328.597 30.65 328.84 30.4079 329.14 30.4079H331.314C331.615 30.4079 331.857 30.65 331.857 30.9509C331.857 31.2517 331.615 31.4939 331.314 31.4939ZM344.354 31.4939H342.18C341.88 31.4939 341.637 31.2517 341.637 30.9509C341.637 30.65 341.88 30.4079 342.18 30.4079H344.354C344.655 30.4079 344.897 30.65 344.897 30.9509C344.897 31.2517 344.655 31.4939 344.354 31.4939ZM357.394 31.4939H355.22C354.92 31.4939 354.677 31.2517 354.677 30.9509C354.677 30.65 354.92 30.4079 355.22 30.4079H357.394C357.695 30.4079 357.937 30.65 357.937 30.9509C357.937 31.2517 357.695 31.4939 357.394 31.4939ZM370.434 31.4939H368.26C367.96 31.4939 367.717 31.2517 367.717 30.9509C367.717 30.65 367.96 30.4079 368.26 30.4079H370.434C370.735 30.4079 370.977 30.65 370.977 30.9509C370.977 31.2517 370.735 31.4939 370.434 31.4939ZM383.474 31.4939H381.3C381 31.4939 380.757 31.2517 380.757 30.9509C380.757 30.65 381 30.4079 381.3 30.4079H383.474C383.775 30.4079 384.017 30.65 384.017 30.9509C384.017 31.2517 383.775 31.4939 383.474 31.4939ZM396.514 31.4939H394.34C394.04 31.4939 393.797 31.2517 393.797 30.9509C393.797 30.65 394.04 30.4079 394.34 30.4079H396.514C396.815 30.4079 397.057 30.65 397.057 30.9509C397.057 31.2517 396.815 31.4939 396.514 31.4939ZM303.06 31.4982C302.763 31.4982 302.52 31.2582 302.517 30.9606C302.514 30.6598 302.755 30.4144 303.055 30.4122L305.234 30.4079C305.535 30.4079 305.777 30.65 305.777 30.9509C305.777 31.2517 305.535 31.4939 305.234 31.4939L303.067 31.4982H303.06ZM409.507 32.1704L409.396 32.1596C408.705 32.0162 407.998 31.8946 407.291 31.7969C406.995 31.7567 406.786 31.4819 406.827 31.1855C406.868 30.8868 407.151 30.6815 407.44 30.7217C408.17 30.8227 408.903 30.9487 409.617 31.0964C409.91 31.1572 410.099 31.445 410.037 31.7382C409.985 31.9945 409.759 32.1704 409.507 32.1704V32.1704ZM290.203 33.3791C289.966 33.3791 289.749 33.2249 289.68 32.9871C289.598 32.6982 289.764 32.3974 290.052 32.3149C290.754 32.1129 291.462 31.9261 292.177 31.7556C292.472 31.6872 292.762 31.8663 292.832 32.1574C292.901 32.4495 292.722 32.7428 292.429 32.8123C291.731 32.9784 291.039 33.1609 290.353 33.3585L290.203 33.3791ZM421.407 37.2768C421.3 37.2768 421.192 37.2453 421.097 37.1801C420.514 36.7751 419.914 36.3885 419.302 36.0225C419.045 35.8683 418.96 35.5348 419.115 35.2775C419.27 35.019 419.604 34.9365 419.861 35.0896C420.488 35.4653 421.112 35.8683 421.718 36.2875C421.963 36.458 422.025 36.7957 421.855 37.0422C421.748 37.1953 421.58 37.2768 421.407 37.2768V37.2768ZM278.313 38.6147C278.129 38.6147 277.951 38.5235 277.849 38.3563C277.691 38.1011 277.773 37.7655 278.028 37.6091C278.651 37.2279 279.283 36.8598 279.923 36.5057C280.184 36.3602 280.516 36.4547 280.662 36.7186C280.808 36.9803 280.712 37.3105 280.45 37.456C279.823 37.8035 279.205 38.163 278.596 38.5355L278.313 38.6147ZM430.384 46.6045C430.206 46.6045 430.03 46.5165 429.926 46.3547C429.542 45.753 429.141 45.1655 428.719 44.5921C428.542 44.351 428.594 44.0111 428.835 43.833C429.076 43.6571 429.417 43.707 429.596 43.9503C430.03 44.5422 430.446 45.1492 430.841 45.7694C431.003 46.0224 430.929 46.3579 430.677 46.5197C430.586 46.5773 430.485 46.6045 430.384 46.6045ZM268.234 46.8173C268.1 46.8173 267.966 46.7685 267.862 46.6707C267.643 46.4655 267.632 46.1212 267.837 45.9029C268.339 45.3697 268.852 44.8462 269.377 44.3358C269.591 44.1262 269.934 44.1317 270.145 44.3467C270.354 44.5617 270.349 44.9049 270.134 45.1145C269.621 45.614 269.119 46.1234 268.63 46.6457C268.523 46.7598 268.378 46.8173 268.234 46.8173ZM260.675 57.3906L260.422 57.3266C260.157 57.1876 260.054 56.8585 260.196 56.5935C260.539 55.9441 260.895 55.3044 261.267 54.6734C261.419 54.415 261.753 54.327 262.01 54.4802C262.269 54.6322 262.356 54.9645 262.204 55.223C261.842 55.8398 261.492 56.4664 261.156 57.1017C261.058 57.2853 260.869 57.3906 260.675 57.3906V57.3906ZM435.017 58.6884C434.757 58.6884 434.526 58.5005 434.483 58.2344C434.368 57.5416 434.225 56.8379 434.062 56.1428C433.993 55.8507 434.173 55.5586 434.465 55.4891C434.759 55.4228 435.051 55.6009 435.12 55.893C435.289 56.6119 435.436 57.3396 435.554 58.0563C435.603 58.3528 435.403 58.6319 435.108 58.6808L435.017 58.6884ZM256.204 69.5897L256.087 69.5766C255.795 69.5125 255.609 69.2226 255.673 68.9294C255.831 68.2126 256.004 67.5024 256.192 66.7965C256.271 66.5076 256.574 66.3349 256.857 66.412C257.148 66.4891 257.319 66.7867 257.242 67.0766C257.058 67.7663 256.889 68.4624 256.735 69.1629C256.679 69.417 256.454 69.5897 256.204 69.5897ZM255.074 82.5359C254.774 82.5359 254.531 82.2926 254.531 81.9929V79.8209C254.531 79.5211 254.774 79.2779 255.074 79.2779C255.374 79.2779 255.618 79.5211 255.618 79.8209V81.9929C255.618 82.2926 255.374 82.5359 255.074 82.5359ZM255.074 95.5679C254.774 95.5679 254.531 95.3246 254.531 95.0249V92.8529C254.531 92.5531 254.774 92.3099 255.074 92.3099C255.374 92.3099 255.618 92.5531 255.618 92.8529V95.0249C255.618 95.3246 255.374 95.5679 255.074 95.5679Z" fill="#F17B99"/>
<path id="path446" d="M163.794 249.78C163.494 249.78 163.251 249.536 163.251 249.237V247.065C163.251 246.765 163.494 246.522 163.794 246.522C164.094 246.522 164.338 246.765 164.338 247.065V249.237C164.338 249.536 164.094 249.78 163.794 249.78ZM163.794 262.812C163.494 262.812 163.251 262.568 163.251 262.269V260.097C163.251 259.797 163.494 259.554 163.794 259.554C164.094 259.554 164.338 259.797 164.338 260.097V262.269C164.338 262.568 164.094 262.812 163.794 262.812ZM163.794 275.844C163.494 275.844 163.251 275.6 163.251 275.301V273.129C163.251 272.829 163.494 272.586 163.794 272.586C164.094 272.586 164.338 272.829 164.338 273.129V275.301C164.338 275.6 164.094 275.844 163.794 275.844ZM166.796 288.38C166.601 288.38 166.414 288.276 166.315 288.093C165.968 287.442 165.645 286.769 165.356 286.093C165.237 285.818 165.364 285.498 165.64 285.379C165.914 285.26 166.235 285.389 166.353 285.664C166.631 286.313 166.941 286.957 167.275 287.582C167.416 287.847 167.316 288.175 167.051 288.316L166.796 288.38ZM175.538 297.855C175.437 297.855 175.336 297.827 175.244 297.768C174.626 297.369 174.016 296.94 173.433 296.49C173.195 296.307 173.15 295.965 173.334 295.728C173.517 295.492 173.857 295.446 174.096 295.631C174.655 296.061 175.24 296.473 175.832 296.856C176.085 297.017 176.157 297.353 175.995 297.605C175.891 297.767 175.717 297.855 175.538 297.855V297.855ZM187.794 301.86L187.762 301.859C187.02 301.813 186.277 301.737 185.555 301.632C185.258 301.588 185.053 301.313 185.096 301.016C185.14 300.719 185.413 300.522 185.712 300.557C186.404 300.659 187.116 300.732 187.827 300.775C188.127 300.793 188.355 301.051 188.337 301.35C188.319 301.638 188.08 301.86 187.794 301.86V301.86ZM200.832 301.908H198.659C198.359 301.908 198.115 301.664 198.115 301.365C198.115 301.065 198.359 300.822 198.659 300.822H200.832C201.133 300.822 201.375 301.065 201.375 301.365C201.375 301.664 201.133 301.908 200.832 301.908Z" fill="#F17B99"/>
</g>
</g>
</svg>
