<svg width="458" height="324" viewBox="0 0 458 324" fill="none" xmlns="http://www.w3.org/2000/svg">
<g id="groupSvgLight">
<g id="extras">
<path id="path34" d="M406.89 276.774C404.19 276.774 402 274.587 402 271.887C402 269.187 404.19 267 406.89 267C409.59 267 411.78 269.187 411.78 271.887C411.78 274.587 409.59 276.774 406.89 276.774Z" fill="#8F8ECB"/>
<path id="path38" d="M159.89 14.7739C157.19 14.7739 155 12.5856 155 9.88692C155 7.18821 157.19 4.99992 159.89 4.99992C162.59 4.99992 164.78 7.18821 164.78 9.88692C164.78 12.5856 162.59 14.7739 159.89 14.7739Z" fill="#F7B4C7"/>
<path id="path40" d="M76.8033 49.6021C74.7026 49.6021 73 47.9003 73 45.801C73 43.7018 74.7026 42 76.8033 42C78.9041 42 80.6067 43.7018 80.6067 45.801C80.6067 47.9003 78.9041 49.6021 76.8033 49.6021Z" fill="#8F8ECB"/>
<path id="path42" d="M426.63 159.258C425.73 159.258 425 158.529 425 157.629C425 156.729 425.73 156 426.63 156C427.53 156 428.26 156.729 428.26 157.629C428.26 158.529 427.53 159.258 426.63 159.258Z" fill="#8F8ECB"/>
<path id="path46" d="M33.879 272.74C33.4728 272.74 33.0602 272.697 32.6467 272.609C29.4755 271.932 27.4532 268.814 28.1308 265.644C28.7198 262.889 31.1559 261 33.8672 261C34.2738 261 34.6864 261.042 35.0998 261.131C38.2711 261.808 40.2933 264.926 39.6163 268.096C39.0271 270.852 36.5906 272.74 33.879 272.74" fill="#F7B4C7"/>
<path id="path48" d="M439.959 252.913C439.824 252.913 439.686 252.898 439.549 252.869C438.492 252.643 437.818 251.604 438.043 250.548C438.24 249.629 439.052 249 439.955 249C440.091 249 440.229 249.013 440.367 249.044C441.424 249.268 442.098 250.308 441.872 251.364C441.675 252.283 440.863 252.913 439.959 252.913Z" fill="#8F8ECB"/>
</g>
<g id="chat">
<path id="Vector 2" d="M449 83V111" stroke="#0B1726" stroke-width="2"/>
<path id="path50" d="M441.093 122.614C440.085 122.614 439.106 122.216 438.346 121.457L429.527 112.643C429.197 112.314 428.757 112.131 428.291 112.131H417.441C414.441 112.131 412 109.692 412 106.695V86.4374C412 83.439 414.441 80.9998 417.441 80.9998H452.199C455.199 80.9998 457.64 83.439 457.64 86.4374V106.695C457.64 109.692 455.199 112.131 452.199 112.131H446.79C445.826 112.131 445.041 112.916 445.041 113.88V118.685C445.041 120.3 444.113 121.688 442.62 122.306C442.119 122.513 441.603 122.614 441.093 122.614V122.614ZM417.441 83.1718C415.639 83.1718 414.173 84.6368 414.173 86.4374V106.695C414.173 108.495 415.639 109.959 417.441 109.959H428.291C429.338 109.959 430.323 110.367 431.064 111.107L439.883 119.921C440.225 120.263 440.653 120.441 441.099 120.441C441.327 120.441 441.56 120.394 441.789 120.299C442.465 120.02 442.868 119.416 442.868 118.685V113.88C442.868 111.718 444.627 109.959 446.79 109.959H452.199C454.001 109.959 455.467 108.495 455.467 106.695V86.4374C455.467 84.6368 454.001 83.1718 452.199 83.1718H417.441" fill="#F9FBFD"/>
<path id="path52" d="M424.497 100.005C422.699 100.005 421.237 98.5431 421.237 96.7469C421.237 94.9506 422.699 93.4889 424.497 93.4889C426.294 93.4889 427.757 94.9506 427.757 96.7469C427.757 98.5431 426.294 100.005 424.497 100.005ZM424.497 94.5749C423.298 94.5749 422.323 95.549 422.323 96.7469C422.323 97.9447 423.298 98.9189 424.497 98.9189C425.695 98.9189 426.67 97.9447 426.67 96.7469C426.67 95.549 425.695 94.5749 424.497 94.5749Z" fill="#F9FBFD"/>
<path id="path54" d="M434.82 100.548C433.023 100.548 431.56 99.0861 431.56 97.2899C431.56 95.4936 433.023 94.0319 434.82 94.0319C436.617 94.0319 438.08 95.4936 438.08 97.2899C438.08 99.0861 436.617 100.548 434.82 100.548ZM434.82 95.1179C433.621 95.1179 432.647 96.092 432.647 97.2899C432.647 98.4877 433.621 99.4619 434.82 99.4619C436.019 99.4619 436.993 98.4877 436.993 97.2899C436.993 96.092 436.019 95.1179 434.82 95.1179Z" fill="#F9FBFD"/>
<path id="path56" d="M444.6 100.548C442.803 100.548 441.34 99.0861 441.34 97.2899C441.34 95.4936 442.803 94.0319 444.6 94.0319C446.397 94.0319 447.86 95.4936 447.86 97.2899C447.86 99.0861 446.397 100.548 444.6 100.548ZM444.6 95.1179C443.401 95.1179 442.427 96.092 442.427 97.2899C442.427 98.4877 443.401 99.4619 444.6 99.4619C445.799 99.4619 446.773 98.4877 446.773 97.2899C446.773 96.092 445.799 95.1179 444.6 95.1179Z" fill="#F9FBFD"/>
</g>
<g id="camera">
<path id="Vector 3" d="M9.5 81V113" stroke="#0B1726" stroke-width="3"/>
<path id="path66" d="M4.0989 84.2209C2.43848 84.2209 1.08667 85.5719 1.08667 87.2313V109.631C1.08667 111.291 2.43848 112.642 4.0989 112.642H34.6321C36.2925 112.642 37.6443 111.291 37.6443 109.631V87.2313C37.6443 85.5719 36.2925 84.2209 34.6321 84.2209H4.0989ZM34.6321 113.728H4.0989C1.83864 113.728 0 111.89 0 109.631V87.2313C0 84.9725 1.83864 83.1349 4.0989 83.1349H34.6321C36.8923 83.1349 38.731 84.9725 38.731 87.2313V109.631C38.731 111.89 36.8923 113.728 34.6321 113.728" fill="white"/>
<path id="path68" d="M38.6474 104.262H38.6485H38.6474ZM38.7311 104.284L48.7588 106.956L48.7164 89.9173L38.7311 92.578V104.284ZM48.8544 106.983H48.8653H48.8544ZM48.8284 108.065L48.573 108.032L38.3703 105.312C37.9432 105.199 37.6444 104.812 37.6444 104.368V92.4944C37.6444 92.0535 37.9421 91.6647 38.3692 91.5507L48.573 88.8313C48.8707 88.7531 49.1783 88.815 49.4206 89.0007C49.664 89.1875 49.8031 89.4699 49.8031 89.775V107.087C49.8031 107.394 49.6629 107.677 49.4195 107.862C49.2467 107.995 49.0392 108.065 48.8284 108.065" fill="white"/>
<path id="path70" d="M12.7228 83.9712C12.4218 83.9712 12.1794 83.729 12.1794 83.4282V81.0857H5.8844V83.4282C5.8844 83.729 5.64098 83.9712 5.34106 83.9712C5.04114 83.9712 4.79773 83.729 4.79773 83.4282V80.976C4.79773 80.4374 5.23565 79.9997 5.77464 79.9997H12.2881C12.8271 79.9997 13.2661 80.4374 13.2661 80.976V83.4282C13.2661 83.729 13.0227 83.9712 12.7228 83.9712Z" fill="white"/>
<path id="path72" d="M21.2107 83.9712C20.9108 83.9712 20.6674 83.729 20.6674 83.4282V81.5179H15.4807V83.4282C15.4807 83.729 15.2373 83.9712 14.9374 83.9712C14.6364 83.9712 14.394 83.729 14.394 83.4282V81.3441C14.394 80.8413 14.8026 80.4319 15.3058 80.4319H20.8413C21.3444 80.4319 21.754 80.8413 21.754 81.3441V83.4282C21.754 83.729 21.5106 83.9712 21.2107 83.9712" fill="white"/>
<path id="path74" d="M18.6276 89.5693C13.8387 89.5693 9.94409 93.4616 9.94409 98.2465C9.94409 103.031 13.8387 106.925 18.6276 106.925C23.4155 106.925 27.3101 103.031 27.3101 98.2465C27.3101 93.4616 23.4155 89.5693 18.6276 89.5693ZM18.6276 108.011C13.24 108.011 8.85742 103.631 8.85742 98.2465C8.85742 92.8632 13.24 88.4833 18.6276 88.4833C24.0143 88.4833 28.3968 92.8632 28.3968 98.2465C28.3968 103.631 24.0143 108.011 18.6276 108.011Z" fill="white"/>
<path id="path76" d="M17.3248 94.5499V101.942L22.1616 98.2466L17.3248 94.5499ZM16.8391 102.314L16.838 102.315L16.8391 102.314ZM17.0238 103.339C16.9065 103.339 16.7869 103.313 16.6761 103.257C16.4066 103.125 16.2382 102.856 16.2382 102.555V93.9384C16.2382 93.6387 16.4055 93.3705 16.675 93.2358C16.9445 93.1044 17.2596 93.1337 17.4987 93.3162L23.1363 97.6243C23.3319 97.7731 23.4438 98.0001 23.4438 98.2466C23.4438 98.4931 23.3319 98.7201 23.1363 98.87L17.4998 103.177C17.3596 103.283 17.1922 103.339 17.0238 103.339" fill="white"/>
<path id="path78" d="M31.9132 87.7244C30.9928 87.7244 30.243 88.4749 30.243 89.3947C30.243 90.3157 30.9928 91.0639 31.9132 91.0639C32.8347 91.0639 33.5845 90.3157 33.5845 89.3947C33.5845 88.4749 32.8347 87.7244 31.9132 87.7244ZM31.9132 92.1499C30.393 92.1499 29.1564 90.9151 29.1564 89.3947C29.1564 87.8754 30.393 86.6384 31.9132 86.6384C33.4346 86.6384 34.6712 87.8754 34.6712 89.3947C34.6712 90.9151 33.4346 92.1499 31.9132 92.1499Z" fill="white"/>
<path id="path80" d="M45.1999 102.478C44.8989 102.478 44.6566 102.235 44.6566 101.935V91.6067C44.6566 91.3069 44.8989 91.0637 45.1999 91.0637C45.4999 91.0637 45.7433 91.3069 45.7433 91.6067V101.935C45.7433 102.235 45.4999 102.478 45.1999 102.478Z" fill="white"/>
</g>
<g id="guy1laptop">
<path id="path320" d="M391.723 287.13L93.1268 286.982L93.2257 87.0322C93.2268 83.6873 95.9424 80.9767 99.2893 80.9788L385.765 81.12C389.112 81.1222 391.824 83.835 391.822 87.181L391.723 287.13" fill="#3C419F"/>
<path id="path324" d="M423.337 323.316L61.0408 323.137C57.1103 323.136 53.9242 320.923 53.9253 318.194L53.9285 310.408C53.9296 309.639 54.8283 309.016 55.9367 309.017L428.765 309.202C429.875 309.202 430.773 309.826 430.773 310.595L430.768 318.164C430.767 321.012 427.44 323.319 423.337 323.316" fill="#3C419F"/>
<path id="path326" d="M112.966 271.524L371.899 271.652C375.564 271.655 378.536 268.686 378.538 265.024L378.617 104.101C378.619 100.439 375.649 97.4699 371.986 97.4677L113.052 97.3396C109.389 97.3385 106.417 100.305 106.415 103.966L106.335 264.89C106.333 268.552 109.302 271.522 112.966 271.524Z" fill="white"/>
<path id="path328" d="M378.615 109.133L378.617 104.101C378.619 100.439 375.649 97.4702 371.986 97.4681L113.052 97.3399C109.389 97.3388 106.417 100.305 106.415 103.967L106.412 109.017L378.615 109.133Z" fill="#F17B99"/>
<path id="path330" d="M354.593 104.091C354.593 104.938 353.906 105.624 353.059 105.623C352.212 105.623 351.526 104.936 351.526 104.09C351.526 103.244 352.214 102.558 353.061 102.559C353.908 102.559 354.593 103.245 354.593 104.091Z" fill="white"/>
<path id="path332" d="M360.727 104.095C360.726 104.942 360.039 105.627 359.193 105.626C358.346 105.626 357.66 104.94 357.661 104.094C357.661 103.247 358.347 102.561 359.195 102.561C360.042 102.562 360.727 103.249 360.727 104.095" fill="white"/>
<path id="path334" d="M366.861 104.098C366.86 104.944 366.174 105.63 365.326 105.629C364.479 105.629 363.793 104.943 363.794 104.097C363.794 103.249 364.48 102.564 365.327 102.564C366.175 102.565 366.861 103.251 366.861 104.098" fill="white"/>
<path id="path336" d="M353.168 249.147L129.507 249.037L129.567 128.213L211.219 128.253L205.695 128.25L168.502 128.233L168.464 206.988L314.254 207.061L314.293 128.304L277.101 128.286L250.016 128.273L353.228 128.324L353.168 249.147Z" fill="#F4F7FC"/>
<path id="path338" d="M314.254 207.061L168.464 206.988L168.502 128.233L205.695 128.251L205.675 166.825L277.081 166.861L277.101 128.286L314.293 128.304L314.254 207.061" fill="#E5EEF9"/>
<path id="path340" d="M277.101 128.286L250.016 128.273L277.101 128.286ZM211.219 128.254L205.695 128.251V128.25L211.219 128.254Z" fill="#E5EEF9"/>
<path id="path342" d="M277.081 166.861L205.675 166.825L205.695 128.25L211.219 128.254C212.316 128.766 213.432 129.122 214.525 129.308L212.31 154.368C212.307 161.137 217.795 166.626 224.568 166.63L232.704 166.634C232.704 166.634 232.707 166.634 232.709 166.634C240.009 166.634 245.927 160.723 245.931 153.427L243.741 129.528H243.778C243.78 129.528 243.783 129.528 243.786 129.528C245.99 129.528 248.096 129.081 250.016 128.273L277.101 128.286L277.081 166.861Z" fill="#D8E6F7"/>
<path id="path344" d="M430.774 309.408H429.818C429.512 309.278 429.151 309.202 428.766 309.202L55.9367 309.017C55.9357 309.017 55.9346 309.017 55.9335 309.017C55.8541 309.017 55.777 309.02 55.7009 309.027L62.0525 305.301C62.3111 305.304 62.5611 305.307 62.8208 305.311L56.555 309.017L430.148 309.035L430.774 309.408" fill="#545CB3"/>
<path id="path346" d="M62.8208 305.311C62.5611 305.307 62.3111 305.304 62.0525 305.301L87.475 290.387C87.6685 290.388 87.8456 290.389 88.039 290.389L62.8208 305.311" fill="#545BB2"/>
<path id="path348" d="M88.0391 290.389C87.8457 290.389 87.6685 290.388 87.4751 290.386L93.279 286.982H93.7973L88.0391 290.389Z" fill="#535AB2"/>
<path id="path350" d="M93.7974 286.982H93.2791L94.2788 286.395L121.009 286.417L94.6265 286.492L93.7974 286.982" fill="#3C419F"/>
<path id="path352" d="M429.819 309.408L55.0881 309.387L55.701 309.027C55.7771 309.021 55.8542 309.017 55.9336 309.017C55.9347 309.017 55.9357 309.017 55.9368 309.017L428.766 309.202C429.151 309.202 429.512 309.278 429.819 309.408Z" fill="#3C419F"/>
<path id="path354" d="M430.425 309.034H430.148L423.901 305.299C423.989 305.297 424.074 305.295 424.162 305.293L430.425 309.034" fill="#5360B6"/>
<path id="path356" d="M423.901 305.299L400.043 291.036C400.134 291.036 400.206 291.036 400.297 291.036L424.162 305.293C424.074 305.295 423.989 305.297 423.901 305.299Z" fill="#525FB5"/>
<path id="path358" d="M400.043 291.036L392.689 286.64L391.724 286.639V285.915L400.297 291.036C400.206 291.036 400.134 291.036 400.043 291.036Z" fill="#525FB5"/>
<path id="path360" d="M391.724 286.639L121.009 286.417L391.286 285.653L391.724 285.914V286.639" fill="#4C5AB2"/>
<path id="path362" d="M430.148 309.034L56.5552 309.017L62.8209 305.31C119.213 306.04 196.083 306.721 270.395 306.722C326.245 306.722 380.67 306.337 423.901 305.299L430.148 309.034Z" fill="#4F5DB3"/>
<path id="path364" d="M270.395 306.722C196.083 306.721 119.213 306.04 62.8208 305.31L88.0391 290.389C178.618 290.756 312.607 291.036 397.984 291.036C398.67 291.036 399.364 291.036 400.043 291.036L423.901 305.299C380.67 306.337 326.245 306.722 270.395 306.722Z" fill="#4F5DB3"/>
<path id="path366" d="M397.984 291.036C312.607 291.036 178.618 290.756 88.0391 290.389L93.7973 286.982L391.723 287.13L391.724 286.639L392.689 286.64L400.043 291.036C399.364 291.036 398.67 291.036 397.984 291.036" fill="#4F5DB3"/>
<path id="path368" d="M391.723 287.13L93.7974 286.982L94.6265 286.492L121.009 286.417L391.724 286.639L391.723 287.13Z" fill="#4C5AB2"/>
<path id="path370" d="M114.146 290.584C113.041 290.583 111.965 290.933 111.071 291.58L94.4928 303.606L392.492 303.661L377.163 292.647C375.464 291.425 373.422 290.767 371.328 290.765L114.146 290.584Z" fill="#3C419F"/>
</g>
<g id="guy1">
<path id="path372" d="M314.85 208.777L327.475 227.067C327.691 227.285 327.297 226.157 327.475 225.907L347.282 193.463L347.223 193.438L348.948 190.732L355.193 180.501C350.693 175.78 349.579 165.615 349.609 165.635L347.401 158.681C347.003 157.424 347.544 155.991 348.755 155.469C350.151 154.869 351.721 155.61 352.168 157.02C352.168 157.02 353.426 161.009 354.254 163.638C354.598 164.734 356.145 164.84 356.597 163.784C357.255 162.248 357.259 160.449 357.085 158.999L353.28 141.046C352.993 139.684 353.866 138.347 355.229 138.059C356.648 138.06 358.046 139.195 358.34 140.582L360.966 153.05C361.084 153.608 361.576 154.006 362.146 154.006H362.538C363.198 154.006 363.747 153.493 363.792 152.834L364.879 136.899C364.97 135.583 366 134.449 367.318 134.407C368.835 134.359 370.025 135.624 369.924 137.098L368.865 152.6C368.811 153.408 369.352 154.136 370.142 154.318C371.15 154.548 372.156 153.918 372.387 152.909L375.48 139.378C375.774 138.091 376.967 137.132 378.277 137.296C379.783 137.485 380.761 138.919 380.432 140.36L377.216 154.423C377.002 155.357 377.097 156.334 377.485 157.211C377.942 158.244 379.402 158.262 379.883 157.24L382.657 151.369C383.22 150.176 384.592 149.494 385.836 149.937C387.266 150.443 387.913 152.055 387.282 153.391L381.51 166.329C377.24 177.977 372.616 184.752 371.02 186.899L365.773 197.898L364.629 200.407L364.584 200.388L337.467 257.218C333.232 266.092 321.508 268.148 314.504 261.246L291.491 235.168L314.85 208.777" fill="#F9D8D0"/>
<path id="path376" d="M283.462 235.035L290.774 237.475L318.936 207.084C298.435 168.425 273.207 153.843 258.557 148.408C252.834 146.284 246.771 145.247 240.667 145.244L220.272 145.235C214.753 145.232 209.246 146.119 204.091 148.088C159.529 165.109 143.298 233.747 143.298 233.747L149.343 234.754L178.641 239.64L178.625 271.068L283.445 271.12L283.462 235.035Z" fill="#F17B99"/>
<path id="path378" d="M178.208 239.639L149.579 235.022L149.562 271.054L178.193 271.068L178.208 239.639Z" fill="#F9D8D0"/>
<path id="path384" d="M271.428 56.4714C265.304 43.0506 254.435 48.4752 254.435 48.4752C251.305 40.5561 242.425 31.1773 230.14 30.1055C221.194 29.3257 216.762 33.1028 213.81 34.1888C206.863 30.2988 200.025 30.1109 195.038 35.428C187.712 43.2385 190.682 50.3061 192.615 53.3198C193.16 54.4905 195.776 58.5207 198.14 59.8271C194.123 69.3579 190.947 84.98 212.366 86.4645L257.172 88.7354C257.172 88.7354 260.596 85.8444 264.231 81.4374C269.584 74.9475 275.399 65.1681 271.428 56.4714" fill="#322E44"/>
<path id="path386" d="M264.231 81.4376C260.596 85.8446 257.172 88.7355 257.172 88.7355L255.644 71.6277C249.004 71.1499 247.321 66.4671 247.218 62.1122L235.834 62.0536C219.559 64.1083 205.595 61.706 202.465 61.0968L201.734 61.1543C201.671 61.2858 201.557 61.4573 201.378 61.5811L201.37 80.4243H200.617C195.721 80.4222 191.752 84.385 191.75 89.2774V90.2385C191.746 95.1299 195.713 99.0981 200.607 99.1003L201.36 99.1014L201.353 111.916C201.348 121.694 208.297 128.247 214.525 129.308L212.31 154.368C212.307 161.137 217.795 166.627 224.568 166.63L232.704 166.634C240.005 166.638 245.927 160.724 245.931 153.427L243.741 129.529H243.778C252.665 129.533 259.939 122.271 259.943 113.39L259.951 99.1296H260.18C265.074 99.1318 269.045 95.1679 269.047 90.2765V89.3154C269.05 85.8804 267.09 82.908 264.231 81.4376" fill="#F9D8D0"/>
<path id="path388" d="M244.609 140.506L215.274 129.327C215.86 129.441 216.458 129.515 217.072 129.516L243.528 129.529L244.609 140.506" fill="#F7BFC0"/>
<path id="path392" d="M265.642 89.8506C265.848 89.8506 266.014 89.6844 266.015 89.4781C266.017 85.4523 262.297 85.4034 262.259 85.4034C262.052 85.4034 261.887 85.5696 261.886 85.7748C261.885 85.9812 262.051 86.1484 262.258 86.1495C262.381 86.1506 265.27 86.206 265.268 89.477C265.268 89.6833 265.435 89.8506 265.642 89.8506Z" fill="#F17B99"/>
<path id="path394" d="M194.883 89.8159C194.677 89.8159 194.511 89.6487 194.511 89.4423C194.513 85.4165 198.233 85.372 198.271 85.372C198.476 85.372 198.642 85.5382 198.643 85.7434C198.643 85.9498 198.477 86.117 198.272 86.1181C198.148 86.1181 195.259 86.1713 195.257 89.4434C195.257 89.6487 195.09 89.8159 194.883 89.8159" fill="#F17B99"/>
<path id="path396" d="M215.231 89.3818C214.351 89.3818 213.637 88.6683 213.638 87.7887L213.639 84.6024C213.64 83.7216 214.354 83.0092 215.235 83.0092C216.115 83.0103 216.829 83.7238 216.828 84.6034L216.826 87.7898C216.825 88.6705 216.111 89.3829 215.231 89.3818" fill="#100F0D"/>
<path id="path398" d="M239.682 89.3945C238.802 89.3934 238.089 88.6799 238.089 87.8003L238.09 84.6139C238.092 83.7343 238.805 83.0208 239.686 83.0208C240.566 83.0218 241.28 83.7354 241.28 84.615L241.278 87.8013C241.278 88.681 240.563 89.3945 239.682 89.3945" fill="#100F0D"/>
<path id="path400" d="M221.157 77.1639C220.419 77.6733 219.401 77.6581 218.42 77.7156C217.427 77.7471 216.434 77.8112 215.574 77.9046C214.711 77.9958 213.724 78.1457 212.747 78.326C211.774 78.4791 210.774 78.7093 209.967 78.3672C209.189 78.0512 208.781 76.95 209.525 75.4611C210.221 74.0135 212.233 72.3063 215.087 71.9914C217.939 71.6927 220.196 72.9416 221.114 74.2144C222.088 75.5187 221.868 76.6872 221.157 77.1639Z" fill="#322E44"/>
<path id="path402" d="M247.891 79.7986C246.946 80.0679 245.931 79.7236 244.923 79.4641C243.917 79.1741 242.896 78.9156 241.995 78.7299C241.093 78.5431 240.043 78.3727 238.991 78.2369C237.954 78.074 236.857 77.9806 236.188 77.3779C235.537 76.8099 235.574 75.5773 236.923 74.3305C238.206 73.1099 240.915 72.0565 243.903 72.6646C246.883 73.2902 248.64 75.2688 249.045 76.8381C249.492 78.4563 248.797 79.5531 247.891 79.7986" fill="#322E44"/>
<path id="path404" d="M215.072 90.0552C215.942 90.0552 216.965 89.8684 218.078 89.3124C218.365 89.169 218.482 88.8215 218.338 88.5348C218.195 88.2481 217.847 88.1319 217.56 88.2742C214.863 89.623 212.873 88.361 212.791 88.3067C212.522 88.1319 212.163 88.2068 211.988 88.4718C211.812 88.739 211.882 89.0963 212.148 89.2733C212.218 89.32 213.348 90.0541 215.072 90.0552" fill="#F17B99"/>
<path id="path406" d="M239.523 90.0669C240.393 90.0669 241.416 89.8801 242.529 89.3241C242.816 89.1807 242.933 88.8332 242.789 88.5465C242.646 88.2598 242.297 88.1436 242.011 88.2869C239.313 89.6346 237.324 88.3727 237.242 88.3184C236.972 88.1436 236.615 88.2196 236.439 88.4846C236.263 88.7506 236.333 89.108 236.599 89.285C236.669 89.3317 237.799 90.0658 239.523 90.0669" fill="#F17B99"/>
<path id="path408" d="M228.992 99.6974L235.234 99.7007C235.494 99.7007 235.705 99.49 235.705 99.2293C235.705 98.9698 235.494 98.7591 235.235 98.7591L228.992 98.7559C226.645 98.7548 224.736 96.8445 224.736 94.4998L224.737 93.3215C224.737 92.6504 225.284 92.1052 225.956 92.1052C227.925 92.1063 229.148 90.6347 229.149 88.2629L229.332 82.215C229.338 81.9554 229.134 81.7382 228.874 81.7296C228.631 81.7372 228.397 81.9272 228.39 82.1868L228.207 88.2488C228.207 88.9439 228.044 91.1647 225.956 91.1636C224.766 91.1636 223.796 92.1313 223.796 93.3204L223.795 94.4988C223.794 97.3636 226.125 99.6953 228.992 99.6974" fill="#F17B99"/>
<path id="path410" d="M226.779 122.3L224.191 122.299C222.935 122.299 221.917 121.28 221.917 120.026L221.921 113.979L236.193 110.42L236.192 112.903C236.19 118.095 231.975 122.303 226.779 122.3" fill="white"/>
<path id="path412" d="M213.405 78.2752C208.01 78.272 203.619 82.6561 203.617 88.046C203.615 93.4369 208.001 97.8243 213.395 97.8276C218.789 97.8297 223.179 93.4466 223.181 88.0557C223.185 82.6648 218.799 78.2774 213.405 78.2752ZM213.395 98.9136C207.401 98.9103 202.527 94.0353 202.53 88.046C202.532 82.0567 207.412 77.186 213.405 77.1892C219.398 77.1914 224.271 82.0675 224.268 88.0568C224.265 94.0461 219.388 98.9157 213.395 98.9136Z" fill="#3C419F"/>
<path id="path414" d="M243.768 77.1893C241.156 77.1882 238.699 78.2047 236.849 80.0498C235.001 81.8949 233.983 84.3504 233.982 86.9611C233.98 89.5719 234.997 92.0273 236.843 93.8757C238.69 95.723 241.146 96.7405 243.758 96.7416C246.372 96.7438 248.829 95.7273 250.678 93.8822C252.526 92.036 253.545 89.5816 253.546 86.9709C253.547 84.3591 252.531 81.9036 250.684 80.0563C248.837 78.209 246.381 77.1914 243.768 77.1893V77.1893ZM243.758 97.8276C240.855 97.8265 238.126 96.6949 236.075 94.6424C234.022 92.5898 232.893 89.8618 232.895 86.96C232.896 84.0593 234.028 81.3313 236.082 79.282C238.136 77.2305 240.866 76.1022 243.769 76.1033C246.672 76.1054 249.4 77.236 251.452 79.2885C253.505 81.3411 254.634 84.0691 254.633 86.9709C254.63 89.8727 253.499 92.5996 251.445 94.65C249.391 96.7004 246.661 97.8298 243.758 97.8276" fill="#3C419F"/>
<path id="path416" d="M223.399 86.0594C223.239 86.0594 223.08 85.9888 222.973 85.8542C222.786 85.6196 222.825 85.2775 223.061 85.0907C223.119 85.044 229.091 80.4025 233.823 85.1374C234.035 85.3492 234.035 85.6934 233.823 85.9052C233.61 86.1181 233.267 86.117 233.055 85.9052C228.999 81.8501 223.95 85.7727 223.737 85.9422C223.637 86.0203 223.517 86.0594 223.399 86.0594" fill="#3C419F"/>
</g>
<g id="userPlus">
<g id="userIcon">
<path id="path418" d="M105.574 177.694C105.574 189.212 96.2322 198.548 84.7081 198.548C73.184 198.548 63.8408 189.212 63.8408 177.694C63.8408 166.177 73.184 156.841 84.7081 156.841C96.2322 156.841 105.574 166.177 105.574 177.694Z" fill="white"/>
<path id="path420" d="M84.7081 158.68C74.2174 158.68 65.6816 167.21 65.6816 177.695C65.6816 188.178 74.2174 196.708 84.7081 196.708C95.1977 196.708 103.733 188.178 103.733 177.695C103.733 167.21 95.1977 158.68 84.7081 158.68ZM84.7081 200.387C72.1875 200.387 62 190.208 62 177.695C62 165.181 72.1875 155 84.7081 155C97.2297 155 107.415 165.181 107.415 177.695C107.415 190.208 97.2297 200.387 84.7081 200.387Z" fill="#F17B99"/>
<path id="path422" d="M91.9659 170.388C91.9659 174.394 88.7157 177.641 84.708 177.641C80.6993 177.641 77.4491 174.394 77.4491 170.388C77.4491 166.381 80.6993 163.134 84.708 163.134C88.7157 163.134 91.9659 166.381 91.9659 170.388Z" fill="#F17B99"/>
<path id="path424" d="M96.9558 184.895C96.9558 188.901 91.4714 192.148 84.708 192.148C77.9435 192.148 72.4602 188.901 72.4602 184.895C72.4602 180.888 77.9435 177.641 84.708 177.641C91.4714 177.641 96.9558 180.888 96.9558 184.895Z" fill="#F17B99"/>
</g>
<g id="plus">
<path id="path426" d="M69.8824 152.881H58.63C57.7292 152.881 57 152.152 57 151.252C57 150.352 57.7292 149.623 58.63 149.623H69.8824C70.7833 149.623 71.5124 150.352 71.5124 151.252C71.5124 152.152 70.7833 152.881 69.8824 152.881Z" fill="#F17B99"/>
<path id="path428" d="M64.2567 158.503C63.3559 158.503 62.6267 157.775 62.6267 156.874V145.629C62.6267 144.729 63.3559 144 64.2567 144C65.1565 144 65.8867 144.729 65.8867 145.629V156.874C65.8867 157.775 65.1565 158.503 64.2567 158.503Z" fill="#F17B99"/>
</g>
</g>
<g id="userPlus_2">
<g id="userIcon2">
<path id="path430" d="M340.693 20.2131C340.693 29.5407 333.126 37.1025 323.793 37.1025C314.459 37.1025 306.894 29.5407 306.894 20.2131C306.894 10.8865 314.459 3.32468 323.793 3.32468C333.126 3.32468 340.693 10.8865 340.693 20.2131" fill="white"/>
<path id="path432" d="M323.794 4.81384C315.297 4.81384 308.384 11.723 308.384 20.2144C308.384 28.7037 315.297 35.6117 323.794 35.6117C332.29 35.6117 339.202 28.7037 339.202 20.2144C339.202 11.723 332.29 4.81384 323.794 4.81384V4.81384ZM323.794 38.5928C313.653 38.5928 305.402 30.349 305.402 20.2144C305.402 10.0799 313.653 1.83386 323.794 1.83386C333.935 1.83386 342.184 10.0799 342.184 20.2144C342.184 30.349 333.935 38.5928 323.794 38.5928Z" fill="#6C92D3"/>
<path id="path434" d="M329.671 14.2958C329.671 17.5407 327.039 20.1699 323.793 20.1699C320.547 20.1699 317.915 17.5407 317.915 14.2958C317.915 11.0519 320.547 8.42159 323.793 8.42159C327.039 8.42159 329.671 11.0519 329.671 14.2958Z" fill="#6C92D3"/>
<path id="path436" d="M333.712 26.0452C333.712 29.2891 329.271 31.9194 323.793 31.9194C318.315 31.9194 313.874 29.2891 313.874 26.0452C313.874 22.8003 318.315 20.17 323.793 20.17C329.271 20.17 333.712 22.8003 333.712 26.0452Z" fill="#6C92D3"/>
</g>
<g id="plus2">
<path id="path438" d="M306.744 7.8125H297.63C296.729 7.8125 296 7.08271 296 6.1835C296 5.28321 296.729 4.5545 297.63 4.5545H306.744C307.644 4.5545 308.374 5.28321 308.374 6.1835C308.374 7.08271 307.644 7.8125 306.744 7.8125Z" fill="#6C92D3"/>
<path id="path440" d="M302.187 12.3662C301.287 12.3662 300.557 11.6375 300.557 10.7372V1.62892C300.557 0.729708 301.287 -8.35678e-05 302.187 -8.35678e-05C303.086 -8.35678e-05 303.817 0.729708 303.817 1.62892V10.7372C303.817 11.6375 303.086 12.3662 302.187 12.3662Z" fill="#6C92D3"/>
</g>
</g>
</g>
</svg>
