<svg width="117" height="107" viewBox="0 0 117 107" fill="none" xmlns="http://www.w3.org/2000/svg">
    <ellipse rx="16.0353" ry="16.9879" transform="matrix(0.760588 -0.679568 0.582791 0.790216 83.6032 32.6955)" fill="#0B1726"/>
    <ellipse rx="16.0353" ry="16.9879" transform="matrix(0.760588 -0.679568 0.582791 0.790216 34.1762 76.8573)" fill="#0B1726"/>
    <path d="M93.4742 24.4046C93.6811 24.2128 93.7152 23.8833 93.5503 23.6687L90.8627 20.1719C90.6978 19.9573 90.3964 19.9389 90.1894 20.1307C89.9825 20.3225 89.9485 20.6519 90.1134 20.8665L92.5024 23.9748L89.5052 26.753C89.2982 26.9448 89.2642 27.2743 89.4291 27.4888C89.594 27.7034 89.8955 27.7219 90.1024 27.5301L93.4742 24.4046ZM42.2927 69.9705C44.4573 57.9113 46.0941 48.8897 47.9934 42.1599C49.8932 35.4283 52.0312 31.0851 55.1413 28.3063C58.2471 25.5313 62.4033 24.2448 68.4912 23.8326C74.5815 23.4203 82.5154 23.8864 93.1219 24.5363L93.2294 23.4957C82.6451 22.8472 74.6457 22.3753 68.4856 22.7924C62.3232 23.2097 57.9119 24.52 54.5585 27.5161C51.2093 30.5085 48.9964 35.1109 47.0786 41.9062C45.1604 48.7032 43.5132 57.7897 41.3526 69.827L42.2927 69.9705Z" fill="#3C419F"/>
    <path d="M27.058 80.2175C26.8511 80.4093 26.817 80.7387 26.982 80.9533L29.6695 84.4501C29.8344 84.6647 30.1359 84.6832 30.3428 84.4914C30.5497 84.2996 30.5837 83.9702 30.4188 83.7556L28.0299 80.6473L31.0271 77.8691C31.234 77.6773 31.268 77.3478 31.1031 77.1332C30.9382 76.9187 30.6368 76.9002 30.4298 77.092L27.058 80.2175ZM78.2395 34.6516C76.075 46.7108 74.4381 55.7323 72.5388 62.4622C70.6391 69.1938 68.501 73.537 65.3909 76.3157C62.2851 79.0907 58.1289 80.3773 52.041 80.7894C45.9508 81.2018 38.0169 80.7356 27.4104 80.0857L27.3028 81.1263C37.8872 81.7749 45.8865 82.2467 52.0466 81.8297C58.2091 81.4124 62.6203 80.1021 65.9737 77.1059C69.3229 74.1135 71.5358 69.5111 73.4536 62.7159C75.3718 55.9189 77.019 46.8323 79.1796 34.7951L78.2395 34.6516Z" fill="#3C419F"/>
</svg>
