<svg width="121" height="108" viewBox="0 0 121 108" fill="none" xmlns="http://www.w3.org/2000/svg">
<ellipse rx="16.0353" ry="16.9879" transform="matrix(1.01995 5.59026e-09 -0.0919078 0.977568 85.6031 33.6956)" fill="#0B1726"/>
<ellipse rx="16.0353" ry="16.9879" transform="matrix(1.01995 -1.60447e-08 -0.0919078 0.977568 36.1763 77.8573)" fill="#0B1726"/>
<path d="M95.4742 25.4043C95.6811 25.2125 95.7152 24.8831 95.5503 24.6685L92.8627 21.1717C92.6978 20.9571 92.3963 20.9386 92.1894 21.1304C91.9825 21.3222 91.9485 21.6517 92.1134 21.8662L94.5023 24.9745L91.5052 27.7528C91.2982 27.9446 91.2642 28.274 91.4291 28.4886C91.594 28.7032 91.8955 28.7216 92.1024 28.5298L95.4742 25.4043ZM44.2927 70.9702C46.4573 58.9111 48.0941 49.8895 49.9934 43.1596C51.8932 36.428 54.0312 32.0849 57.1413 29.3061C60.2471 26.5311 64.4033 25.2446 70.4912 24.8324C76.5815 24.42 84.5153 24.8862 95.1219 25.5361L95.2294 24.4955C84.6451 23.8469 76.6457 23.3751 70.4856 23.7922C64.3232 24.2094 59.9119 25.5197 56.5585 28.5159C53.2093 31.5083 50.9964 36.1107 49.0786 42.9059C47.1604 49.7029 45.5132 58.7895 43.3526 70.8267L44.2927 70.9702Z" fill="#3C419F"/>
<path d="M29.0581 81.2173C28.8512 81.4091 28.8172 81.7385 28.9821 81.9531L31.6696 85.4499C31.8346 85.6645 32.136 85.6829 32.3429 85.4912C32.5498 85.2994 32.5839 84.9699 32.4189 84.7553L30.03 81.6471L33.0272 78.8688C33.2341 78.677 33.2681 78.3476 33.1032 78.133C32.9383 77.9184 32.6369 77.8999 32.43 78.0917L29.0581 81.2173ZM80.2396 35.6513C78.0751 47.7105 76.4383 56.7321 74.539 63.462C72.6392 70.1935 70.5011 74.5367 67.391 77.3155C64.2852 80.0905 60.129 81.377 54.0411 81.7892C47.9509 82.2015 40.017 81.7354 29.4105 81.0855L29.303 82.1261C39.8873 82.7746 47.8866 83.2465 54.0467 82.8294C60.2092 82.4122 64.6204 81.1019 67.9738 78.1057C71.323 75.1133 73.536 70.5109 75.4537 63.7156C77.3719 56.9187 79.0191 47.8321 81.1797 35.7949L80.2396 35.6513Z" fill="#3C419F"/>
</svg>
