<svg width="1392" height="1392" viewBox="0 0 1392 1392" fill="none" xmlns="http://www.w3.org/2000/svg">
<circle cx="696" cy="696" r="696" fill="#E0DDFF"/>
<mask id="mask0" mask-type="alpha" maskUnits="userSpaceOnUse" x="0" y="0" width="1392" height="1392">
<circle cx="696" cy="696" r="696" fill="#FFEDEF"/>
</mask>
<g mask="url(#mask0)">
<path d="M893.694 1364.4C840.944 1291.14 799.672 1112.87 794.788 1042.04L543.862 933.98L439.462 1364.4H893.694Z" fill="#FC909F" stroke="black" stroke-width="14.6526"/>
<mask id="mask1" mask-type="alpha" maskUnits="userSpaceOnUse" x="439" y="933" width="455" height="432">
<path d="M893.694 1364.4C840.944 1291.14 799.672 1112.87 794.788 1042.04L543.862 933.98L439.462 1364.4H893.694Z" fill="#FFEDEF"/>
</mask>
<g mask="url(#mask1)">
<ellipse cx="783.915" cy="926.781" rx="216.126" ry="197.811" fill="black"/>
</g>
<g clip-path="url(#clip0)">
<path d="M893.798 1327.9C841.049 1254.63 799.777 1112.99 794.893 1042.17L543.966 934.106L439.566 1327.9H893.798Z" fill="#77311D" stroke="black" stroke-width="14.6526"/>
<mask id="mask2" mask-type="alpha" maskUnits="userSpaceOnUse" x="439" y="934" width="455" height="431">
<path d="M893.798 1364.53C841.049 1291.27 799.777 1112.99 794.893 1042.17L543.966 934.106L439.566 1364.53H893.798Z" fill="#AC6651"/>
</mask>
<g mask="url(#mask2)">
<g style="mix-blend-mode:multiply">
<ellipse cx="783.904" cy="926.78" rx="216.126" ry="197.811" fill="black"/>
</g>
</g>
<mask id="path-9-inside-1" fill="white">
<path fill-rule="evenodd" clip-rule="evenodd" d="M1003.28 710.354C1003.18 709.929 1003.08 709.504 1002.98 709.079C1002.87 708.654 1002.77 708.23 1002.67 707.806L942.603 457.109C942.545 456.862 942.486 456.615 942.427 456.368C942.368 456.12 942.308 455.873 942.248 455.627L941.981 454.511L941.976 454.512C904.545 302.693 751.511 209.343 599.218 245.831C446.925 282.319 352.81 434.884 388.243 587.182L388.236 587.183L450.478 846.967L450.529 846.955C489.369 996.795 641.27 1088.51 792.44 1052.29C943.61 1016.07 1037.46 865.477 1004.18 714.305L1004.22 714.294L1003.28 710.354Z"/>
</mask>
<path fill-rule="evenodd" clip-rule="evenodd" d="M1003.28 710.354C1003.18 709.929 1003.08 709.504 1002.98 709.079C1002.87 708.654 1002.77 708.23 1002.67 707.806L942.603 457.109C942.545 456.862 942.486 456.615 942.427 456.368C942.368 456.12 942.308 455.873 942.248 455.627L941.981 454.511L941.976 454.512C904.545 302.693 751.511 209.343 599.218 245.831C446.925 282.319 352.81 434.884 388.243 587.182L388.236 587.183L450.478 846.967L450.529 846.955C489.369 996.795 641.27 1088.51 792.44 1052.29C943.61 1016.07 1037.46 865.477 1004.18 714.305L1004.22 714.294L1003.28 710.354Z" fill="#77311D"/>
<path d="M1003.28 710.354L989.014 713.704L989.022 713.736L989.029 713.768L1003.28 710.354ZM1002.98 709.079L1017.23 705.665L1017.23 705.664L1002.98 709.079ZM1002.67 707.806L988.419 711.22L988.426 711.251L988.434 711.283L1002.67 707.806ZM942.603 457.109L928.345 460.486L928.35 460.505L928.354 460.523L942.603 457.109ZM942.248 455.627L927.999 459.041L928.003 459.059L928.008 459.078L942.248 455.627ZM941.981 454.511L956.23 451.097L952.821 436.868L938.587 440.257L941.981 454.511ZM941.976 454.512L927.749 458.02L931.229 472.133L945.37 468.766L941.976 454.512ZM599.218 245.831L602.632 260.081L599.218 245.831ZM388.243 587.182L391.675 601.427L405.809 598.022L402.514 583.861L388.243 587.182ZM388.236 587.183L384.804 572.938L370.577 576.366L373.987 590.597L388.236 587.183ZM450.478 846.967L436.228 850.381L439.642 864.627L453.888 861.217L450.478 846.967ZM450.529 846.955L464.713 843.278L461.104 829.357L447.118 832.704L450.529 846.955ZM792.44 1052.29L789.026 1038.04L792.44 1052.29ZM1004.18 714.305L1000.76 700.056L986.775 703.407L989.868 717.455L1004.18 714.305ZM1004.22 714.294L1007.64 728.544L1021.89 725.13L1018.47 710.88L1004.22 714.294ZM1017.54 707.004C1017.44 706.558 1017.33 706.112 1017.23 705.665L988.727 712.493C988.823 712.896 988.919 713.299 989.014 713.704L1017.54 707.004ZM1017.23 705.664C1017.12 705.218 1017.01 704.773 1016.9 704.328L988.434 711.283C988.533 711.687 988.63 712.09 988.727 712.493L1017.23 705.664ZM928.354 460.523L988.419 711.22L1016.92 704.392L956.853 453.695L928.354 460.523ZM956.861 453.731C956.8 453.473 956.738 453.213 956.676 452.953L928.178 459.782C928.234 460.016 928.289 460.251 928.345 460.486L956.861 453.731ZM956.676 452.953C956.614 452.694 956.551 452.434 956.489 452.175L928.008 459.078C928.065 459.312 928.121 459.547 928.178 459.782L956.676 452.953ZM927.732 457.925L927.999 459.041L956.498 452.213L956.23 451.097L927.732 457.925ZM945.37 468.766L945.375 468.765L938.587 440.257L938.582 440.258L945.37 468.766ZM956.202 451.005C916.845 291.37 755.935 193.216 595.804 231.582L602.632 260.081C747.087 225.47 892.246 314.017 927.749 458.02L956.202 451.005ZM595.804 231.582C435.673 269.948 336.714 430.365 373.972 590.502L402.514 583.861C368.906 439.404 458.177 294.691 602.632 260.081L595.804 231.582ZM391.668 601.428L391.675 601.427L384.811 572.937L384.804 572.938L391.668 601.428ZM464.727 843.553L402.485 583.769L373.987 590.597L436.228 850.381L464.727 843.553ZM447.118 832.704L447.067 832.717L453.888 861.217L453.939 861.205L447.118 832.704ZM436.345 850.631C477.185 1008.19 636.902 1104.62 795.854 1066.54L789.026 1038.04C645.637 1072.39 501.552 985.401 464.713 843.278L436.345 850.631ZM795.854 1066.54C954.806 1028.45 1053.48 870.113 1018.49 711.155L989.868 717.455C1021.43 860.842 932.415 1003.68 789.026 1038.04L795.854 1066.54ZM1000.81 700.045L1000.76 700.056L1007.59 728.555L1007.64 728.544L1000.81 700.045ZM989.029 713.768L989.973 717.708L1018.47 710.88L1017.53 706.94L989.029 713.768Z" fill="black" mask="url(#path-9-inside-1)"/>
</g>
<path d="M754.602 804.783C769.865 796.236 831.528 785.369 831.528 810.278C831.528 841.415 789.402 839.583 789.402 839.583C789.402 839.583 837.186 828.004 827.865 861.562C818.707 894.531 793.065 881.71 785.738 878.046" stroke="black" stroke-width="14.6526"/>
<path d="M728.967 318.694C782.694 316.252 876.959 286.458 824.209 186.82" stroke="black" stroke-width="14.6526"/>
<path d="M633.725 311.368C687.451 308.926 781.717 279.132 728.967 179.494" stroke="black" stroke-width="14.6526"/>
<path d="M501.852 351.662C555.578 349.22 649.843 319.426 597.094 219.789" stroke="black" stroke-width="14.6526"/>
<path d="M802.23 484.323C822.988 474.555 871.83 465.641 901.136 508.134" stroke="#FC909F" stroke-width="14.6526" stroke-linecap="round"/>
<path d="M525.952 577.026C533.537 555.375 561.418 514.294 612.265 523.183" stroke="#FC909F" stroke-width="14.6526" stroke-linecap="round"/>
<path d="M535.091 554.815L512.569 534.937" stroke="#FC909F" stroke-width="14.6526" stroke-linecap="round"/>
<path d="M890.003 487.777L912.526 467.898" stroke="#FC909F" stroke-width="14.6526" stroke-linecap="round"/>
<path d="M558.715 534.142L543.892 508.014" stroke="#FC909F" stroke-width="14.6526" stroke-linecap="round"/>
<path d="M862.716 474.43L877.54 448.302" stroke="#FC909F" stroke-width="14.6526" stroke-linecap="round"/>
<path d="M588.3 520.904L580.237 491.966" stroke="#FC909F" stroke-width="14.6526" stroke-linecap="round"/>
<path d="M829.469 472.182L837.531 443.244" stroke="#FC909F" stroke-width="14.6526" stroke-linecap="round"/>
<path d="M653.938 598.494C660.744 621.798 635.485 603.905 612.181 610.711C588.877 617.517 576.353 646.443 569.547 623.14C562.742 599.836 576.116 575.427 599.42 568.622C622.724 561.816 647.132 575.19 653.938 598.494Z" fill="#6BD9E9"/>
<path d="M887.616 564.82C893.604 588.347 870.422 570.388 846.895 576.377C823.368 582.365 808.405 610.032 802.416 586.505C796.428 562.978 810.646 539.051 834.173 533.063C857.701 527.074 881.628 541.292 887.616 564.82Z" fill="#6BD9E9"/>
<path fill-rule="evenodd" clip-rule="evenodd" d="M576.331 634.076C576.749 637.053 580.534 637.717 582.639 635.569C591.669 626.353 605.552 619.582 621.667 617.667C631.172 616.538 640.318 617.232 648.466 619.397C651.227 620.13 653.942 617.798 652.978 615.108C646.877 598.091 629.659 586.906 610.943 589.13C589.18 591.716 573.634 611.455 576.22 633.218C576.254 633.505 576.291 633.791 576.331 634.076Z" fill="black"/>
<path fill-rule="evenodd" clip-rule="evenodd" d="M811.132 597.444C811.546 600.422 815.33 601.087 817.438 598.942C826.385 589.836 840.119 583.148 856.056 581.255C865.45 580.138 874.489 580.821 882.546 582.952C885.309 583.683 888.023 581.351 887.055 578.663C880.993 561.836 863.952 550.782 845.432 552.983C823.871 555.545 808.469 575.101 811.031 596.661C811.062 596.923 811.096 597.184 811.132 597.444Z" fill="black"/>
<path d="M746.475 633.615C747.22 647.69 752.695 677.871 768.632 685.988C788.554 696.136 772.936 729.773 735.641 727.616" stroke="black" stroke-width="14.6526"/>
<path d="M891.305 1347.27C889.516 1347.16 888.026 1347.05 886.851 1346.96C864.321 1312.56 843.792 1255.82 827.886 1197.54C812.421 1140.88 801.563 1083.65 797.481 1045.85C933.286 1006.59 1018.41 866.424 997.943 721.81C997.923 721.599 997.9 721.44 997.892 721.382L997.888 721.358C997.857 721.139 997.818 720.889 997.776 720.63C997.689 720.105 997.566 719.403 997.411 718.55C997.1 716.837 996.642 714.421 996.047 711.395C994.857 705.339 993.111 696.787 990.876 686.434C986.408 665.73 979.979 637.776 972.135 608.125C964.295 578.492 955.014 547.06 944.831 519.44C934.723 492.021 923.472 467.631 911.466 452.627L910.38 451.27L908.786 450.579C901.707 447.508 894.358 444.087 886.688 440.515C850.308 423.576 806.682 403.264 750.184 401.029C681.408 398.309 594.311 422.187 476.578 507.575L469.168 512.949L476.295 518.692C534.635 565.705 547.248 628.063 544.553 680.999C542.495 721.398 531.55 755.766 525.374 772.945C521.12 766.73 518.41 758.917 516.373 749.741C514.965 743.398 513.938 736.715 512.862 729.715L512.692 728.607C511.568 721.302 510.37 713.681 508.624 706.322C505.138 691.629 499.244 676.944 486.161 666.544C473.049 656.122 453.939 650.958 426.11 652.511L417.951 652.967L419.654 660.959L461.263 856.253L461.333 856.581L461.434 856.901C476.298 904.016 501.788 944.856 534.379 977.097C534.656 977.561 535.061 978.244 535.577 979.126C536.636 980.938 538.162 983.592 540.011 986.925C543.71 993.595 548.685 1002.96 553.787 1013.75C564.096 1035.54 574.521 1062.3 576.53 1084.14C578.569 1106.31 572.994 1134.91 566.613 1158.54C563.454 1170.24 560.16 1180.5 557.656 1187.83C557.134 1189.36 556.647 1190.75 556.204 1192.01C537.769 1183.2 521.305 1183.86 507.194 1192.07C491.942 1200.95 480.772 1217.93 472.456 1236.82C457.26 1271.33 449.952 1316.09 446.58 1343.86C355.475 1322.97 285.13 1301.75 237.266 1285.63C212.673 1277.35 194.016 1270.42 181.529 1265.56C175.286 1263.13 170.585 1261.22 167.456 1259.93C166.679 1259.61 165.999 1259.32 165.417 1259.08C164.856 1257.64 164.087 1255.63 163.153 1253.08C161.076 1247.39 158.186 1239.03 154.969 1228.39C148.532 1207.1 140.8 1176.74 135.645 1140.55C125.325 1068.11 125.401 972.76 166.403 880.037C173.03 865.05 181.312 849.652 190.288 832.964C224.971 768.485 270.016 684.74 270.016 530.939C270.016 418.881 324.406 324.508 404.48 257.98C484.627 191.392 590.193 153 691.578 153C747.006 153.001 791.568 159.351 827.385 180.988C862.981 202.491 891.008 239.769 911.825 304.001C913.944 310.538 920.943 314.533 927.785 312.313C969.237 298.866 1032.08 312.44 1085.13 347.073C1137.95 381.553 1178.97 435.557 1178.97 500.646C1178.97 557.154 1169.29 595.337 1159.86 632.522C1148.43 677.54 1137.4 721.021 1145.18 791.861C1147.78 815.487 1153.06 832.24 1160.44 846.131C1167.7 859.798 1176.85 870.379 1186.5 881.531L1186.72 881.786C1209.7 908.353 1220.16 930.206 1223.54 949.431C1226.91 968.608 1223.38 986.001 1216.82 1004.05C1213.53 1013.11 1209.52 1022.22 1205.27 1031.81L1204.91 1032.63C1200.8 1041.91 1196.5 1051.63 1192.63 1061.85C1184.64 1082.99 1178.4 1106.57 1179.02 1134.51C1179.54 1158.23 1183.75 1174.48 1190.04 1186.78C1196.26 1198.94 1204.28 1206.72 1211.28 1213.51L1211.47 1213.69C1217.86 1219.88 1223.17 1225.08 1227.1 1232.38C1230.61 1238.91 1233.22 1247.52 1233.65 1260.45C1145.7 1312.76 1058.66 1334.38 993.292 1342.88C960.191 1347.19 932.687 1348.12 913.497 1347.99C903.904 1347.92 896.393 1347.59 891.305 1347.27Z" fill="#FC909F" stroke="black" stroke-width="14"/>
<path d="M456.055 660.012C447.519 657.201 438.305 655.706 428.874 655.706C390.435 655.706 359.274 679.516 362.937 723.474C366.753 769.263 394.098 785.748 432.537 785.748C436.814 785.748 441.001 785.372 445.065 784.653C449.499 783.868 453.787 782.674 457.886 781.113" stroke="black" stroke-width="29.3053"/>
<path d="M459.718 780.385C451.367 783.838 442.181 785.748 432.537 785.748C394.098 785.748 366.753 769.263 362.937 723.474C359.274 679.516 390.435 655.706 428.874 655.706C440.367 655.706 451.537 657.927 461.549 662.041L459.718 780.385Z" fill="#77311D"/>
<path d="M445.065 686.844C430.412 680.128 398.177 676.587 386.455 716.149" stroke="black" stroke-width="14.6526"/>
<path d="M406.602 688.674C414.539 695.39 429.68 716.148 426.749 745.453" stroke="black" stroke-width="14.6526"/>
<path d="M443.233 765.6C491.788 765.6 531.149 804.961 531.149 853.516C531.149 902.07 491.788 941.432 443.233 941.432C394.679 941.432 355.317 902.07 355.317 853.516C355.317 830.104 368.138 811.39 379.39 793.074L382.791 787.579" stroke="#F4D150" stroke-width="14.6526"/>
<path d="M1184.53 1402.49H184.816C184.943 1402.23 185.07 1401.97 185.198 1401.71C201.846 1367.81 232.56 1305.26 272.535 1249.29C295.223 1217.53 320.624 1188.28 347.773 1167.71C374.925 1147.14 403.159 1135.73 431.843 1138.24C486.989 1143.06 536.108 1173.26 585.421 1203.57C590.093 1206.44 594.767 1209.32 599.449 1212.17C652.509 1244.51 706.996 1274.53 766.923 1261.39C787.197 1256.95 800.859 1247.43 809.458 1235.15C817.935 1223.03 820.981 1208.95 821.508 1196.08C822.036 1183.2 820.061 1171.02 818.01 1162.16C817.051 1158.02 816.062 1154.55 815.272 1152.01C828.552 1138.64 842.61 1130.86 857.127 1127.35C872.858 1123.55 889.68 1124.65 907.376 1129.88C943.018 1140.43 981.153 1167.44 1018.37 1202.17C1086.56 1265.81 1149.12 1352.89 1184.53 1402.49Z" fill="white" stroke="black" stroke-width="15.6575"/>
</g>
<defs>
<clipPath id="clip0">
<rect width="732.632" height="1172.21" fill="white" transform="translate(329.672 157.517)"/>
</clipPath>
</defs>
</svg>
