<svg width="380" height="380" viewBox="0 0 380 380" fill="none" xmlns="http://www.w3.org/2000/svg">
<circle cx="190" cy="190" r="190" fill="#6BD9E9"/>
<mask id="mask0" mask-type="alpha" maskUnits="userSpaceOnUse" x="0" y="0" width="380" height="380">
<circle cx="190" cy="190" r="190" fill="#C4C4C4"/>
</mask>
<g mask="url(#mask0)">
<g clip-path="url(#clip0)">
<path d="M245 369.5C230.6 349.5 219.333 310.834 218 291.5L149.5 262L121 369.5H245Z" fill="#FFEBA4" stroke="black" stroke-width="4"/>
<mask id="mask1" mask-type="alpha" maskUnits="userSpaceOnUse" x="121" y="262" width="124" height="118">
<path d="M245 379.5C230.6 359.5 219.333 310.834 218 291.5L149.5 262L121 379.5H245Z" fill="#AC6651"/>
</mask>
<g mask="url(#mask1)">
<g style="mix-blend-mode:multiply">
<ellipse cx="215" cy="260" rx="59" ry="54" fill="black"/>
</g>
</g>
<mask id="path-6-inside-1" fill="white">
<path fill-rule="evenodd" clip-rule="evenodd" d="M274.886 200.917C274.859 200.801 274.831 200.685 274.803 200.569C274.776 200.454 274.748 200.338 274.719 200.222L258.323 131.786C258.306 131.718 258.29 131.65 258.274 131.582C258.258 131.514 258.242 131.446 258.225 131.379L258.152 131.075L258.151 131.076C247.933 89.6308 206.156 64.1472 164.582 74.1081C123.008 84.0689 97.3155 125.717 106.988 167.293L106.986 167.293L123.978 238.211L123.992 238.208C134.594 279.112 176.062 304.149 217.329 294.261C258.597 284.374 284.216 243.264 275.131 201.996L275.144 201.993L274.886 200.917Z"/>
</mask>
<path fill-rule="evenodd" clip-rule="evenodd" d="M274.886 200.917C274.859 200.801 274.831 200.685 274.803 200.569C274.776 200.454 274.748 200.338 274.719 200.222L258.323 131.786C258.306 131.718 258.29 131.65 258.274 131.582C258.258 131.514 258.242 131.446 258.225 131.379L258.152 131.075L258.151 131.076C247.933 89.6308 206.156 64.1472 164.582 74.1081C123.008 84.0689 97.3155 125.717 106.988 167.293L106.986 167.293L123.978 238.211L123.992 238.208C134.594 279.112 176.062 304.149 217.329 294.261C258.597 284.374 284.216 243.264 275.131 201.996L275.144 201.993L274.886 200.917Z" fill="#FFEBA4"/>
<path d="M274.886 200.917L270.992 201.831L270.994 201.84L270.996 201.849L274.886 200.917ZM274.719 200.222L270.83 201.154L270.832 201.163L270.834 201.172L274.719 200.222ZM258.323 131.786L254.43 132.708L254.433 132.718L258.323 131.786ZM258.225 131.379L254.335 132.311L254.338 132.321L258.225 131.379ZM258.152 131.075L262.042 130.143L261.111 126.255L257.222 127.185L258.152 131.075ZM258.151 131.076L254.267 132.033L255.218 135.89L259.081 134.966L258.151 131.076ZM164.582 74.1081L163.65 70.2182L164.582 74.1081ZM106.988 167.293L107.922 171.182L111.784 170.255L110.884 166.386L106.988 167.293ZM106.986 167.293L106.052 163.404L102.165 164.337L103.096 168.225L106.986 167.293ZM123.978 238.211L120.088 239.143L121.02 243.035L124.911 242.101L123.978 238.211ZM123.992 238.208L127.864 237.204L126.878 233.401L123.058 234.318L123.992 238.208ZM217.329 294.261L216.397 290.371H216.397L217.329 294.261ZM275.131 201.996L274.2 198.106L270.381 199.021L271.225 202.856L275.131 201.996ZM275.144 201.993L276.075 205.883L279.966 204.951L279.034 201.061L275.144 201.993ZM278.78 200.002C278.751 199.881 278.722 199.759 278.693 199.637L270.914 201.502C270.94 201.611 270.966 201.721 270.992 201.831L278.78 200.002ZM278.693 199.637C278.664 199.516 278.635 199.395 278.605 199.273L270.834 201.172C270.861 201.281 270.887 201.391 270.914 201.502L278.693 199.637ZM254.433 132.718L270.83 201.154L278.609 199.29L262.212 130.854L254.433 132.718ZM262.215 130.863C262.198 130.793 262.181 130.722 262.164 130.65L254.384 132.514C254.4 132.578 254.415 132.643 254.43 132.708L262.215 130.863ZM262.164 130.65C262.147 130.579 262.13 130.508 262.113 130.436L254.338 132.321C254.353 132.385 254.369 132.449 254.384 132.514L262.164 130.65ZM254.262 132.007L254.335 132.311L262.115 130.447L262.042 130.143L254.262 132.007ZM259.081 134.966L259.083 134.966L257.222 127.185L257.221 127.185L259.081 134.966ZM262.035 130.118C251.291 86.5398 207.364 59.7447 163.65 70.2182L165.514 77.998C204.949 68.5498 244.575 92.7219 254.267 132.033L262.035 130.118ZM163.65 70.2182C119.936 80.6917 92.9216 124.484 103.092 168.199L110.884 166.386C101.709 126.951 126.08 87.4461 165.514 77.998L163.65 70.2182ZM107.92 171.183L107.922 171.182L106.054 163.403L106.052 163.404L107.92 171.183ZM127.868 237.279L110.876 166.361L103.096 168.225L120.088 239.143L127.868 237.279ZM123.058 234.318L123.044 234.322L124.911 242.101L124.925 242.097L123.058 234.318ZM120.12 239.211C131.268 282.223 174.869 308.548 218.261 298.151L216.397 290.371C177.254 299.75 137.92 276.002 127.864 237.204L120.12 239.211ZM218.261 298.151C261.653 287.755 288.591 244.53 279.038 201.136L271.225 202.856C279.842 241.999 255.541 280.993 216.397 290.371L218.261 298.151ZM274.212 198.103L274.2 198.106L276.063 205.886L276.075 205.883L274.212 198.103ZM270.996 201.849L271.254 202.925L279.034 201.061L278.776 199.985L270.996 201.849Z" fill="black" mask="url(#path-6-inside-1)"/>
</g>
<path d="M188.771 366.578C188.771 366.578 188.771 366.578 190 365L188.771 366.578L190.493 367.919L191.679 366.087L191.679 366.087L191.681 366.084L191.69 366.07L191.731 366.007C191.742 365.99 191.755 365.971 191.769 365.949C191.803 365.897 191.847 365.832 191.9 365.753C192.05 365.528 192.275 365.195 192.57 364.77C193.158 363.919 194.023 362.702 195.118 361.246C197.312 358.332 200.416 354.482 204.071 350.718C207.737 346.945 211.898 343.318 216.198 340.793C220.514 338.26 224.777 336.949 228.733 337.483C271.171 343.205 302.402 362.002 322.674 390.001H49.3745C65.6742 360.659 88.8579 341.983 126.445 333.413C128.046 333.047 130.224 333.158 132.947 333.791C135.642 334.418 138.715 335.519 142.028 336.976C148.655 339.889 156.052 344.136 163.004 348.536C169.945 352.93 176.39 357.443 181.104 360.86C183.459 362.567 185.379 364 186.709 365.004C187.374 365.506 187.891 365.901 188.241 366.169C188.416 366.304 188.55 366.407 188.639 366.475L188.739 366.553L188.764 366.572L188.77 366.577L188.771 366.578Z" fill="#F4D150" stroke="black" stroke-width="4"/>
<path d="M114.613 336.085L119.779 316.853C119.989 316.074 120.996 315.854 121.54 316.449C136.403 332.714 155.16 332.076 161.385 331.33C162.23 331.228 162.892 332.153 162.495 332.906L149.338 357.859C149.136 358.241 148.724 358.452 148.3 358.364C144.352 357.541 124.677 352.732 114.729 336.867C114.583 336.635 114.542 336.35 114.613 336.085Z" fill="#77311D" stroke="black" stroke-width="4"/>
<path d="M245.195 335.981L233.615 316.499C233.222 315.837 232.253 315.848 231.834 316.494C226.097 325.33 216.202 329.4 212.742 330.602C212.12 330.819 211.835 331.558 212.171 332.125L225.673 354.94C225.875 355.281 226.255 355.465 226.636 355.357C228.771 354.749 236.096 351.685 245.182 337.021C245.378 336.706 245.385 336.3 245.195 335.981Z" fill="#77311D" stroke="black" stroke-width="4"/>
<path d="M171.5 353.5L162.5 332L155.5 347L171.5 353.5Z" fill="black" stroke="black" stroke-width="4" stroke-linejoin="round"/>
<path d="M203 352.5L212 331L219 346L203 352.5Z" fill="black" stroke="black" stroke-width="4" stroke-linejoin="round"/>
<path d="M132.5 313L120.5 316L130.5 322.5L132.5 313Z" fill="black" stroke="black" stroke-width="4" stroke-linejoin="round"/>
<path d="M222 313L233 316L226 322.5L222 313Z" fill="black" stroke="black" stroke-width="4" stroke-linejoin="round"/>
<path d="M271.177 89.3965C262.855 129.294 164.499 134.896 144.677 134.896C92.6548 140.823 117.625 203.262 127.177 234.396C119.677 235.396 120.677 244.396 91.6772 172.896C68.4772 115.696 134.183 80.8337 182.999 68.9995C231.815 57.1653 250.499 40.502 250.499 40.502C271.177 49 276.116 65.7185 271.177 89.3965Z" fill="black"/>
<path d="M266.134 162.947L250.316 109.507L260.354 100.364C271.109 137.452 271.601 158.988 266.134 162.947Z" fill="black"/>
<path d="M141 208C135.4 180.8 121.333 185.667 112 187L102 143L142.584 134.506C143.336 134.266 144.141 134.095 145 134L142.584 134.506C124.433 140.299 136.956 186.796 152 206L141 208Z" fill="black"/>
<path d="M85.9887 105.363C94.8341 100.909 105.281 103.487 109.398 105.333L97.6273 120.213C100.663 115.357 91.1329 108.29 85.9887 105.363Z" fill="black"/>
<path d="M71 122.5C82.6 115.7 93.8333 118 98 120L93.5 135.5C92.3 127.1 78 123.333 71 122.5Z" fill="black"/>
<ellipse cx="176.53" cy="186.402" rx="9" ry="13.5" transform="rotate(-6.77646 176.53 186.402)" fill="black"/>
<ellipse cx="240.531" cy="176.402" rx="9" ry="13.5" transform="rotate(-6.27568 240.531 176.402)" fill="black"/>
<path d="M214.5 184C214.5 198 221.5 209 221.5 209C221.5 209 218 215 208 213" stroke="#171921" stroke-width="4"/>
<path d="M229 153.214C234.667 150.548 248 148.114 256 159.714" stroke="black" stroke-width="4" stroke-linecap="round"/>
<path d="M153.579 178.521C155.65 172.61 163.261 161.396 177.142 163.822" stroke="black" stroke-width="4" stroke-linecap="round"/>
<path d="M204 242.696C208.167 240.363 225 237.396 225 244.196C225 252.696 213.5 252.196 213.5 252.196C213.5 252.196 226.545 249.035 224 258.196C221.5 267.196 214.5 263.696 212.5 262.696" stroke="black" stroke-width="4"/>
<path d="M146.5 182.5L112 189.125" stroke="black" stroke-width="4" stroke-linecap="round"/>
<path d="M147.472 158.534L186.188 153.093C189.47 152.632 192.504 154.918 192.965 158.2L198.532 197.81C198.993 201.092 196.707 204.126 193.425 204.587L158.953 209.432C155.916 209.859 153.047 207.927 152.299 204.954L142.488 165.939C141.618 162.48 143.94 159.031 147.472 158.534Z" stroke="black" stroke-width="4"/>
<path d="M257.919 143.22L219.203 148.661C215.921 149.122 213.635 152.156 214.096 155.437L219.663 195.048C220.124 198.33 223.158 200.616 226.44 200.155L260.912 195.31C263.949 194.883 266.175 192.236 266.074 189.171L264.751 148.964C264.634 145.399 261.451 142.723 257.919 143.22Z" stroke="black" stroke-width="4"/>
<path d="M195.5 177.125L217.5 173.625" stroke="black" stroke-width="4"/>
<path d="M123.099 187.951C120.675 187.575 118.127 187.583 115.587 188.004C105.235 189.718 97.9043 197.52 100.851 209.195C103.921 221.357 112.02 224.577 122.373 222.863C123.525 222.673 124.636 222.385 125.698 222.01C126.857 221.601 127.959 221.088 128.993 220.485" stroke="#171921" stroke-width="8"/>
<path d="M129.454 220.207C127.359 221.509 124.97 222.433 122.373 222.863C112.02 224.577 103.921 221.357 100.851 209.195C97.9043 197.52 105.235 189.718 115.587 188.004C118.682 187.491 121.79 187.591 124.67 188.253L129.454 220.207Z" fill="#FFEBA4"/>
<path d="M121.337 195.668C117.091 194.513 108.251 194.997 106.858 206.175" stroke="#171921" stroke-width="4"/>
<path d="M111.059 197.877C113.496 199.332 118.499 204.247 119.017 212.27" stroke="#171921" stroke-width="4"/>
</g>
<defs>
<clipPath id="clip0">
<rect width="200" height="320" fill="white" transform="translate(91 50)"/>
</clipPath>
</defs>
</svg>
