<svg width="380" height="380" viewBox="0 0 380 380" fill="none" xmlns="http://www.w3.org/2000/svg">
<circle cx="190" cy="190" r="190" fill="#FFEDEF"/>
<mask id="mask0" mask-type="alpha" maskUnits="userSpaceOnUse" x="0" y="0" width="380" height="380">
<circle cx="190" cy="190" r="190" fill="#FFEDEF"/>
</mask>
<g mask="url(#mask0)">
<g clip-path="url(#clip0)">
<path d="M244 359.5C229.6 339.5 218.333 300.834 217 281.5L148.5 252L120 359.5H244Z" fill="#DB856B" stroke="black" stroke-width="4"/>
<mask id="mask1" mask-type="alpha" maskUnits="userSpaceOnUse" x="120" y="252" width="124" height="118">
<path d="M244 369.5C229.6 349.5 218.333 300.834 217 281.5L148.5 252L120 369.5H244Z" fill="#AC6651"/>
</mask>
<g mask="url(#mask1)">
<g style="mix-blend-mode:multiply">
<ellipse cx="214" cy="250" rx="59" ry="54" fill="black"/>
</g>
</g>
<mask id="path-6-inside-1" fill="white">
<path fill-rule="evenodd" clip-rule="evenodd" d="M273.886 190.917C273.859 190.801 273.831 190.685 273.803 190.569C273.776 190.454 273.748 190.338 273.719 190.222L257.323 121.786C257.306 121.718 257.29 121.65 257.274 121.582C257.258 121.514 257.242 121.446 257.225 121.379L257.152 121.075L257.151 121.076C246.933 79.6308 205.156 54.1472 163.582 64.1081C122.008 74.0689 96.3155 115.717 105.988 157.293L105.986 157.293L122.978 228.211L122.992 228.208C133.594 269.112 175.062 294.149 216.329 284.261C257.597 274.374 283.216 233.264 274.131 191.996L274.144 191.993L273.886 190.917Z"/>
</mask>
<path fill-rule="evenodd" clip-rule="evenodd" d="M273.886 190.917C273.859 190.801 273.831 190.685 273.803 190.569C273.776 190.454 273.748 190.338 273.719 190.222L257.323 121.786C257.306 121.718 257.29 121.65 257.274 121.582C257.258 121.514 257.242 121.446 257.225 121.379L257.152 121.075L257.151 121.076C246.933 79.6308 205.156 54.1472 163.582 64.1081C122.008 74.0689 96.3155 115.717 105.988 157.293L105.986 157.293L122.978 228.211L122.992 228.208C133.594 269.112 175.062 294.149 216.329 284.261C257.597 274.374 283.216 233.264 274.131 191.996L274.144 191.993L273.886 190.917Z" fill="#DB856B"/>
<path d="M273.886 190.917L269.992 191.831L269.994 191.84L269.996 191.849L273.886 190.917ZM273.719 190.222L269.83 191.154L269.832 191.163L269.834 191.172L273.719 190.222ZM257.323 121.786L253.43 122.708L253.433 122.718L257.323 121.786ZM257.225 121.379L253.335 122.311L253.338 122.321L257.225 121.379ZM257.152 121.075L261.042 120.143L260.111 116.255L256.222 117.185L257.152 121.075ZM257.151 121.076L253.267 122.033L254.218 125.89L258.081 124.966L257.151 121.076ZM163.582 64.1081L162.65 60.2182L163.582 64.1081ZM105.988 157.293L106.922 161.182L110.784 160.255L109.884 156.386L105.988 157.293ZM105.986 157.293L105.052 153.404L101.165 154.337L102.096 158.225L105.986 157.293ZM122.978 228.211L119.088 229.143L120.02 233.035L123.911 232.101L122.978 228.211ZM122.992 228.208L126.864 227.204L125.878 223.401L122.058 224.318L122.992 228.208ZM216.329 284.261L215.397 280.371H215.397L216.329 284.261ZM274.131 191.996L273.2 188.106L269.381 189.021L270.225 192.856L274.131 191.996ZM274.144 191.993L275.075 195.883L278.966 194.951L278.034 191.061L274.144 191.993ZM277.78 190.002C277.751 189.881 277.722 189.759 277.693 189.637L269.914 191.502C269.94 191.611 269.966 191.721 269.992 191.831L277.78 190.002ZM277.693 189.637C277.664 189.516 277.635 189.395 277.605 189.273L269.834 191.172C269.861 191.281 269.887 191.391 269.914 191.502L277.693 189.637ZM253.433 122.718L269.83 191.154L277.609 189.29L261.212 120.854L253.433 122.718ZM261.215 120.863C261.198 120.793 261.181 120.722 261.164 120.65L253.384 122.514C253.4 122.578 253.415 122.643 253.43 122.708L261.215 120.863ZM261.164 120.65C261.147 120.579 261.13 120.508 261.113 120.436L253.338 122.321C253.353 122.385 253.369 122.449 253.384 122.514L261.164 120.65ZM253.262 122.007L253.335 122.311L261.115 120.447L261.042 120.143L253.262 122.007ZM258.081 124.966L258.083 124.966L256.222 117.185L256.221 117.185L258.081 124.966ZM261.035 120.118C250.291 76.5398 206.364 49.7447 162.65 60.2182L164.514 67.998C203.949 58.5498 243.575 82.7219 253.267 122.033L261.035 120.118ZM162.65 60.2182C118.936 70.6917 91.9216 114.484 102.092 158.199L109.884 156.386C100.709 116.951 125.08 77.4461 164.514 67.998L162.65 60.2182ZM106.92 161.183L106.922 161.182L105.054 153.403L105.052 153.404L106.92 161.183ZM126.868 227.279L109.876 156.361L102.096 158.225L119.088 229.143L126.868 227.279ZM122.058 224.318L122.044 224.322L123.911 232.101L123.925 232.097L122.058 224.318ZM119.12 229.211C130.268 272.223 173.869 298.548 217.261 288.151L215.397 280.371C176.254 289.75 136.92 266.002 126.864 227.204L119.12 229.211ZM217.261 288.151C260.653 277.755 287.591 234.53 278.038 191.136L270.225 192.856C278.842 231.999 254.541 270.993 215.397 280.371L217.261 288.151ZM273.212 188.103L273.2 188.106L275.063 195.886L275.075 195.883L273.212 188.103ZM269.996 191.849L270.254 192.925L278.034 191.061L277.776 189.985L269.996 191.849Z" fill="black" mask="url(#path-6-inside-1)"/>
</g>
<path d="M227.552 337.449L227.692 337.481L227.836 337.493C273.961 341.297 301.62 361.785 321.694 390H48.3745C64.6742 360.658 87.8579 341.982 125.445 333.412C141.458 329.761 160.113 327.939 182 327.939C191.456 327.939 198.814 329.382 205.796 331.285C208.383 331.99 210.983 332.78 213.643 333.589C218.045 334.927 222.611 336.314 227.552 337.449Z" fill="#9287FF" stroke="black" stroke-width="4"/>
<path d="M113.931 335.581L123.084 315.984C123.302 315.516 123.846 315.293 124.333 315.465C162.259 328.89 196.762 327.945 228.736 319.044C229.139 318.932 229.569 319.081 229.815 319.418L243.747 338.47C244.13 338.994 243.935 339.732 243.331 339.97C209.724 353.166 146.663 350.923 114.415 336.904C113.904 336.681 113.694 336.086 113.931 335.581Z" fill="#E0DDFF" stroke="black" stroke-width="4"/>
<path d="M180.244 242.375C185.373 258.775 214.774 262.217 237.403 238.89" stroke="black" stroke-width="4"/>
<path d="M207.5 208C207.5 222 214.5 233 214.5 233C214.5 233 211 239 201 237" stroke="#171921" stroke-width="4"/>
<ellipse cx="176.53" cy="185.402" rx="9" ry="13.5" transform="rotate(-6.77646 176.53 185.402)" fill="black"/>
<ellipse cx="240.531" cy="175.402" rx="9" ry="13.5" transform="rotate(-6.27568 240.531 175.402)" fill="black"/>
<path d="M145.5 188.5L111 195.125" stroke="black" stroke-width="4" stroke-linecap="round"/>
<path d="M141.488 171.939C140.618 168.48 142.94 165.031 146.472 164.534L185.188 159.093C188.47 158.632 191.504 160.918 191.965 164.2L197.532 203.81C197.993 207.092 195.707 210.126 192.425 210.587L157.953 215.432C154.916 215.859 152.047 213.927 151.299 210.954L141.488 171.939Z" stroke="black" stroke-width="4"/>
<path d="M263.751 154.964C263.634 151.399 260.451 148.723 256.919 149.22L218.203 154.661C214.921 155.122 212.635 158.156 213.096 161.437L218.663 201.048C219.124 204.33 222.158 206.616 225.44 206.155L259.912 201.31C262.949 200.883 265.175 198.236 265.074 195.171L263.751 154.964Z" stroke="black" stroke-width="4"/>
<path d="M194.5 183.125L216.5 179.625" stroke="black" stroke-width="4"/>
<path d="M168.837 127.819C168.051 126.078 168.051 126.078 168.05 126.078L168.047 126.079L168.04 126.083L168.015 126.094C167.994 126.104 167.964 126.118 167.925 126.136C167.89 126.152 167.848 126.171 167.799 126.194C167.74 126.222 167.67 126.255 167.591 126.293C167.301 126.431 166.882 126.635 166.352 126.904C165.291 127.443 163.782 128.242 161.972 129.295C158.356 131.398 153.515 134.527 148.628 138.626C138.912 146.776 128.705 159.03 128.09 174.926C127.826 181.765 126.971 214.806 127.162 227.433C127.323 238.065 132.825 249.481 140.458 260.008C147.109 269.18 155.508 277.857 163.832 285.008C126.066 286.501 97.4555 281.546 78.1209 276.121C68.038 273.292 60.4742 270.334 55.4473 268.094C53.4602 267.208 51.8695 266.434 50.6763 265.825C59.7707 259.141 67.3578 247.682 72.3638 230.675C77.8537 212.024 80.288 186.554 78.1521 152.963C76.2166 122.525 91.0087 96.8092 113.36 78.629C135.735 60.4301 165.55 49.9109 193.238 49.9109C208.221 49.9109 220.377 52.8448 230.177 59.9616C239.98 67.081 247.668 78.5619 253.363 96.1322L253.758 97.3516L255.036 97.4485C267.412 98.3865 276.115 103.488 282.532 111.662C289.017 119.924 293.24 131.422 296.336 145.232C298.376 154.332 296.389 163.311 294.001 173.651L293.89 174.133C291.553 184.25 288.952 195.505 290.096 208.666C291.126 220.51 295.853 232.135 299.782 241.074C300.287 242.222 300.776 243.321 301.242 244.368C302.617 247.455 303.793 250.096 304.586 252.253C305.118 253.698 305.425 254.79 305.523 255.566C305.573 255.963 305.555 256.168 305.542 256.254C305.097 256.665 304.273 257.12 302.957 257.522C301.588 257.94 299.864 258.248 297.882 258.442C293.921 258.828 289.138 258.738 284.544 258.296C279.942 257.853 275.638 257.067 272.623 256.108C271.092 255.622 270.033 255.134 269.436 254.711C269.345 254.646 269.275 254.591 269.222 254.546C269.594 253.259 270.132 251.723 270.753 249.949C273.947 240.824 279.348 225.398 275.855 205.08C273.766 192.924 268.189 171.457 263.162 153.11C260.643 143.919 258.255 135.483 256.496 129.344C255.616 126.275 254.894 123.78 254.391 122.052C254.14 121.187 253.944 120.515 253.81 120.058L253.658 119.538L253.619 119.405L253.609 119.372L253.607 119.363L253.606 119.361C253.606 119.36 253.606 119.36 251.772 119.899L253.606 119.36L252.677 116.201L250.395 118.575L250.395 118.575L250.391 118.579L250.372 118.599C250.353 118.618 250.325 118.647 250.286 118.687C250.208 118.766 250.088 118.886 249.928 119.044C249.607 119.361 249.123 119.83 248.482 120.429C247.199 121.627 245.286 123.343 242.784 125.394C237.779 129.498 230.428 134.938 221.067 140.257C203.25 150.382 178.216 160.037 148.246 159.29C157.86 150.359 163.392 143.018 166.562 137.701C168.329 134.736 169.36 132.403 169.955 130.778C170.252 129.965 170.44 129.331 170.555 128.884C170.613 128.66 170.653 128.484 170.68 128.356C170.693 128.292 170.703 128.24 170.711 128.2C170.714 128.18 170.717 128.163 170.72 128.149L170.723 128.131L170.724 128.123L170.724 128.12C170.725 128.119 170.725 128.117 168.837 127.819ZM168.837 127.819L168.051 126.078L171.276 124.623L170.725 128.117L168.837 127.819ZM269.068 254.388C269.071 254.388 269.082 254.402 269.097 254.428C269.073 254.401 269.066 254.388 269.068 254.388Z" fill="#282526" stroke="black" stroke-width="3.82184"/>
<path d="M254 97C254.5 101.5 253.7 110.5 252.5 116.5" stroke="black" stroke-width="4"/>
</g>
<defs>
<clipPath id="clip0">
<rect width="200" height="320" fill="white" transform="translate(90 40)"/>
</clipPath>
</defs>
</svg>
